<mxfile host="app.diagrams.net" modified="2024-02-15T10:22:40.580Z" agent="Mozilla/5.0 (Windows NT 10.0; Win64; x64) AppleWebKit/537.36 (KHTML, like Gecko) Chrome/121.0.0.0 Safari/537.36" etag="wAeV_VM82_jKKFifJ5bO" version="23.1.4" type="github">
  <diagram name="zalando" id="I3ATN_MY5dhsaq60-ITU">
    <mxGraphModel dx="662" dy="372" grid="1" gridSize="10" guides="1" tooltips="1" connect="1" arrows="1" fold="1" page="1" pageScale="1" pageWidth="827" pageHeight="1169" math="0" shadow="0">
      <root>
        <mxCell id="0" />
        <mxCell id="1" parent="0" />
        <mxCell id="2x6z2sCF0aa3ZfLK6q7P-18" value="" style="edgeStyle=orthogonalEdgeStyle;rounded=0;orthogonalLoop=1;jettySize=auto;html=1;" parent="1" edge="1">
          <mxGeometry relative="1" as="geometry">
            <mxPoint x="485" y="310" as="targetPoint" />
          </mxGeometry>
        </mxCell>
        <mxCell id="2x6z2sCF0aa3ZfLK6q7P-20" value="" style="edgeStyle=orthogonalEdgeStyle;rounded=0;orthogonalLoop=1;jettySize=auto;html=1;" parent="1" edge="1">
          <mxGeometry relative="1" as="geometry">
            <mxPoint x="540" y="280" as="sourcePoint" />
          </mxGeometry>
        </mxCell>
        <mxCell id="2x6z2sCF0aa3ZfLK6q7P-27" style="edgeStyle=orthogonalEdgeStyle;rounded=0;orthogonalLoop=1;jettySize=auto;html=1;entryX=0;entryY=0.5;entryDx=0;entryDy=0;" parent="1" source="2x6z2sCF0aa3ZfLK6q7P-21" target="2x6z2sCF0aa3ZfLK6q7P-26" edge="1">
          <mxGeometry relative="1" as="geometry" />
        </mxCell>
        <mxCell id="2x6z2sCF0aa3ZfLK6q7P-21" value="smart-trigger" style="verticalLabelPosition=bottom;html=1;verticalAlign=top;align=center;strokeColor=none;fillColor=#00BEF2;shape=mxgraph.azure.scheduler;pointerEvents=1;" parent="1" vertex="1">
          <mxGeometry x="30" y="80" width="40" height="50" as="geometry" />
        </mxCell>
        <mxCell id="2x6z2sCF0aa3ZfLK6q7P-29" style="edgeStyle=orthogonalEdgeStyle;rounded=0;orthogonalLoop=1;jettySize=auto;html=1;entryX=0;entryY=0.5;entryDx=0;entryDy=0;" parent="1" source="2x6z2sCF0aa3ZfLK6q7P-26" target="2x6z2sCF0aa3ZfLK6q7P-28" edge="1">
          <mxGeometry relative="1" as="geometry" />
        </mxCell>
        <mxCell id="VDRt1GdDFgU5lnnH4qG3-2" style="rounded=0;orthogonalLoop=1;jettySize=auto;html=1;entryX=1;entryY=0;entryDx=0;entryDy=0;startArrow=classic;startFill=1;" edge="1" parent="1" source="2x6z2sCF0aa3ZfLK6q7P-26" target="VDRt1GdDFgU5lnnH4qG3-1">
          <mxGeometry relative="1" as="geometry" />
        </mxCell>
        <mxCell id="VDRt1GdDFgU5lnnH4qG3-3" value="Internal&lt;br&gt;Dependancy" style="edgeLabel;html=1;align=center;verticalAlign=middle;resizable=0;points=[];" vertex="1" connectable="0" parent="VDRt1GdDFgU5lnnH4qG3-2">
          <mxGeometry x="-0.0496" y="2" relative="1" as="geometry">
            <mxPoint x="-9" as="offset" />
          </mxGeometry>
        </mxCell>
        <mxCell id="2x6z2sCF0aa3ZfLK6q7P-26" value="smart-portal-sa" style="shape=image;verticalLabelPosition=bottom;verticalAlign=top;imageAspect=0;image=data:image/png,iVBORw0KGgoAAAANSUhEUgAAAO4AAACECAYAAACXgRceAAAAAXNSR0IArs4c6QAAAIRlWElmTU0AKgAAAAgABQESAAMAAAABAAEAAAEaAAUAAAABAAAASgEbAAUAAAABAAAAUgEoAAMAAAABAAIAAIdpAAQAAAABAAAAWgAAAAAAAAFKAAAAAQAAAUoAAAABAAOgAQADAAAAAQABAACgAgAEAAAAAQAAAO6gAwAEAAAAAQAAAIQAAAAAyiTvzQAAAAlwSFlzAAAywAAAMsABKGRa2wAAIsdJREFUeAHtXQmYFNW1vt2zMQsDw7CDIKKoILiigs8nuKDGxKgRoxLZkhDFaGJc8mL8BKKJMcnTxJcYg4qCMYkao1mMu2A0IriACIggEllkZ4bZt+5+/189t6em5nZVdU91T0/1Pd8307XcuvfWqfrrnHvuOecKoUlzQHOg23Eg0O163M07PGfOnLyWlpZ+gUCg4eGHH67A7US6wy1dddVVxQWBgpGhSKgskhPhe7Ortrb206eeeqqpO/Tfb30M+u2GMv1+GhoaSkVYXB5piVwxffr0I+bOnVuS4X0OXHnllWU5OTlnhgKhB0RQvIJPzVJ8eG4pLy/vneF99233cn17Zxl6Y/n5+bnhlvDYsAhPDwaCO+tr61fNnjn7XwDES7m5uesXLlzYnCldnz179mAREl9EX78CsJ4cEREN1Ax5OBq4XfcgqO0MARiGRCKRCwCQBU3hprUAyxPhcPglAHxrRUVFPVRRAjkt6vTUqVNz+vXrV1hXVzcCEvWr6Mc0tD0Mf1ozAxMyiTRw0/w0ANJmwGB3IBRoAWgl/zlmLAQ8x4dD4fHYrm1uav6kuLh41cyZM98PhoPvNoYa1z3++ONVXnd3/vz5wa1btw5Ev8YHIoEJdbV1E9DGOOzHla4BEWhB2T3Nzc0tXvdH1+eOA9o45Y5PXpYKTJs2rSckKgFyUyQcOQO/BLDyWRAkONeAv12Qgi/miJzFJbUla+958p4G7CcliQnWPXv2FNXX15+M+r8ByToJ9ZfhLx9/SukKIEeCwWAjevkyPjr3osfvLlq0qAblk+oDrtPUCQ4oX5ZO1KcvTYADN9xwQyHU4ZOAiSsAoMm4dCT+8uyqMIAcEGsgrf8OIL0Cqbfqscceq7W7pvVcYO7UucX1JfUnQlpOQZsXAoSjiUeHa6vxgViPdl+NBCJP79q1a93zzz/f6HCNPp1iDmjgppjBbqrH2DIfavFgAJGAuhpS+HgX11HSVQSCgQ8ArDuGDRv2BiSpUnXF8Vyow6dDsi6AfDwG11ENtn32qPMgyv4dYF0C7WDVxo0bK5ctW6as30VfdRGPOWD78DxuS1fnggNQo0sBlPMB4KsAnBMh6fqaxsLxaggDaI8BissBznbgwvG8oAhODEfCX8PFds87hLYqANSNKP9cbiT3iYWLF26O16A+3rUcsHuQXduzLG+dAC4IFowKB8JnAW5TwY6x+OMY1GuqR/2rUOmz+HsDwN+0ZMmSA9jWY1evOe1hfRq4HjIzRVUFoErn9ezZ82SAajrGp5MhgftDOha5kMTWLhGM9HSqgSTejuv/BseKJ6uqqj7CtFPIWljvZy4HNHAz99koe3b11Vf3h/fVaAD4aIDvaIBvFGTjMEjNQVCvS3EsZmzCPoFK49IWlKPauwGH1uZF8tY1Rho3uzRqKfuhD3YtBzRw08R/SM1CSM3TIDVnQVo2BHOC927evHlDZww+dJgYOHBgbmVlZW5eXl4wWB8saspr6gUjVxH+Io2Njftxe1UwfLXAet0yZsyYFhiqwgnecgD+1bktDS0nYaJoDryoDsGH4DPU8SZ+X4S3195M8vZK8N66bXEN3NQ/ugCcKIYDrPMh7WggymltshK/L8Aq/DTU1bcffPDBHQBCxowr+VEA4A8JRoKnRYKRr8DSPRn9tTplVEHS/xPHF8GgtkwDuPXJpuFHAzfFTAYASkqKS14EaOlwYeU3gdqAo58BtP8AgBc99NBDH6W4S7bV0zkDU0dj0d9vAKzno/Bg/PXAn7Xv5noOQoO4o7q6+pd6rGxmS+q27R5G6lrNoppnzZr1cwDgJpe3XAsArwBEngmGgisbw43bioqK9qVSkuHDkl9YWNgPH43hkVDkVLR/MdqnUwjB6ppwXRhaxdcXPbroUdcX6YJJc0ADN2nWOV84Y8aMkXihP4TxqNC5dLsStPBSld4BMGwI5ARWAkjLWRfcDKvblUxi57rrriutqak5HgauCRiz0kd5FIxXQ1BVL/zFjFtJVF3R3NI8Dj7V25O4Vl+SAAekk3sCl+iibjmQF8y7HIHnhQCF20tkOY6Dy/mHa8dBEl5GRRWSu3bWzFmf4PhqgI0fhE/DwfB2SMuKQFMgFMmPhOECGYGhKhAKhQI4novfvgD8UMQAH4brOBd8XHVV9Sj85st+yV8c6xShnTKMdWejkh91qiJ9sSMHNHAdWZR8AYD2HEjK5CswXxmtphj1HYvDxxpgo76E46GWUBPkZLNoEc2I8Q0hwigHwM7F8QKUyPOsD+b+KLbZDryupuCUBq6CP14e0sD1kpsd66KESwfRo4p/BqULqLI98y++GhPN+3o7NRwIpqZaXSs5AAD1yTZOQF3WdpM0PHQN3DQwWTehOeA1BzRwveaork9zIA0c0MBNA5N1E5oDXnNAA9drjur6NAfSwAEN3DQwWTehOeA1BzRwveaork9zIA0c0MBNA5N1E5oDXnNAA9drjur6NAfSwAEN3DQwWTehOeA1B7Lb5fGRLZO8Zqi5vl0fLDbvZs92ivkaY+SsEcti21m2kV3uaXyhgmISIm3OgHP+pCx71n6+3QWIflomsgjI2QFcAjZHzNNg9TN2Y/e2QMwYMT+259MN/wN3yZalGrA+fXvj35bvwetf4GopG/+1zpYzYTHZr+qzP4EbHcsuzZb3U9+nLQd8KX39OR0UFBq0tu9yVp2cJ/gh9xn5D7gc02rSHDBzwIcfcn+pyou3zMfzmmd+Zn7c5kPLCwZET6zDV5IXEEU5AYFd/AZFPtLMVTQhd2MEiwThX3VzRFQ1h0VjCAeymQKYLpo+YrJfWOA34Pr67SzODYghRbmiX4+gOAS/R/bKEyN75hrHgF8xtDhX9MkPitUVTaIZoCWAPz7YLD7C37bakNjXGBI760PiII77mlHx0OkjY5V/PKei0jbeI+uWx/lVLYA0/e8BPcRXDy3GbwGAmSMI4Hwcj/fVPQPlzUSQEsh1LRGANyze398onvhPrVi2q8EAd9aAmHP5ApLXBxTv2Xe/W1uMBel8QvnQe88c2ENcMLRIfGV4kRhUKJcb8vYGP4f0fWFHvfjbtjrx1t5Gsbch5G0DmVjbjBG+eOd9cROG1dAHBohCSNHJAOx9J5eLYcU5xjjW+u5TctZjvMq/XQAe1eCNVUipjDX4qArXYEw7oiTXkMj9CoJibFm+GI59joN74I8S3PzQ+bVrQZ2fVLeIBzZWiz9uqRX7UQ8O+ZN8oi6bn6G7B5WJpnX6H3dzo9TcI3uK2Yf3FCeWx9Ijx54HMfTOvkbx0uf14r0DTWIjwLqjdawaK2SzQdV6IKT2iJI8cUKffHHWoB7ilH4FoheMW2ai/epjfAQe21wjfv9pjdhe50MJTCNVSCww33eXbyfhY+0OuNoLKSXPlpbgo2Fguv+UcmMca24Ew1EYlFrE81Bl71l/UGyGRPSShsK4Ne2wYmPsfDgMXLRQm+ltqM53rT0oXsbHgtJdU4o5wA9KRLzu1s/aHrgasCl7WrlA7b0nlYkrR5SIPlBpzUT193vvHhArAZ4DsACnivjwSwDY4yGFrx7VU1w8rMhQp2V7nEb682d14hfrDhoquTyuf1POAUdvr/jAzZI50ZQ/AkUDoyFl/w/j2EkYz1LqSvqwskn8ZM1B8SdYfNNNGPoKWqOvP7rUGGeXmiTwcnxAfvRBpXgNVmjODWtKCwdswWt6bUyd0aA1McPbzUuHF4t7x/fB3GtOzEhEg9NtqyvF/RuqRA115C4kGrAoeb9/TC8xDoYt+YLsgcV5Hvr4OIxX1ZDEmtLAARunkY7zDBq0KXsiVEcJ2gEwFElAUJpdsmyPoZKmUCt2fU/8bqytbDYMYQTxkaV5hiW6OBcWwIHRZX7XQ5Wv7eIPjOsb6t4FDxUXfzcgnv3VMuttyPen7biP5kPbbqprtzgve+PoUnEzpFgZPJtIlLIPbaoRN793IGNBUIB+XwNr9w3o+yHwyuLLQjsVjWW/+qhK7PCj1dl4Ohn2TzGF1V7iRqXtpAzrdrfvzrxje4vvjW4DbSNAe+2KA+JuWG0bMthiy66thJcVjWV0r6S7Jcfkp/brYcwxr8WYvArzxppSzIGgOFQ886vF5lbamzO7+Vyo+cYyYZsGn28fVSq+BRW5d6ukpf/w9Df3icWYK+0Ohh7aouhddct7FeLNPY2GxOV9XYf74rxzX4tFPBP47rs+MD+axX+iDbiWE767+S64oWmHlYibx5QiKCCq2NDwdNnre8VfttYaqnK8Lh0GT6ejIOHSRcOgBnM+GX4acYl+zdeu2G/4N1PGUvL+YGwvzAWXxD5KcS/WJzznQBtwo95HnjeQrRVybpTjWjk2pCV2zvJ94o09DYZ7ooovBM43jugp1l80RDwysW+7qSJVeS+O0atqxsgS8eqUgeLuE/sY7pHx6l2DqKN5H1QIGtQoiWm8Ing5rcXxsKYUciAaIBFroA24sUN6o7McKIf6eNcJZYYU4+tMA+zNUDXpzB8vLpYAWnbuILFwQrkBglPhkkg1O9V05qBCOIEUG4EM38Uc7sMT+orTMZ8bD4b/hrp855pKwTln0gBoEz8EeMeW5cW9JtX3kI31m4E7LxsZ4PU9U/DcOra3OKVvQSxI4NeYn33qs9q41mPG1L5x3iBxWv+Cdi//fBi1DoXanCo6vGeeuAzRR1ItZ9/px3wfpqy+iMikeEKUY176M3/ealU+qbxAzME4nvHAmlLEAUsecDNwU9RidlU7BRLsgqGFsXEfJRSBW4E4WBXRT3gp1FSq1lbi1BH9mFNBVHPZz6lwCLHScejLL+COSWcR1biXY9xff1wtXjT5MU/HWHcitATWqyn1HNDA9ZDHdBNklA+NSyRakG9fXSG2IvsEX3YrDYX31HNnDbCVVGdDAl4FUHhNEwCymRjbMsxPRaPgeHHHcb0Nyas6T5X/p5jOehfTRbw31nMTDHFH4DpNqeeABq6HPJ4+slicALWR+aBIv4VUokGHzhZW4jTK05P6C6qrauhEr2BdPz6+t+jfapm21pPMPq3IlyOjBiWrHRG8ND4xRlhFjAP+E1wgtyOKiUSV+RK4S+opIhW3vD2mgesRPwmsiw6JGnlY5TuQRH/YUoOg9I4qMoH66Gn9EHtbEHccae7WYDg+3HNSH/OhpLf5IaAU5zSOGzoZY3UayY7prQY556NX7GuKzUlTOxgGjcPuY+SmXV3GngMauPb8cX32Uhh5juwV9SyigL0f0vY/NS1KFZlTPpRicbTUDm2y3EWQZByTdpbGI1Cf7dOK7Za+fEgRxrtFHcIPeT19lh/dXC0+bY0XpqHtC0OKRJl2zHDL3qTKaeAmxbb2F3Fsy/xQgwqjY1tK25XIWKFyxOcY8LZxvURhAsBha0Uo/3PMs1oD3tv3xH6PuasugcGJ49tEiB8OWo0nY5pIZWmmlZljXRlw/zUE6NM90v2nIZHe6LLkgAauB+8Bp1AoaaQEXfRJjdgKaauiBZjiMUcHqcqojhEEzCVFg1EyxPBaxtvOPtydimxtg6CfDmPWmF4dVWb6ND+NgHs51uXY+JS++cbHxlqP3veGAxq4HvDx3MGFgqlgSAx5o7RVxdUyzSrHl8l6GXGqhWNIeiolSmMxRv0mpKaMTkr0epbnfY4HIKXxzVwH82Ex4RydTfiROR/qcp+C9jEs5vJ6u3Mc0MDtHP8EpQsNN3LM+M/t9Ub2RVW112KqqLQ12EB13s2xXrj+ruPLEpJmtPJ+CePUeNZhN+2yDKd8GGTPGF0r1UHsLoU/877WFK9TAHImC1Cp1tZr9X7iHNDATZxn7a7geHEQXlASQ/Re342XV2FJpicVXQmTlbayUarjx/TOEzchTNANcSg9sX8PcQ2kLSVhZ+lsOJgwEyVjjK1Eh4zdrcAtQcO8Zwbga/KeA5qrneTpsUjvIuctOWf7GeY0mafYSlMxb9oZw5K5vmIMWGdhrOo0D8trRiHq5+soy3G1F0R1nR5S8mNlrpPxuZ9UtQjGG5P+Cx+MUq6NoslzDmjgdoKlVFsZYC4B+c7+JnEAycStRDWahiEmJbcjWmX/BYntRKxlMKT8nceVCSZRj0ccz16AsSb9jp2IUNsCgxqnsJzoDIyxhyv8kolXfry40BiJkrlES1wndiZ1XgM3KbZFLzoKYz2uFiChswbJyisViaMmIGMErbIK7bJd6w9vqhYXL90Tc2Zod9KyQ1WVEUSck1UR26L/83VH9XRsl9cTcLe+X2GsZEADkx1xjMvABNVHg9NCkgcMkOAqCrRoa/KWA5qlneAnpY40NtEveVN1s7GwlrXK07FYF8d8dkRpuwApUJlH+Ztv7bcrGjvHfMzMrsEgeCtx6ohzr4wHdqKDiBV+Cilh/4wIpn9iTnb5XmepfxyGCDJBgLl+WtVlFkjeMYMoVONh8zV6O3EOaOAmzrPYFYdgfR+pJnMdH04BqYTVaMx9OkXNEDTSqLUEy388B+u0ExEYBCj9ic1GL/bpHBiRVJE/1jrZX66W8Af4HFPSrj7QKN6Dyu9EnLeW6XjMZXci1I8fMXyHDOI0mQaumUPebGvgdoKP9A7q2SpJt9e1wFOqo18yx7d8ybksph0txIJbZpr11r6Yymk+bt2mR9WZSJt6OYLhSWxlDKzONyJSx0k1Z/kPoSJzoS+Ob0n8+KyGyr+1NXDAOKj4NxLBESrg0jDFj5jMp8XpsngRSIpq9SGXHNDAdckoVTGqqlKSbkfoHteftRJfcLpE2sGWqiod9c3EJS+vX3nAfCjuNsfPTKPKcEKqxnMw7mXUkRNRpWVWDkpcMzGr4yZYh+2I2gat6aqPAz2oZKaP4SU5WuLaMTLJcxq4STKOgOVqd1wDiEQpU68ALi3PDsJWrKtoVob+MbroL1vrHHvILnCce+u43sa6ulzMyw29urNB0D3TGnZI7YEr19sR1V+Occ0quizPNYckK3ICdp8seYX+TZQDGriJcqy1PF9HvpNOryWtzioXQXOzK+AiqSKOE7+zcr/Y7QAiXkupTuf+n51Y5krCUapyORGpIpvb34P2dtWrI5vM5fjBUOGSY1z5MaBU1jNCZq55s62BmyQfORViNro0YGwXinRUlVlG9XKbm7UbT3LV+OvfcacyU/qpLL3mtrjNqKXntteJZ5AmVkWUlnRhVDmSmMuzLdWUEC3krT4YxkfL6eNmrlNvu+OABq47PnUoRRWZEkdSlSFl5F7bb1+83E7OQzIcru2qti0CgONQBqx7RXTL5Orz0vKrqpf3Q/BqykwOaOAm+Vw4jjMvH8IMGNJQZa6Sai6K2tJBgMSOaOi5bVWFsdC1XTk35zYh3czjmG7yYqHsEL4qCiWj3fBBY9/NU0m8jAZu4jxL6ApOi9jDErmJHfyIKfdo/OJi150hqsgvIBDgScTOOhE1CifDEp1FOESwEnMtwyZnEK3jilky6yV6P0EOaOAmyDBZnNKW0ylyHFgCfVhlhNkP32VZRl5r/XUTI8txJ6dtHk1SZSa86BH1mw3Vjv3hCIBztE6+1eSBSqLSGBdsHdiz3x2hbeWA3k+UAxq4iXLMVJ6J4BpaxSkTuhUpkEsppxBKplqEOMEh26IszHliukWqLMGyTLzfzXDHXLK5VnwMVdmJaKHmagzmMbz1GlqNo+P6jrBk5BAuN2gHppakhdlah95PngMauMnzzpjrrGkdwDJHcrFiwpYpTDk9Ygfe45Ht0Q0RIlw9gCqzXX3WuqgZvLijASqy2opsLc/II6q7drQNDid00bT2gywgL6S3FMfSMszPrj59LjEOaOAmxq92pbfBQ0g61NMnt1hhPqbEpZSze3n5oo+Fm6Ib4piZK+f9zuIiGe9aAut9uDA+sLEq5s0Ur6w8TmeOwxVZLuR5/n4CCc4PkpWi0jon5phCHjkZ56x16H1nDmjgOvMoboltkH4y9pQGJs5rqpwtPjrY5AgaJmJzS7RC37O+SjBw3YkY2L8E4+K1lc4qsqzraARFjIT7pB3xY6SKPba6eG6GD7R0f7SrT59LjAMauInxq13pjfA+ovGJxFgDZsPopZC6K/Y2KVO1miu7EkngMLR0RVSZt2HsePvqynZTUtaLKe1f3RmN/LGei7fPONuTEAAvVd145dbhQ6BK9s4YYLp5kug2ybG1DDiIV5c+njgH7D+rideXVVcwvxIlymkACKN0GKNKa6wMz5PM4Jq4n8OF0C6YfjAk9rdGlRoLhMnr7H4pxagy01h1JjJHqky37BsXHDPPN9vVyXNnIbsFs1HaEWNu+adyHGHWi96tH69VUNGlRmJXnz6XOAc0cBPnWbsrmDliH6TusNxcI1VLX6QkZZpSMxE4/9hWb2RH5BgwHjHn8u/hHCEzSMQrJ49zjMmFt/jnBY3Dh+e8IYXKFQvM9TO9zmetYYDm4/RLHo2xurSu0wdbGu/M5fR25zkQ/y3qfN1ZUcPbWJ2dzhEkhtQdC1WRc7pW+it8g508pBgmuGhiX+uladmnz/FFSOHKAHw7opGNS4fSh9pKlNSDsZoDp5GoHr8JgEvjnbWs3u8cBzRwO8c/I1cTDTVSHf0CJNbAHh0VGeaj+jdA7mSoYd7i7x/jLvVqJ7seu5xAuwxZKJkw3Wls+/LnDeID3IvKqeQc5FLu3yP6Si3HvTLxHEYRmlLAAQ3cTjKVnkOvY6wppS6lzjAEmVundPn+/gwqrXX8q2r+pyeUiW/GSQKnKt+ZY+wns0DeMLrUmH+1q4tjWkYUqZw4mEKHjiQylQ9T7+xXTBfZ1a/PueeABq57XsUt+RqAux1TQyQapy4ZVqx0YKCx5llE+qiMOtbKf3NKH6yLW2Y97Ok+Je2FUI/vxoeCFnEn4uJeHLeqrMRMncOMjiQa7TgO1mqyE0eTP6+BmzzvYlfSBfFlOO/ToZ50CZakZGpSlcvg/647KHYA5E4aJOeDb0USOC5+7QZUsc643BgIK/YtY3qJ+04uN1KtOl3GMS1zU22ANdlKXGrkPENNjnpbPYFynD+m84em1HBAA9cjvj6B9KaftlpaOe3DsSotzFYiyOevrnAtjbjC+xvnDfRU+jK4nxkgKdHpteVEHA78Fuv9voQ5YW5bieNj5riCADe8qZ6BViE/Ytayet8bDmjgesNHY9z3CnI4HWhdN+jrGKNyiRCVJxVTxjysyPUUryucXhmtyJ0cr7zTcaq6dP7f06ohOJX/C8a1T8PPWWUVZ0bJSzE0kEuS/An3xphfFcCd2tHn3XNAA9c9rxxLPoSVCNbDvZEqIkP1rj+q1FixTnXhD7BqwDvI7OhGnQwjWv1fcOLwkqiuq9ReaxtcMvR+SFvmqLISDVtMyH5MWVTacpzP/MxOieas9ej9xDmggZs4z+JewekPhs5RmpHOxdTQl2H8UTldcFrowqW7BQ1WCu2zXRuUXrRce0ns4wZIRjt6B6C9bVVl3LZ5b5z3lffH8Tv9p918jOza1eecOaCB68yjhEo8jpSqnK+l5Zj+yz+EgSneYtD09f3Sa7uNhbDtGuEU0mp4aHlJuxFI/DGkaLyPBqXxTzB99QrGtaoyXD/o+qNLjUXP2C+W4zKbbr2+vLyXbKxLA9fjp85g9zvWVIp1rZKHEUN3YbqFCcRpvLES1covvLLbWD3Aeo77lF70zvJaijG4nZZfht1Z6S20x8ySTFKnAi3XQbp1XC9j/VveEy3Ov1hXhbWTOtZlrVvve8MBDVxv+NiulvWInOGLLFXm8QiU//mJfeLmlmLupgnP7xS//KiqXT3cIXBe29V+pYEOhZI8wNUXGOgviV5Of0Y+qqvf3m9Mb6k+FjS23YhppPMx/cPkeDR0/fTDg8bHReVNJevWv95yQAPXW37GansS00OPfVobCzbntA6DCJgSRkV0mbwBUm7q63uM9XtkGcMwBWeGVBBDA6WBitM3P/mwUlzz9j5jPSFVe5yXnoulTri0JzUJflQe2lQj/grJzGVUNKWPA+q3KH3t+7YlvtR3Y4xIdZNxsSS+8PMBXukWaBy0/KPEO+7vO2LSl6o0Y19TQQQrA+z5kfnSa3vEnWviu2RSJb72yFJxo8k18lksj/Kbj6uU6nYq+qvrbONA27Br8Zbo29V2Tm95wAFOCz1yWl/Ds0g68DPtzA+RJ5lzvnZMHws3xAuHFoofQxVNFVH15UugcmOUbTLb47cxtfUdGKOYj4rEpOrMffW+iyU5ZT36t5McmDEihtfYhtDA7SRX41/OjBCPIFyPkUMSvLTCTntjn6MTBB+QHbjjt+rNGS4T+j+IVroG0laq+UwTezu8v5jLSjUO9qZlXUsHDpiAq1XlDtzx/gA9jqa/uVf8ESqpDP87G/OfS6cMdMw20ZWgpcRnfPBNMEYRtOzLM1CPb3rvgHgXklaD1vt3xW2NbcANiGVuL9LlEucAF4z+1vL9GBNWx/yUmS3i5XMGiO9CBVUtnpV4K95cQV/mS+HL/ChU/KnwQ6b1mMN0Lr59M0BLq7mmruVAG3Aj4vWu7Yr/W+c48ha8+NdgukXG7xIk947vI5aeO1AwEL2riZFID5xaLhZOKDfia6mq0z3y++g3x+VerDnU1ffYLdu3CNY24Ia1xE3HA6V6ySCD01/YacS2ynV1TulbIF46e4D4w+n9EGmT2yEQP5V94wIMDEO8HQtj/+OsAWLW4SWGrzWl7GqMY+eu2C/uwxyzKqtjKvul6zZxwCJYO+ZYMZXVm6njABPKnfPybvFVqKLMeCENP1cgIP2LsCS/ibxOP4PvLzM5porokslxLIFKv+MhSOrOwAESE+D9bmONeBDqMed79Xg2ypdM+d/6mFq7s2TLUlggJmVK57KlH4zfvQfqMoPRmUHDTHSQ4Fq2zCjBIAbV6gHm8k7btBIPR1K7U/sViCtGlIgzBhS0Cz2kIW0Z2mLCdbapKUM4YLIos0ftgfvIlkkiKJZmSFezqhuUdFw4jA4aM7GqARe7kw8HGqvhxFEBKfgBgg1o2WVUEYPyGczANWpZJmJarJar5bEOjqH5YWCSc46hJwKwXMu3BGliKXFJvJbWbk7z3AvAvrc/GiRhnNT/MoEDC8SMEfPNHZHvRtuxxVtYYF7bAb2Vbg6MQuQNs0pw3peSseNDivaIluqdSLTOpOPRBbQJQayqALDS8aMP/voBtPxVEbBqJABgLikGy69EfLBeWU/FqS491gG07I36ndAqc5c+Kflg6NV0RGmu4bU0BdKyHAAsNknKRDtJY1M9rGF7EdL3NmJtuTI91eE6IFiPYRPlZprKW1Rk2araOBUSCwQ92/R4V/Ip7b+UnZw+op8yp484l8oUqEdAGh8BqzNX0xvbG4tzYZveWNbFsekfXQXHf047McSQ9TASiEYxhvOp0tCk/SZ1g/YcCIvJ8QqoJa4srdVmyYmM/uX4mIEL/CVFJWvE1v84WlL/z0gOcM6WwnPWiGXx+mcPXF4VBS+35vGfJs0BzYEUccAFYGXLzsCVJfnbBmKOjs8wn+rSba3Sdyn7u13jFi+kLu0/HSuk85ONhLX2MTHgWq/OlH09jZUpT6I79ENppe0OHTf3UT1PYC7RHbYT+FJ1h9vRfUwhB6R0S2ET6ajaH8AlpzJJ/UnHk9NtJMcBn3zk/QNcWuE0aQ7Yc8A374g/xrjyYWnHEckJ/WvlADWy6SMmWw93133/SFw+AS11u+t7mPp+W8LiUt9galvwl8Qlr7SFObVvTPes3ReWZDPr/SVxeWdR44NvxjLmh6W3k+KA70BLLvhP4spnq901JSey+deXoOUD9S9weXcavORCtpJvQcsH6m/gyldWA1hywv+/Cfj7dmdmZAdw5RMigOljrX2bJUf88Sudbxwiavxxs9G7yC7gmp9cVApLLmROwIS5j3o7PgeSdM6PX6E+ozmgOaA5oDmgOaA5oDlg5cD/A+qplueDZ5IZAAAAAElFTkSuQmCC;" parent="1" vertex="1">
          <mxGeometry x="290" y="72.5" width="110" height="65" as="geometry" />
        </mxCell>
        <mxCell id="2x6z2sCF0aa3ZfLK6q7P-28" value="" style="shape=image;verticalLabelPosition=bottom;labelBackgroundColor=default;verticalAlign=top;aspect=fixed;imageAspect=0;image=data:image/png,iVBORw0KGgoAAAANSUhEUgAAAJEAAABHCAYAAAAHv6URAAAAAXNSR0IArs4c6QAAAARnQU1BAACxjwv8YQUAAAAJcEhZcwAAFiUAABYlAUlSJPAAABcxSURBVHhe7Z0HfFRV9sd/U9NDIIUSQigBQgs1BgioFJcVFLuiouKuiqu7oqK7q7t/pVhYcAGlKGUVQXcRVBCRIk1AwADSCQkJJKSQOultJlP+5953JzOZzCSTQorM9/N5mXvPfe/Nm/vOO/ecW15k6enpJtjBaDQiMysbp89ewPWMTFxJugadrhK9eoYirGcP3DH+VsjlcrG3i5sZh0pkD71ej7TrGYi9FI/JkyYKqUTc5US4uanRI7SbkLi4WaiXEtXGth92Y8P/voZfO1/M/OOTGDFssChx8VunyZSIkZqWjlNnziPxajJSUtPQt08YQkO6YvTISLT3ayf2cvFbo0mVyBrW9CVdS0VcfCLOXYhFUvI1LHz3LXRo7yf2cPFb4YYpkS0GgwEymayaMz77jTkYPGgAHn5gKtzd3ITURVuj2ZTIFhb9HT4SQ1FfMs6ev0jNnR+Gkx814bYx8PT0EHu5aAu0mBLZkqvJw7Hjv2LPvoMI7xuG4UMiEBU5TJS6aM20GiUyw3ypLdt2YtO32/DCczMw7tZoUeKitdLqlMhM0rUUXIpLwORJE4TERWul1SqRPQ4ePob2FN1FDOwnJBaOnzwNpVKJYUMGCYmL5qJNjVvIFXLMX7CYR3XMhzLz89HjWLR0JVau/kxIXDQnbcoSMTKzcrD/4M+IOfErJo67DVeTr+FYzEnehcD4cNF8dOnciaddNA9tTonMsLG6t99ZxLsKrHlmxmOYNHGcyLloDtrcMHxBYREfo1vwwbIaCsRIuJIkUi6aizZlidgg77ff7UBpWZmQ1ITNJFi/Zplrmkoz0qZqesrvJ6Jz544iZx+tVoes7ByRc9EctCklUigUePP1lzB1yiRucRxx8tQ5kXLRHLQ5m+/j7Y0nHn0QC995C91CgoW0OhcvxYnUzUdZoQ4mU/N6KG3WcehCzdq7c96wq0i/nj5XFfLfTGQm5ePqCQ3OHknkzXpz0aa9TzZ9ZNG7b+HxR+4XEgusL+lmIzUxEwadEbIiT2TGlqBS2zwPUpvtJ7KF9Rt9/uUmJIoQn/lMa1cshrv7zTNPqUhThpzEMpRotEICtAtRo/ugQJG7MbRpS2RNeJ8wvD/3TYwZHcXzzJyzuUo3E77+nugVFQDvAMuDU5iqQ25KicjdGH4zSmTmxedmYMK4sTx98VI8/7zZCB3qB/9QL5EDsi4XQZNSKnJNT6OaM9ZjzNaklZWX8869Du3b1zqHuqKigu/L8PLygpvacZhui/WxbLTe18eHpx2RkZmFPfsP4a472dImGZ+a6+xigaLiYuj11v6EVEVqlZqu25Ofyx7MmS8sKqKU/XJ7qFUqeHtbbnhDiD12HRWllQgZ6IvATu2FlH5HdjmSzmQDeiXPB4SrENwziKebkkYp0fwPP8FPx06IHJk1qtwxtwzDM48+gOBONTsF123aig3ffs/TkYMHYsEbr/C0M8z8+1wkJqfwdJC/P/63YiFP18b3e3/C0rUbRA7Y9ukyeHl6ipxjZr39Pi7EJ4pcdaKGRmDa1DsR0a+PkFhISc/A07P/KXJ2YDVto19jIodi7uw/i1zD2Ln2AvlD9IDRucc8GoLgEMsAdFFOBZIoYjMz8I7OUKiatgFq0NlOX4jF7HkLJQWyUkGjyYRDMb/ib+8tRkLSNSG14OHuLiXomBNnL+BcrHP9OSlp6VUKxPBv75xFiY1PqHZ91gpfG8w6VMGOtzpHzOlzeGXuv/Dv1euQk2eZjsJQKhXV97c51p6BYh2ojSUssj2CQ335Q3xqexaS47NECflJge7w72axdCmxuSLVdNRbiVhH1jsfrcaZWMnfYJbn+ScewfT77kJo1y5clpmjgY89E22uRPH59uKVKC+vkDK1sG3vQZGScNSc2HL6Il0j21XcyANHfpESdWI5/8SxI/HYfZPx6L2TcdvIEbwpZefbsf8w5tH1W8OUL/qWobxOxkTSRp8sbx7HY9c9esQQXjaWykaPGIY+PUJ5WWPoPTgYY6b1xeAJXVBWpEPM1hQkx2WKUqBTX294dZBch6L0SpTkWaK3pqDezdmZi3GYPX8RT48aORzvvPwCTzPKysqwc+9+pGZp8PKzTwmpha++34XVX24WOYnp907B09Nq9vOYibucgFlzF0Fv1XnYv3cvLJv/psjZ5+AvJzFv6ccI6dwR4yhiW//NNviSYm9Z+5HYwzGvv/NvnCJry1jy1l8R0b8vTzO27NyD5Z9v5Gn25G9cuYgso8UPsYX5jXc//Wfy6bRQqZTYvm6FpIhNwOXYJFJMUqJ+PYSE7s8vCYg/WABPXzUip3ZGp2CLDxR7IBOV5Qb4dnRDj+EBQtp46m2JEpItzdSoQQNESsKT/I0Hpt5lV4Ec8c2uvdxptkdJaSlmv7ukmgI5Q3FJKT5Y9Rm3GAPD++Cph+6Bim5cEcm/3vGj2Ms5WBNtzX133oEREdLvZmUHjtbeRErTVegcwrgZzNNXTEYoNF9L6QYSt68AxzdlIiM5X0iAISN7Y9DYYG6RDn2ZgjxNgSgB/EJU3CKFDOogJE1DvZVIqbA8Rcw/YKsz6gsz7zOnP8zrtpye0H0/229mmLxCK5neKeNv5Z/OsPG7HRTJSYoZJeZcDyTrxfh4/Vc4ee4iT9dKLfbZ2jLZKplDxG5s94KkzXC/NBHqjEUwpK6RChrA7U/2xuBxITj038vY8flxFBVK/UH9R3dBp17e3PVIvVDMZYwuYf4IGxkIpbpBrrBD6n22bl0snv+Rk2coAqrurzgDezrvHDcGCuaIEvuPHueftuw4IA1dMCsyXDz9zhCXICIrevq7BPnzZGiI5K8xTpxxYpTf4hbV4MeDR0QKiB4xVKTqgM5n1rcupi2QGdmcKBm8i9ZCkfmpVFBPfNt5Y+CtXdG+kxfykwzIvmLpC+oX1ZV/+viJYOYGUm8lGkxPYYiVIi1f91/c/+wsvDpnAdZv3spnHjpDebkWLz1J1ohgTvqcJSug01kGDXf/dKQqIhs1bJDdWYz2YE1fYup1nu4Y6M9fKMEYP2YU/2RciL8iUnVjHT2x9zP9a+V/kJYhRT/hPUMR3Mn5fpdKkwcUhdthKrsqJIRJBrVmFfRpa4WgbjJTC3Dgu0uopOthRE3tidCB/jizNwVXEyR3IyjEB/fMiiB50zZd9qh/c0ZWYbLoETZTWFyCs3EJ+Pyb7/HAzFeomTsvShzDHMK7Jk0kZ9eb5w/HnELCFUvl/nTkWFUTEDVsSK2WwZr4K0nkS0kzH0cOHVzlxA7o0wt+vlIHZXKapGTO8MO+g1hHD8enG7/FzL/PwY+HjooSYMLY0SJVB+J3qBUmtMtbLmWsIUXyKVwDRcY6IagdmUyFs4eyELNbesjaBXhizIN9IFfIUF5qibzYuGFTdCHURYMax4fumoRV7/0Dzz32IAI7iMhEVBRjET2t6ZnZIlc7L/9xupSg4385K0VEWTkaxF6hJ4oU5/H7pmB8dFS189fGlp17RYr8oL5hIiVxx63STWd+1nvLnfBF6Dv3HDqGDV9/jy+3/oCU9EyolSpq0jtjNgUP9/zOyQUB9Du0lTJM6p8Gldzio1SDWaS8j2FI/0IIHBPYUY8pT/dF7K+Z+GW3ZU757TPCMGBIzU7QG02DlIj1d4T17IlHpt6JDR8twNpFc+lmT0aQv2Q684uL8dW2HTxtFyuFuG1UJLqxKa9U0Zu+34VLlxPx/BvzUFJWhp4hwfjDI/dX7/yrheRrKfiJQnszBp0WZ89fqNr8rPqumNOenJIqcg6gaxo2KBxjIwejZzepWfTwdMe9k8Zjwpioej3lBqMMf5qUAa22lmNIkbzzl8Fw3bEiqVLnwDN+GnoPCMId07uRFbK8/KKDf8u8tqdBSmQNc3p7kN/xh2kP4OVnnhBStj7MOUvEiL5FenED82feIytWVCJFGaMjnXRaBdv2Hao2q2/Bqs/x6rtLqrY11CRZE3e1Zq+6LY/fdzfmvPYS1iyci8CADigsKsZHn31Z1dnqLH07VaBzBy1vxh3Cy5giLYc89wcuskZefBKK/L0wFlGzLFOgR1gI+g1v+TV2jVYia/y8PausTN2VZWHSbdFVDup10QwyX+nO2618r9rOR5RVaHH0xBmRY10RCrsbtx7sGmk7H3dZ2tlJRg+1LNHeceAwd7SdwUAxwYgepTBV1lHdZv2nT7eseSi9vodn9XodSjP2QX3tbyjQjkXZwA+4vLVQbyXK1uRhyZr13G+xJa+Q2ntxs4MCnO8RDSEfY/3S9+FvNQNgxsP3olOQ1TnMFeyArbv2ISdf6nRjA6Q7v1iFnRs+qbmt/xjdWbhP17mLIsD0TMs4UzXsfN9LzzxZdY0/UyDwn43f8HRd6PRyRIcXUVNWj+qmpi0g/5/Qx78HHPg9ggrehKF8INwj34fSt3W9XLXeSrSUFGj73oN47C9/xbqvvuFTH1hoznyOtVbNxfAGvFhhcHhvkWLp6k5xXey2mg4bHtaDD0mwTk3bjVmisbcMF3sCew87GE9zYPmih4sXmlL5/qMxTne2tvNm+9VhTm1hPpJuGyo0MuTH+yC3x2uioHVRLyXK0WhQXEr+iqiLDVt24MGZr/KxIeZzmEPnPj1DcfvISJ62iwOr8pc/TMebf34W/1k0D927hQhp3bBR/rTrZFHEecOEE+yI/r17ihRwztHKEAfXOIMc/ehISQnzCorwx9ffQlJqGs/XhpLC+4Ygk5nQcWgxTMF9yIl2vk6ak3opUaC/P5bN/ydemzkDEeF9uI/Buv3NY1tdKcqa88oLWD7/HzxvS2Wl8CFICe0NF/j6eFPUM5Kam5orOKwd5nKbsbaYsxckxaZtQnQUOtuZy2QN6zDtJd63fT4uEWkZlhFvhsFIv0c8KLarRtrRNc6b/QKGiqEP1vG4kIKB2qis1ENTzCLMhiiSDEbypfw8TkGR+5WQtS4aNSktKzubQvIEbtI7d+yIvr3Dah2hLqaoS5r5B75/fUJkNqsxP7+AK5NarUZQoMVfyiNfiE8poRsf3LmzkNYNm5XJesLZwLH1jMycXA1votl3BQb4w83OS0lZX1MuWWYZu8l0jpCu9tfAMdgL5P3LP0WHim2kR0I7GwIdek0+C0H9HhWC1sFvZrVHa0eetwNu1+dSqhFKRJj0MpQFzIO86x1C0vLU27F20TCMvmNhktubmuv8M2wyyGDSuMEj8d8wXt8npC2PS4maC6UPjB4iKmR6wwyS3AS5ygSFWiiStZGyNVjkYCNfLfW/GSvgGTcfRXnOjwHeSFxK1IxovJ7gymAykh+Vpway3ZFz3hu5sZ7QV5B2WBulqjQlKLIzlSp5U2aN/8UXYczYL3ItR4v6RIqEFZAZzRGbEkavbijrMAHuHtIYF3Nsc9Li0BFxUBSeh0yupn1CkakchoAuffgYHkNWnAjF9e08TTkYPSkU9umJSp9BUJYnQ5FODq0dX8Tk0QWGbtJ0FBaFqZPWQGaogL7744Cb1arR0mQo07bA4B8FU4CTI/cOUGYsod+9BdDLkaIxoFAjR/cgFQwyA/z7lrEJj4S4VqZwFJmZCknhKknGxDV/BkoGLoYqqOXe+d2ilkiRsQuKzD0U6mRDVngO6vjF8NTsFqV0cUWx6JbwJ7glfAhZSRI5pyehurIKIfEzSTG+E3tRvVZcp/xWyMpSKf5PgyphOdSnXoaq6BzdrFJ+nCzvFOTZB6Gk/eQ5h0h2iiufmaLcVKhSNvLzKK7vElIJuTaXjvuOrqfxiyH1nV8hRfGEv58cq7eXYskPBcgrMcKkVaAkw40eFLGjkhSoQgFTDsnIF+J3yo4CMZH3xb/Rb0+XBC1AizdnJo9g6Ae/h8rI1ajsMpVusGXWoCJtK0XEShSGPIfKkZ9BG70ZRX3eIpkC2mSrWQLCluZ1fx36IYskS0LISlNg8ouAbtSXqBy1Hobu0rQTfa9nSbYe+gGWyf4BshTyWYKhUfRDSW79xtTqRYWGrK8OOgPg6SaDrwepAesDI/+oooCssY4sD1MejRom8oEghvocwctMlVDHzEBlrmXssDlpeZ9Ist8ck09fyMulJ0pG1kmZtYdu+HNw6/0YlzGvUt11PPShj8NbRzdaW33dl9EgNY0mas6kynUwJGHVcWlGVnAahsAxSPWYDD/dJSFteuTZB+ivEcVFRsx9wgfvTPPnysSuSK+TwZDlTmZRRb+NtEfcHTsGqDrsYFIkj+ydUr6ZaXklgh4FOSnQZCRSE3McOk8xCb6MrAhVnyGo5sQvQ8eJvOJ488UQtexVEQdZ7i9A2k6YFB4od7eMxTF4XUvJash0uWQBf4YxIBqh/aJJ98rp+6sPZdg7riHINWKsjq6Zje6zTSGXfoCc7oaBFNz2u+r8boUaBr9hqAwVE/yamRZXIhk5rR3PP4kul54h65MBWfhfRAHrzabqI0fXFhmFuNyn5vsQopY9srZDHfcvyN07QHfbTqgDI6QCAT9EbGaMBj1Ux58nITUjqnbwkhfD0Ol35HtVn/lofUxDybx2Acp8adIcOx+bNm49/MN+k5aiNKFTVdj77iqZwhPlg5dCP2wxZF4tM7bW4kpk8uqFvOGbUXDLVmiHfwKTuzScofUgiyRTQZmwjEdpZlhaeZlk5CtVelYf6c/v9Q/oIt6FInsf5EnrhdQCO4t5M5OXeZVbIllFFtxiniLf4ilyordAnnsEpSWWRQfWxzQUXRpryqypeVYdRWG2ra05a61MRrp1xqDbkTNwDeTt+wtpy9DyzRk9fl7tAuHh7cenaphRu3tC3/U+KKiJU11eSrVG/o6+jIfaLNwvcR8Apbr6chiDXguTb38UqcMpXP8U2lxpzrYZdhNsn+ogubTywxDyMHQjv+BbyYCF9H166Kycd+k4up3sOmgzUXm9IM3oZTpYpRDSp+3V0KkpEtMZvXi5udT8yWQmNVnZjpOlYGHgHPj6Ox6zay5aVImY32JSOF4XVRL8FCr7vg5ZeQbUB6dAffgeyDN/RGX469AN+D+xF0FWyaRkq0ak6naLmA2jdy/IyWIZ9KIfijDJVdJ+Vc2gCYqM3TC2i6CIbjo55F35pgwaAWOH4ehY+C35qyV088g60HEsWlT//CDUR2g794Z0DieR0fcoyOJxSBtqqo8Ee46ylKNRNHIbsiK+QHr4GqT1XY3MAetQGPUdRajfwDTgr9R2Oz/QfKNpOwOwFTnU/rsBKl8hcAKK/JjPIZcLpbGFykwmA7lDtayNZxantnInUZ5/G8oc2xdTAJpc8sVsRvZlHcLhOXGFyLV+Wr45cxb3wPopEIOcZYcKxKC7WKsCMZpAgXTaMig0MTzNmyT6U9uTaypMglFbKHKtn7ajRG2YstwkHlFaK45ke5glFEplvZFvV/Fr3W8vaS245hM1McwHU1GzJTOxlaiimSq4AFXmDq5E1g0Xa86Ki9m0Nqmz0RoW/rsPe5HcPWldmdRnNp7yre9tuC4lamLk1zZBfWVldaWw1R4zJJfLHRcaha9kLi1AfyjHLoVS5fy7LpsDV3PWxLBB3RpPpT0dIZglYopipAPYxpoyS5rsE32aYWX6nHiUFVveRdRacClRU8MceTlZCtpMdWxGqzTb3zrP0kaFyNOntpKaMYWKFM+BRrYgrubMRaNxWSIXjcalRC4ajUuJXDQalxK5aDQuJXLRaFxK5KLRyEaPm1wV4kePugUvv/isyAEffPgxYk6c4mm21nzxgjk8zTh8NAYfrbS88fSh++/Gw/dP5enS0jLMmDmLpxnWZYzPNmzEjt2WFZybv7DMIqytjPHQdMv1TZ40AU8/MU3kqpcx1q36kP9XIMamb7dhs/jnNIyXXngGY8X/RmO8+vc5SE2T5ndHRQ7Da7P+xNMM67K66mH2S89jpHh1zbXUNLz2Bls6LVGf+s3OycWLr1imm9yo+l2x5P1q7zWof/164v8BljrvlRFzjhsAAAAASUVORK5CYII=;" parent="1" vertex="1">
          <mxGeometry x="567.5" y="69.5" width="145" height="71" as="geometry" />
        </mxCell>
        <mxCell id="2x6z2sCF0aa3ZfLK6q7P-33" value="" style="edgeStyle=orthogonalEdgeStyle;rounded=0;orthogonalLoop=1;jettySize=auto;html=1;exitX=0.5;exitY=1;exitDx=0;exitDy=0;" parent="1" source="2x6z2sCF0aa3ZfLK6q7P-26" target="2x6z2sCF0aa3ZfLK6q7P-32" edge="1">
          <mxGeometry relative="1" as="geometry">
            <mxPoint x="320" y="415" as="sourcePoint" />
          </mxGeometry>
        </mxCell>
        <mxCell id="2x6z2sCF0aa3ZfLK6q7P-35" value="" style="edgeStyle=orthogonalEdgeStyle;rounded=0;orthogonalLoop=1;jettySize=auto;html=1;" parent="1" source="2x6z2sCF0aa3ZfLK6q7P-32" target="2x6z2sCF0aa3ZfLK6q7P-34" edge="1">
          <mxGeometry relative="1" as="geometry" />
        </mxCell>
        <mxCell id="2x6z2sCF0aa3ZfLK6q7P-32" value="stock-pa" style="shape=image;verticalLabelPosition=bottom;verticalAlign=top;imageAspect=0;image=data:image/png,iVBORw0KGgoAAAANSUhEUgAAAO4AAACECAYAAACXgRceAAAAAXNSR0IArs4c6QAAAIRlWElmTU0AKgAAAAgABQESAAMAAAABAAEAAAEaAAUAAAABAAAASgEbAAUAAAABAAAAUgEoAAMAAAABAAIAAIdpAAQAAAABAAAAWgAAAAAAAAFKAAAAAQAAAUoAAAABAAOgAQADAAAAAQABAACgAgAEAAAAAQAAAO6gAwAEAAAAAQAAAIQAAAAAyiTvzQAAAAlwSFlzAAAywAAAMsABKGRa2wAAIsdJREFUeAHtXQmYFNW1vt2zMQsDw7CDIKKoILiigs8nuKDGxKgRoxLZkhDFaGJc8mL8BKKJMcnTxJcYg4qCMYkao1mMu2A0IriACIggEllkZ4bZt+5+/189t6em5nZVdU91T0/1Pd8307XcuvfWqfrrnHvuOecKoUlzQHOg23Eg0O163M07PGfOnLyWlpZ+gUCg4eGHH67A7US6wy1dddVVxQWBgpGhSKgskhPhe7Ortrb206eeeqqpO/Tfb30M+u2GMv1+GhoaSkVYXB5piVwxffr0I+bOnVuS4X0OXHnllWU5OTlnhgKhB0RQvIJPzVJ8eG4pLy/vneF99233cn17Zxl6Y/n5+bnhlvDYsAhPDwaCO+tr61fNnjn7XwDES7m5uesXLlzYnCldnz179mAREl9EX78CsJ4cEREN1Ax5OBq4XfcgqO0MARiGRCKRCwCQBU3hprUAyxPhcPglAHxrRUVFPVRRAjkt6vTUqVNz+vXrV1hXVzcCEvWr6Mc0tD0Mf1ozAxMyiTRw0/w0ANJmwGB3IBRoAWgl/zlmLAQ8x4dD4fHYrm1uav6kuLh41cyZM98PhoPvNoYa1z3++ONVXnd3/vz5wa1btw5Ev8YHIoEJdbV1E9DGOOzHla4BEWhB2T3Nzc0tXvdH1+eOA9o45Y5PXpYKTJs2rSckKgFyUyQcOQO/BLDyWRAkONeAv12Qgi/miJzFJbUla+958p4G7CcliQnWPXv2FNXX15+M+r8ByToJ9ZfhLx9/SukKIEeCwWAjevkyPjr3osfvLlq0qAblk+oDrtPUCQ4oX5ZO1KcvTYADN9xwQyHU4ZOAiSsAoMm4dCT+8uyqMIAcEGsgrf8OIL0Cqbfqscceq7W7pvVcYO7UucX1JfUnQlpOQZsXAoSjiUeHa6vxgViPdl+NBCJP79q1a93zzz/f6HCNPp1iDmjgppjBbqrH2DIfavFgAJGAuhpS+HgX11HSVQSCgQ8ArDuGDRv2BiSpUnXF8Vyow6dDsi6AfDwG11ENtn32qPMgyv4dYF0C7WDVxo0bK5ctW6as30VfdRGPOWD78DxuS1fnggNQo0sBlPMB4KsAnBMh6fqaxsLxaggDaI8BissBznbgwvG8oAhODEfCX8PFds87hLYqANSNKP9cbiT3iYWLF26O16A+3rUcsHuQXduzLG+dAC4IFowKB8JnAW5TwY6x+OMY1GuqR/2rUOmz+HsDwN+0ZMmSA9jWY1evOe1hfRq4HjIzRVUFoErn9ezZ82SAajrGp5MhgftDOha5kMTWLhGM9HSqgSTejuv/BseKJ6uqqj7CtFPIWljvZy4HNHAz99koe3b11Vf3h/fVaAD4aIDvaIBvFGTjMEjNQVCvS3EsZmzCPoFK49IWlKPauwGH1uZF8tY1Rho3uzRqKfuhD3YtBzRw08R/SM1CSM3TIDVnQVo2BHOC927evHlDZww+dJgYOHBgbmVlZW5eXl4wWB8saspr6gUjVxH+Io2Njftxe1UwfLXAet0yZsyYFhiqwgnecgD+1bktDS0nYaJoDryoDsGH4DPU8SZ+X4S3195M8vZK8N66bXEN3NQ/ugCcKIYDrPMh7WggymltshK/L8Aq/DTU1bcffPDBHQBCxowr+VEA4A8JRoKnRYKRr8DSPRn9tTplVEHS/xPHF8GgtkwDuPXJpuFHAzfFTAYASkqKS14EaOlwYeU3gdqAo58BtP8AgBc99NBDH6W4S7bV0zkDU0dj0d9vAKzno/Bg/PXAn7Xv5noOQoO4o7q6+pd6rGxmS+q27R5G6lrNoppnzZr1cwDgJpe3XAsArwBEngmGgisbw43bioqK9qVSkuHDkl9YWNgPH43hkVDkVLR/MdqnUwjB6ppwXRhaxdcXPbroUdcX6YJJc0ADN2nWOV84Y8aMkXihP4TxqNC5dLsStPBSld4BMGwI5ARWAkjLWRfcDKvblUxi57rrriutqak5HgauCRiz0kd5FIxXQ1BVL/zFjFtJVF3R3NI8Dj7V25O4Vl+SAAekk3sCl+iibjmQF8y7HIHnhQCF20tkOY6Dy/mHa8dBEl5GRRWSu3bWzFmf4PhqgI0fhE/DwfB2SMuKQFMgFMmPhOECGYGhKhAKhQI4novfvgD8UMQAH4brOBd8XHVV9Sj85st+yV8c6xShnTKMdWejkh91qiJ9sSMHNHAdWZR8AYD2HEjK5CswXxmtphj1HYvDxxpgo76E46GWUBPkZLNoEc2I8Q0hwigHwM7F8QKUyPOsD+b+KLbZDryupuCUBq6CP14e0sD1kpsd66KESwfRo4p/BqULqLI98y++GhPN+3o7NRwIpqZaXSs5AAD1yTZOQF3WdpM0PHQN3DQwWTehOeA1BzRwveaork9zIA0c0MBNA5N1E5oDXnNAA9drjur6NAfSwAEN3DQwWTehOeA1BzRwveaork9zIA0c0MBNA5N1E5oDXnNAA9drjur6NAfSwAEN3DQwWTehOeA1B7Lb5fGRLZO8Zqi5vl0fLDbvZs92ivkaY+SsEcti21m2kV3uaXyhgmISIm3OgHP+pCx71n6+3QWIflomsgjI2QFcAjZHzNNg9TN2Y/e2QMwYMT+259MN/wN3yZalGrA+fXvj35bvwetf4GopG/+1zpYzYTHZr+qzP4EbHcsuzZb3U9+nLQd8KX39OR0UFBq0tu9yVp2cJ/gh9xn5D7gc02rSHDBzwIcfcn+pyou3zMfzmmd+Zn7c5kPLCwZET6zDV5IXEEU5AYFd/AZFPtLMVTQhd2MEiwThX3VzRFQ1h0VjCAeymQKYLpo+YrJfWOA34Pr67SzODYghRbmiX4+gOAS/R/bKEyN75hrHgF8xtDhX9MkPitUVTaIZoCWAPz7YLD7C37bakNjXGBI760PiII77mlHx0OkjY5V/PKei0jbeI+uWx/lVLYA0/e8BPcRXDy3GbwGAmSMI4Hwcj/fVPQPlzUSQEsh1LRGANyze398onvhPrVi2q8EAd9aAmHP5ApLXBxTv2Xe/W1uMBel8QvnQe88c2ENcMLRIfGV4kRhUKJcb8vYGP4f0fWFHvfjbtjrx1t5Gsbch5G0DmVjbjBG+eOd9cROG1dAHBohCSNHJAOx9J5eLYcU5xjjW+u5TctZjvMq/XQAe1eCNVUipjDX4qArXYEw7oiTXkMj9CoJibFm+GI59joN74I8S3PzQ+bVrQZ2fVLeIBzZWiz9uqRX7UQ8O+ZN8oi6bn6G7B5WJpnX6H3dzo9TcI3uK2Yf3FCeWx9Ijx54HMfTOvkbx0uf14r0DTWIjwLqjdawaK2SzQdV6IKT2iJI8cUKffHHWoB7ilH4FoheMW2ai/epjfAQe21wjfv9pjdhe50MJTCNVSCww33eXbyfhY+0OuNoLKSXPlpbgo2Fguv+UcmMca24Ew1EYlFrE81Bl71l/UGyGRPSShsK4Ne2wYmPsfDgMXLRQm+ltqM53rT0oXsbHgtJdU4o5wA9KRLzu1s/aHrgasCl7WrlA7b0nlYkrR5SIPlBpzUT193vvHhArAZ4DsACnivjwSwDY4yGFrx7VU1w8rMhQp2V7nEb682d14hfrDhoquTyuf1POAUdvr/jAzZI50ZQ/AkUDoyFl/w/j2EkYz1LqSvqwskn8ZM1B8SdYfNNNGPoKWqOvP7rUGGeXmiTwcnxAfvRBpXgNVmjODWtKCwdswWt6bUyd0aA1McPbzUuHF4t7x/fB3GtOzEhEg9NtqyvF/RuqRA115C4kGrAoeb9/TC8xDoYt+YLsgcV5Hvr4OIxX1ZDEmtLAARunkY7zDBq0KXsiVEcJ2gEwFElAUJpdsmyPoZKmUCt2fU/8bqytbDYMYQTxkaV5hiW6OBcWwIHRZX7XQ5Wv7eIPjOsb6t4FDxUXfzcgnv3VMuttyPen7biP5kPbbqprtzgve+PoUnEzpFgZPJtIlLIPbaoRN793IGNBUIB+XwNr9w3o+yHwyuLLQjsVjWW/+qhK7PCj1dl4Ohn2TzGF1V7iRqXtpAzrdrfvzrxje4vvjW4DbSNAe+2KA+JuWG0bMthiy66thJcVjWV0r6S7Jcfkp/brYcwxr8WYvArzxppSzIGgOFQ886vF5lbamzO7+Vyo+cYyYZsGn28fVSq+BRW5d6ukpf/w9Df3icWYK+0Ohh7aouhddct7FeLNPY2GxOV9XYf74rxzX4tFPBP47rs+MD+axX+iDbiWE767+S64oWmHlYibx5QiKCCq2NDwdNnre8VfttYaqnK8Lh0GT6ejIOHSRcOgBnM+GX4acYl+zdeu2G/4N1PGUvL+YGwvzAWXxD5KcS/WJzznQBtwo95HnjeQrRVybpTjWjk2pCV2zvJ94o09DYZ7ooovBM43jugp1l80RDwysW+7qSJVeS+O0atqxsgS8eqUgeLuE/sY7pHx6l2DqKN5H1QIGtQoiWm8Ing5rcXxsKYUciAaIBFroA24sUN6o7McKIf6eNcJZYYU4+tMA+zNUDXpzB8vLpYAWnbuILFwQrkBglPhkkg1O9V05qBCOIEUG4EM38Uc7sMT+orTMZ8bD4b/hrp855pKwTln0gBoEz8EeMeW5cW9JtX3kI31m4E7LxsZ4PU9U/DcOra3OKVvQSxI4NeYn33qs9q41mPG1L5x3iBxWv+Cdi//fBi1DoXanCo6vGeeuAzRR1ItZ9/px3wfpqy+iMikeEKUY176M3/ealU+qbxAzME4nvHAmlLEAUsecDNwU9RidlU7BRLsgqGFsXEfJRSBW4E4WBXRT3gp1FSq1lbi1BH9mFNBVHPZz6lwCLHScejLL+COSWcR1biXY9xff1wtXjT5MU/HWHcitATWqyn1HNDA9ZDHdBNklA+NSyRakG9fXSG2IvsEX3YrDYX31HNnDbCVVGdDAl4FUHhNEwCymRjbMsxPRaPgeHHHcb0Nyas6T5X/p5jOehfTRbw31nMTDHFH4DpNqeeABq6HPJ4+slicALWR+aBIv4VUokGHzhZW4jTK05P6C6qrauhEr2BdPz6+t+jfapm21pPMPq3IlyOjBiWrHRG8ND4xRlhFjAP+E1wgtyOKiUSV+RK4S+opIhW3vD2mgesRPwmsiw6JGnlY5TuQRH/YUoOg9I4qMoH66Gn9EHtbEHccae7WYDg+3HNSH/OhpLf5IaAU5zSOGzoZY3UayY7prQY556NX7GuKzUlTOxgGjcPuY+SmXV3GngMauPb8cX32Uhh5juwV9SyigL0f0vY/NS1KFZlTPpRicbTUDm2y3EWQZByTdpbGI1Cf7dOK7Za+fEgRxrtFHcIPeT19lh/dXC0+bY0XpqHtC0OKRJl2zHDL3qTKaeAmxbb2F3Fsy/xQgwqjY1tK25XIWKFyxOcY8LZxvURhAsBha0Uo/3PMs1oD3tv3xH6PuasugcGJ49tEiB8OWo0nY5pIZWmmlZljXRlw/zUE6NM90v2nIZHe6LLkgAauB+8Bp1AoaaQEXfRJjdgKaauiBZjiMUcHqcqojhEEzCVFg1EyxPBaxtvOPtydimxtg6CfDmPWmF4dVWb6ND+NgHs51uXY+JS++cbHxlqP3veGAxq4HvDx3MGFgqlgSAx5o7RVxdUyzSrHl8l6GXGqhWNIeiolSmMxRv0mpKaMTkr0epbnfY4HIKXxzVwH82Ex4RydTfiROR/qcp+C9jEs5vJ6u3Mc0MDtHP8EpQsNN3LM+M/t9Ub2RVW112KqqLQ12EB13s2xXrj+ruPLEpJmtPJ+CePUeNZhN+2yDKd8GGTPGF0r1UHsLoU/877WFK9TAHImC1Cp1tZr9X7iHNDATZxn7a7geHEQXlASQ/Re342XV2FJpicVXQmTlbayUarjx/TOEzchTNANcSg9sX8PcQ2kLSVhZ+lsOJgwEyVjjK1Eh4zdrcAtQcO8Zwbga/KeA5qrneTpsUjvIuctOWf7GeY0mafYSlMxb9oZw5K5vmIMWGdhrOo0D8trRiHq5+soy3G1F0R1nR5S8mNlrpPxuZ9UtQjGG5P+Cx+MUq6NoslzDmjgdoKlVFsZYC4B+c7+JnEAycStRDWahiEmJbcjWmX/BYntRKxlMKT8nceVCSZRj0ccz16AsSb9jp2IUNsCgxqnsJzoDIyxhyv8kolXfry40BiJkrlES1wndiZ1XgM3KbZFLzoKYz2uFiChswbJyisViaMmIGMErbIK7bJd6w9vqhYXL90Tc2Zod9KyQ1WVEUSck1UR26L/83VH9XRsl9cTcLe+X2GsZEADkx1xjMvABNVHg9NCkgcMkOAqCrRoa/KWA5qlneAnpY40NtEveVN1s7GwlrXK07FYF8d8dkRpuwApUJlH+Ztv7bcrGjvHfMzMrsEgeCtx6ohzr4wHdqKDiBV+Cilh/4wIpn9iTnb5XmepfxyGCDJBgLl+WtVlFkjeMYMoVONh8zV6O3EOaOAmzrPYFYdgfR+pJnMdH04BqYTVaMx9OkXNEDTSqLUEy388B+u0ExEYBCj9ic1GL/bpHBiRVJE/1jrZX66W8Af4HFPSrj7QKN6Dyu9EnLeW6XjMZXci1I8fMXyHDOI0mQaumUPebGvgdoKP9A7q2SpJt9e1wFOqo18yx7d8ybksph0txIJbZpr11r6Yymk+bt2mR9WZSJt6OYLhSWxlDKzONyJSx0k1Z/kPoSJzoS+Ob0n8+KyGyr+1NXDAOKj4NxLBESrg0jDFj5jMp8XpsngRSIpq9SGXHNDAdckoVTGqqlKSbkfoHteftRJfcLpE2sGWqiod9c3EJS+vX3nAfCjuNsfPTKPKcEKqxnMw7mXUkRNRpWVWDkpcMzGr4yZYh+2I2gat6aqPAz2oZKaP4SU5WuLaMTLJcxq4STKOgOVqd1wDiEQpU68ALi3PDsJWrKtoVob+MbroL1vrHHvILnCce+u43sa6ulzMyw29urNB0D3TGnZI7YEr19sR1V+Occ0quizPNYckK3ICdp8seYX+TZQDGriJcqy1PF9HvpNOryWtzioXQXOzK+AiqSKOE7+zcr/Y7QAiXkupTuf+n51Y5krCUapyORGpIpvb34P2dtWrI5vM5fjBUOGSY1z5MaBU1jNCZq55s62BmyQfORViNro0YGwXinRUlVlG9XKbm7UbT3LV+OvfcacyU/qpLL3mtrjNqKXntteJZ5AmVkWUlnRhVDmSmMuzLdWUEC3krT4YxkfL6eNmrlNvu+OABq47PnUoRRWZEkdSlSFl5F7bb1+83E7OQzIcru2qti0CgONQBqx7RXTL5Orz0vKrqpf3Q/BqykwOaOAm+Vw4jjMvH8IMGNJQZa6Sai6K2tJBgMSOaOi5bVWFsdC1XTk35zYh3czjmG7yYqHsEL4qCiWj3fBBY9/NU0m8jAZu4jxL6ApOi9jDErmJHfyIKfdo/OJi150hqsgvIBDgScTOOhE1CifDEp1FOESwEnMtwyZnEK3jilky6yV6P0EOaOAmyDBZnNKW0ylyHFgCfVhlhNkP32VZRl5r/XUTI8txJ6dtHk1SZSa86BH1mw3Vjv3hCIBztE6+1eSBSqLSGBdsHdiz3x2hbeWA3k+UAxq4iXLMVJ6J4BpaxSkTuhUpkEsppxBKplqEOMEh26IszHliukWqLMGyTLzfzXDHXLK5VnwMVdmJaKHmagzmMbz1GlqNo+P6jrBk5BAuN2gHppakhdlah95PngMauMnzzpjrrGkdwDJHcrFiwpYpTDk9Ygfe45Ht0Q0RIlw9gCqzXX3WuqgZvLijASqy2opsLc/II6q7drQNDid00bT2gywgL6S3FMfSMszPrj59LjEOaOAmxq92pbfBQ0g61NMnt1hhPqbEpZSze3n5oo+Fm6Ib4piZK+f9zuIiGe9aAut9uDA+sLEq5s0Ur6w8TmeOwxVZLuR5/n4CCc4PkpWi0jon5phCHjkZ56x16H1nDmjgOvMoboltkH4y9pQGJs5rqpwtPjrY5AgaJmJzS7RC37O+SjBw3YkY2L8E4+K1lc4qsqzraARFjIT7pB3xY6SKPba6eG6GD7R0f7SrT59LjAMauInxq13pjfA+ovGJxFgDZsPopZC6K/Y2KVO1miu7EkngMLR0RVSZt2HsePvqynZTUtaLKe1f3RmN/LGei7fPONuTEAAvVd145dbhQ6BK9s4YYLp5kug2ybG1DDiIV5c+njgH7D+rideXVVcwvxIlymkACKN0GKNKa6wMz5PM4Jq4n8OF0C6YfjAk9rdGlRoLhMnr7H4pxagy01h1JjJHqky37BsXHDPPN9vVyXNnIbsFs1HaEWNu+adyHGHWi96tH69VUNGlRmJXnz6XOAc0cBPnWbsrmDliH6TusNxcI1VLX6QkZZpSMxE4/9hWb2RH5BgwHjHn8u/hHCEzSMQrJ49zjMmFt/jnBY3Dh+e8IYXKFQvM9TO9zmetYYDm4/RLHo2xurSu0wdbGu/M5fR25zkQ/y3qfN1ZUcPbWJ2dzhEkhtQdC1WRc7pW+it8g508pBgmuGhiX+uladmnz/FFSOHKAHw7opGNS4fSh9pKlNSDsZoDp5GoHr8JgEvjnbWs3u8cBzRwO8c/I1cTDTVSHf0CJNbAHh0VGeaj+jdA7mSoYd7i7x/jLvVqJ7seu5xAuwxZKJkw3Wls+/LnDeID3IvKqeQc5FLu3yP6Si3HvTLxHEYRmlLAAQ3cTjKVnkOvY6wppS6lzjAEmVundPn+/gwqrXX8q2r+pyeUiW/GSQKnKt+ZY+wns0DeMLrUmH+1q4tjWkYUqZw4mEKHjiQylQ9T7+xXTBfZ1a/PueeABq57XsUt+RqAux1TQyQapy4ZVqx0YKCx5llE+qiMOtbKf3NKH6yLW2Y97Ok+Je2FUI/vxoeCFnEn4uJeHLeqrMRMncOMjiQa7TgO1mqyE0eTP6+BmzzvYlfSBfFlOO/ToZ50CZakZGpSlcvg/647KHYA5E4aJOeDb0USOC5+7QZUsc643BgIK/YtY3qJ+04uN1KtOl3GMS1zU22ANdlKXGrkPENNjnpbPYFynD+m84em1HBAA9cjvj6B9KaftlpaOe3DsSotzFYiyOevrnAtjbjC+xvnDfRU+jK4nxkgKdHpteVEHA78Fuv9voQ5YW5bieNj5riCADe8qZ6BViE/Ytayet8bDmjgesNHY9z3CnI4HWhdN+jrGKNyiRCVJxVTxjysyPUUryucXhmtyJ0cr7zTcaq6dP7f06ohOJX/C8a1T8PPWWUVZ0bJSzE0kEuS/An3xphfFcCd2tHn3XNAA9c9rxxLPoSVCNbDvZEqIkP1rj+q1FixTnXhD7BqwDvI7OhGnQwjWv1fcOLwkqiuq9ReaxtcMvR+SFvmqLISDVtMyH5MWVTacpzP/MxOieas9ej9xDmggZs4z+JewekPhs5RmpHOxdTQl2H8UTldcFrowqW7BQ1WCu2zXRuUXrRce0ns4wZIRjt6B6C9bVVl3LZ5b5z3lffH8Tv9p918jOza1eecOaCB68yjhEo8jpSqnK+l5Zj+yz+EgSneYtD09f3Sa7uNhbDtGuEU0mp4aHlJuxFI/DGkaLyPBqXxTzB99QrGtaoyXD/o+qNLjUXP2C+W4zKbbr2+vLyXbKxLA9fjp85g9zvWVIp1rZKHEUN3YbqFCcRpvLES1covvLLbWD3Aeo77lF70zvJaijG4nZZfht1Z6S20x8ySTFKnAi3XQbp1XC9j/VveEy3Ov1hXhbWTOtZlrVvve8MBDVxv+NiulvWInOGLLFXm8QiU//mJfeLmlmLupgnP7xS//KiqXT3cIXBe29V+pYEOhZI8wNUXGOgviV5Of0Y+qqvf3m9Mb6k+FjS23YhppPMx/cPkeDR0/fTDg8bHReVNJevWv95yQAPXW37GansS00OPfVobCzbntA6DCJgSRkV0mbwBUm7q63uM9XtkGcMwBWeGVBBDA6WBitM3P/mwUlzz9j5jPSFVe5yXnoulTri0JzUJflQe2lQj/grJzGVUNKWPA+q3KH3t+7YlvtR3Y4xIdZNxsSS+8PMBXukWaBy0/KPEO+7vO2LSl6o0Y19TQQQrA+z5kfnSa3vEnWviu2RSJb72yFJxo8k18lksj/Kbj6uU6nYq+qvrbONA27Br8Zbo29V2Tm95wAFOCz1yWl/Ds0g68DPtzA+RJ5lzvnZMHws3xAuHFoofQxVNFVH15UugcmOUbTLb47cxtfUdGKOYj4rEpOrMffW+iyU5ZT36t5McmDEihtfYhtDA7SRX41/OjBCPIFyPkUMSvLTCTntjn6MTBB+QHbjjt+rNGS4T+j+IVroG0laq+UwTezu8v5jLSjUO9qZlXUsHDpiAq1XlDtzx/gA9jqa/uVf8ESqpDP87G/OfS6cMdMw20ZWgpcRnfPBNMEYRtOzLM1CPb3rvgHgXklaD1vt3xW2NbcANiGVuL9LlEucAF4z+1vL9GBNWx/yUmS3i5XMGiO9CBVUtnpV4K95cQV/mS+HL/ChU/KnwQ6b1mMN0Lr59M0BLq7mmruVAG3Aj4vWu7Yr/W+c48ha8+NdgukXG7xIk947vI5aeO1AwEL2riZFID5xaLhZOKDfia6mq0z3y++g3x+VerDnU1ffYLdu3CNY24Ia1xE3HA6V6ySCD01/YacS2ynV1TulbIF46e4D4w+n9EGmT2yEQP5V94wIMDEO8HQtj/+OsAWLW4SWGrzWl7GqMY+eu2C/uwxyzKqtjKvul6zZxwCJYO+ZYMZXVm6njABPKnfPybvFVqKLMeCENP1cgIP2LsCS/ibxOP4PvLzM5porokslxLIFKv+MhSOrOwAESE+D9bmONeBDqMed79Xg2ypdM+d/6mFq7s2TLUlggJmVK57KlH4zfvQfqMoPRmUHDTHSQ4Fq2zCjBIAbV6gHm8k7btBIPR1K7U/sViCtGlIgzBhS0Cz2kIW0Z2mLCdbapKUM4YLIos0ftgfvIlkkiKJZmSFezqhuUdFw4jA4aM7GqARe7kw8HGqvhxFEBKfgBgg1o2WVUEYPyGczANWpZJmJarJar5bEOjqH5YWCSc46hJwKwXMu3BGliKXFJvJbWbk7z3AvAvrc/GiRhnNT/MoEDC8SMEfPNHZHvRtuxxVtYYF7bAb2Vbg6MQuQNs0pw3peSseNDivaIluqdSLTOpOPRBbQJQayqALDS8aMP/voBtPxVEbBqJABgLikGy69EfLBeWU/FqS491gG07I36ndAqc5c+Kflg6NV0RGmu4bU0BdKyHAAsNknKRDtJY1M9rGF7EdL3NmJtuTI91eE6IFiPYRPlZprKW1Rk2araOBUSCwQ92/R4V/Ip7b+UnZw+op8yp484l8oUqEdAGh8BqzNX0xvbG4tzYZveWNbFsekfXQXHf047McSQ9TASiEYxhvOp0tCk/SZ1g/YcCIvJ8QqoJa4srdVmyYmM/uX4mIEL/CVFJWvE1v84WlL/z0gOcM6WwnPWiGXx+mcPXF4VBS+35vGfJs0BzYEUccAFYGXLzsCVJfnbBmKOjs8wn+rSba3Sdyn7u13jFi+kLu0/HSuk85ONhLX2MTHgWq/OlH09jZUpT6I79ENppe0OHTf3UT1PYC7RHbYT+FJ1h9vRfUwhB6R0S2ET6ajaH8AlpzJJ/UnHk9NtJMcBn3zk/QNcWuE0aQ7Yc8A374g/xrjyYWnHEckJ/WvlADWy6SMmWw93133/SFw+AS11u+t7mPp+W8LiUt9galvwl8Qlr7SFObVvTPes3ReWZDPr/SVxeWdR44NvxjLmh6W3k+KA70BLLvhP4spnq901JSey+deXoOUD9S9weXcavORCtpJvQcsH6m/gyldWA1hywv+/Cfj7dmdmZAdw5RMigOljrX2bJUf88Sudbxwiavxxs9G7yC7gmp9cVApLLmROwIS5j3o7PgeSdM6PX6E+ozmgOaA5oDmgOaA5oDlg5cD/A+qplueDZ5IZAAAAAElFTkSuQmCC;" parent="1" vertex="1">
          <mxGeometry x="290" y="200" width="110" height="65" as="geometry" />
        </mxCell>
        <mxCell id="2x6z2sCF0aa3ZfLK6q7P-44" style="edgeStyle=orthogonalEdgeStyle;rounded=0;orthogonalLoop=1;jettySize=auto;html=1;entryX=1;entryY=0.5;entryDx=0;entryDy=0;" parent="1" source="2x6z2sCF0aa3ZfLK6q7P-34" target="2x6z2sCF0aa3ZfLK6q7P-36" edge="1">
          <mxGeometry relative="1" as="geometry" />
        </mxCell>
        <mxCell id="2x6z2sCF0aa3ZfLK6q7P-49" style="edgeStyle=orthogonalEdgeStyle;rounded=0;orthogonalLoop=1;jettySize=auto;html=1;entryX=0;entryY=0.5;entryDx=0;entryDy=0;" parent="1" source="2x6z2sCF0aa3ZfLK6q7P-34" target="2x6z2sCF0aa3ZfLK6q7P-48" edge="1">
          <mxGeometry relative="1" as="geometry" />
        </mxCell>
        <mxCell id="2x6z2sCF0aa3ZfLK6q7P-34" value="zalando-idc-ea" style="shape=image;verticalLabelPosition=bottom;verticalAlign=top;imageAspect=0;image=data:image/png,iVBORw0KGgoAAAANSUhEUgAAAO4AAACECAYAAACXgRceAAAAAXNSR0IArs4c6QAAAIRlWElmTU0AKgAAAAgABQESAAMAAAABAAEAAAEaAAUAAAABAAAASgEbAAUAAAABAAAAUgEoAAMAAAABAAIAAIdpAAQAAAABAAAAWgAAAAAAAAFKAAAAAQAAAUoAAAABAAOgAQADAAAAAQABAACgAgAEAAAAAQAAAO6gAwAEAAAAAQAAAIQAAAAAyiTvzQAAAAlwSFlzAAAywAAAMsABKGRa2wAAIsdJREFUeAHtXQmYFNW1vt2zMQsDw7CDIKKoILiigs8nuKDGxKgRoxLZkhDFaGJc8mL8BKKJMcnTxJcYg4qCMYkao1mMu2A0IriACIggEllkZ4bZt+5+/189t6em5nZVdU91T0/1Pd8307XcuvfWqfrrnHvuOecKoUlzQHOg23Eg0O163M07PGfOnLyWlpZ+gUCg4eGHH67A7US6wy1dddVVxQWBgpGhSKgskhPhe7Ortrb206eeeqqpO/Tfb30M+u2GMv1+GhoaSkVYXB5piVwxffr0I+bOnVuS4X0OXHnllWU5OTlnhgKhB0RQvIJPzVJ8eG4pLy/vneF99233cn17Zxl6Y/n5+bnhlvDYsAhPDwaCO+tr61fNnjn7XwDES7m5uesXLlzYnCldnz179mAREl9EX78CsJ4cEREN1Ax5OBq4XfcgqO0MARiGRCKRCwCQBU3hprUAyxPhcPglAHxrRUVFPVRRAjkt6vTUqVNz+vXrV1hXVzcCEvWr6Mc0tD0Mf1ozAxMyiTRw0/w0ANJmwGB3IBRoAWgl/zlmLAQ8x4dD4fHYrm1uav6kuLh41cyZM98PhoPvNoYa1z3++ONVXnd3/vz5wa1btw5Ev8YHIoEJdbV1E9DGOOzHla4BEWhB2T3Nzc0tXvdH1+eOA9o45Y5PXpYKTJs2rSckKgFyUyQcOQO/BLDyWRAkONeAv12Qgi/miJzFJbUla+958p4G7CcliQnWPXv2FNXX15+M+r8ByToJ9ZfhLx9/SukKIEeCwWAjevkyPjr3osfvLlq0qAblk+oDrtPUCQ4oX5ZO1KcvTYADN9xwQyHU4ZOAiSsAoMm4dCT+8uyqMIAcEGsgrf8OIL0Cqbfqscceq7W7pvVcYO7UucX1JfUnQlpOQZsXAoSjiUeHa6vxgViPdl+NBCJP79q1a93zzz/f6HCNPp1iDmjgppjBbqrH2DIfavFgAJGAuhpS+HgX11HSVQSCgQ8ArDuGDRv2BiSpUnXF8Vyow6dDsi6AfDwG11ENtn32qPMgyv4dYF0C7WDVxo0bK5ctW6as30VfdRGPOWD78DxuS1fnggNQo0sBlPMB4KsAnBMh6fqaxsLxaggDaI8BissBznbgwvG8oAhODEfCX8PFds87hLYqANSNKP9cbiT3iYWLF26O16A+3rUcsHuQXduzLG+dAC4IFowKB8JnAW5TwY6x+OMY1GuqR/2rUOmz+HsDwN+0ZMmSA9jWY1evOe1hfRq4HjIzRVUFoErn9ezZ82SAajrGp5MhgftDOha5kMTWLhGM9HSqgSTejuv/BseKJ6uqqj7CtFPIWljvZy4HNHAz99koe3b11Vf3h/fVaAD4aIDvaIBvFGTjMEjNQVCvS3EsZmzCPoFK49IWlKPauwGH1uZF8tY1Rho3uzRqKfuhD3YtBzRw08R/SM1CSM3TIDVnQVo2BHOC927evHlDZww+dJgYOHBgbmVlZW5eXl4wWB8saspr6gUjVxH+Io2Njftxe1UwfLXAet0yZsyYFhiqwgnecgD+1bktDS0nYaJoDryoDsGH4DPU8SZ+X4S3195M8vZK8N66bXEN3NQ/ugCcKIYDrPMh7WggymltshK/L8Aq/DTU1bcffPDBHQBCxowr+VEA4A8JRoKnRYKRr8DSPRn9tTplVEHS/xPHF8GgtkwDuPXJpuFHAzfFTAYASkqKS14EaOlwYeU3gdqAo58BtP8AgBc99NBDH6W4S7bV0zkDU0dj0d9vAKzno/Bg/PXAn7Xv5noOQoO4o7q6+pd6rGxmS+q27R5G6lrNoppnzZr1cwDgJpe3XAsArwBEngmGgisbw43bioqK9qVSkuHDkl9YWNgPH43hkVDkVLR/MdqnUwjB6ppwXRhaxdcXPbroUdcX6YJJc0ADN2nWOV84Y8aMkXihP4TxqNC5dLsStPBSld4BMGwI5ARWAkjLWRfcDKvblUxi57rrriutqak5HgauCRiz0kd5FIxXQ1BVL/zFjFtJVF3R3NI8Dj7V25O4Vl+SAAekk3sCl+iibjmQF8y7HIHnhQCF20tkOY6Dy/mHa8dBEl5GRRWSu3bWzFmf4PhqgI0fhE/DwfB2SMuKQFMgFMmPhOECGYGhKhAKhQI4novfvgD8UMQAH4brOBd8XHVV9Sj85st+yV8c6xShnTKMdWejkh91qiJ9sSMHNHAdWZR8AYD2HEjK5CswXxmtphj1HYvDxxpgo76E46GWUBPkZLNoEc2I8Q0hwigHwM7F8QKUyPOsD+b+KLbZDryupuCUBq6CP14e0sD1kpsd66KESwfRo4p/BqULqLI98y++GhPN+3o7NRwIpqZaXSs5AAD1yTZOQF3WdpM0PHQN3DQwWTehOeA1BzRwveaork9zIA0c0MBNA5N1E5oDXnNAA9drjur6NAfSwAEN3DQwWTehOeA1BzRwveaork9zIA0c0MBNA5N1E5oDXnNAA9drjur6NAfSwAEN3DQwWTehOeA1B7Lb5fGRLZO8Zqi5vl0fLDbvZs92ivkaY+SsEcti21m2kV3uaXyhgmISIm3OgHP+pCx71n6+3QWIflomsgjI2QFcAjZHzNNg9TN2Y/e2QMwYMT+259MN/wN3yZalGrA+fXvj35bvwetf4GopG/+1zpYzYTHZr+qzP4EbHcsuzZb3U9+nLQd8KX39OR0UFBq0tu9yVp2cJ/gh9xn5D7gc02rSHDBzwIcfcn+pyou3zMfzmmd+Zn7c5kPLCwZET6zDV5IXEEU5AYFd/AZFPtLMVTQhd2MEiwThX3VzRFQ1h0VjCAeymQKYLpo+YrJfWOA34Pr67SzODYghRbmiX4+gOAS/R/bKEyN75hrHgF8xtDhX9MkPitUVTaIZoCWAPz7YLD7C37bakNjXGBI760PiII77mlHx0OkjY5V/PKei0jbeI+uWx/lVLYA0/e8BPcRXDy3GbwGAmSMI4Hwcj/fVPQPlzUSQEsh1LRGANyze398onvhPrVi2q8EAd9aAmHP5ApLXBxTv2Xe/W1uMBel8QvnQe88c2ENcMLRIfGV4kRhUKJcb8vYGP4f0fWFHvfjbtjrx1t5Gsbch5G0DmVjbjBG+eOd9cROG1dAHBohCSNHJAOx9J5eLYcU5xjjW+u5TctZjvMq/XQAe1eCNVUipjDX4qArXYEw7oiTXkMj9CoJibFm+GI59joN74I8S3PzQ+bVrQZ2fVLeIBzZWiz9uqRX7UQ8O+ZN8oi6bn6G7B5WJpnX6H3dzo9TcI3uK2Yf3FCeWx9Ijx54HMfTOvkbx0uf14r0DTWIjwLqjdawaK2SzQdV6IKT2iJI8cUKffHHWoB7ilH4FoheMW2ai/epjfAQe21wjfv9pjdhe50MJTCNVSCww33eXbyfhY+0OuNoLKSXPlpbgo2Fguv+UcmMca24Ew1EYlFrE81Bl71l/UGyGRPSShsK4Ne2wYmPsfDgMXLRQm+ltqM53rT0oXsbHgtJdU4o5wA9KRLzu1s/aHrgasCl7WrlA7b0nlYkrR5SIPlBpzUT193vvHhArAZ4DsACnivjwSwDY4yGFrx7VU1w8rMhQp2V7nEb682d14hfrDhoquTyuf1POAUdvr/jAzZI50ZQ/AkUDoyFl/w/j2EkYz1LqSvqwskn8ZM1B8SdYfNNNGPoKWqOvP7rUGGeXmiTwcnxAfvRBpXgNVmjODWtKCwdswWt6bUyd0aA1McPbzUuHF4t7x/fB3GtOzEhEg9NtqyvF/RuqRA115C4kGrAoeb9/TC8xDoYt+YLsgcV5Hvr4OIxX1ZDEmtLAARunkY7zDBq0KXsiVEcJ2gEwFElAUJpdsmyPoZKmUCt2fU/8bqytbDYMYQTxkaV5hiW6OBcWwIHRZX7XQ5Wv7eIPjOsb6t4FDxUXfzcgnv3VMuttyPen7biP5kPbbqprtzgve+PoUnEzpFgZPJtIlLIPbaoRN793IGNBUIB+XwNr9w3o+yHwyuLLQjsVjWW/+qhK7PCj1dl4Ohn2TzGF1V7iRqXtpAzrdrfvzrxje4vvjW4DbSNAe+2KA+JuWG0bMthiy66thJcVjWV0r6S7Jcfkp/brYcwxr8WYvArzxppSzIGgOFQ886vF5lbamzO7+Vyo+cYyYZsGn28fVSq+BRW5d6ukpf/w9Df3icWYK+0Ohh7aouhddct7FeLNPY2GxOV9XYf74rxzX4tFPBP47rs+MD+axX+iDbiWE767+S64oWmHlYibx5QiKCCq2NDwdNnre8VfttYaqnK8Lh0GT6ejIOHSRcOgBnM+GX4acYl+zdeu2G/4N1PGUvL+YGwvzAWXxD5KcS/WJzznQBtwo95HnjeQrRVybpTjWjk2pCV2zvJ94o09DYZ7ooovBM43jugp1l80RDwysW+7qSJVeS+O0atqxsgS8eqUgeLuE/sY7pHx6l2DqKN5H1QIGtQoiWm8Ing5rcXxsKYUciAaIBFroA24sUN6o7McKIf6eNcJZYYU4+tMA+zNUDXpzB8vLpYAWnbuILFwQrkBglPhkkg1O9V05qBCOIEUG4EM38Uc7sMT+orTMZ8bD4b/hrp855pKwTln0gBoEz8EeMeW5cW9JtX3kI31m4E7LxsZ4PU9U/DcOra3OKVvQSxI4NeYn33qs9q41mPG1L5x3iBxWv+Cdi//fBi1DoXanCo6vGeeuAzRR1ItZ9/px3wfpqy+iMikeEKUY176M3/ealU+qbxAzME4nvHAmlLEAUsecDNwU9RidlU7BRLsgqGFsXEfJRSBW4E4WBXRT3gp1FSq1lbi1BH9mFNBVHPZz6lwCLHScejLL+COSWcR1biXY9xff1wtXjT5MU/HWHcitATWqyn1HNDA9ZDHdBNklA+NSyRakG9fXSG2IvsEX3YrDYX31HNnDbCVVGdDAl4FUHhNEwCymRjbMsxPRaPgeHHHcb0Nyas6T5X/p5jOehfTRbw31nMTDHFH4DpNqeeABq6HPJ4+slicALWR+aBIv4VUokGHzhZW4jTK05P6C6qrauhEr2BdPz6+t+jfapm21pPMPq3IlyOjBiWrHRG8ND4xRlhFjAP+E1wgtyOKiUSV+RK4S+opIhW3vD2mgesRPwmsiw6JGnlY5TuQRH/YUoOg9I4qMoH66Gn9EHtbEHccae7WYDg+3HNSH/OhpLf5IaAU5zSOGzoZY3UayY7prQY556NX7GuKzUlTOxgGjcPuY+SmXV3GngMauPb8cX32Uhh5juwV9SyigL0f0vY/NS1KFZlTPpRicbTUDm2y3EWQZByTdpbGI1Cf7dOK7Za+fEgRxrtFHcIPeT19lh/dXC0+bY0XpqHtC0OKRJl2zHDL3qTKaeAmxbb2F3Fsy/xQgwqjY1tK25XIWKFyxOcY8LZxvURhAsBha0Uo/3PMs1oD3tv3xH6PuasugcGJ49tEiB8OWo0nY5pIZWmmlZljXRlw/zUE6NM90v2nIZHe6LLkgAauB+8Bp1AoaaQEXfRJjdgKaauiBZjiMUcHqcqojhEEzCVFg1EyxPBaxtvOPtydimxtg6CfDmPWmF4dVWb6ND+NgHs51uXY+JS++cbHxlqP3veGAxq4HvDx3MGFgqlgSAx5o7RVxdUyzSrHl8l6GXGqhWNIeiolSmMxRv0mpKaMTkr0epbnfY4HIKXxzVwH82Ex4RydTfiROR/qcp+C9jEs5vJ6u3Mc0MDtHP8EpQsNN3LM+M/t9Ub2RVW112KqqLQ12EB13s2xXrj+ruPLEpJmtPJ+CePUeNZhN+2yDKd8GGTPGF0r1UHsLoU/877WFK9TAHImC1Cp1tZr9X7iHNDATZxn7a7geHEQXlASQ/Re342XV2FJpicVXQmTlbayUarjx/TOEzchTNANcSg9sX8PcQ2kLSVhZ+lsOJgwEyVjjK1Eh4zdrcAtQcO8Zwbga/KeA5qrneTpsUjvIuctOWf7GeY0mafYSlMxb9oZw5K5vmIMWGdhrOo0D8trRiHq5+soy3G1F0R1nR5S8mNlrpPxuZ9UtQjGG5P+Cx+MUq6NoslzDmjgdoKlVFsZYC4B+c7+JnEAycStRDWahiEmJbcjWmX/BYntRKxlMKT8nceVCSZRj0ccz16AsSb9jp2IUNsCgxqnsJzoDIyxhyv8kolXfry40BiJkrlES1wndiZ1XgM3KbZFLzoKYz2uFiChswbJyisViaMmIGMErbIK7bJd6w9vqhYXL90Tc2Zod9KyQ1WVEUSck1UR26L/83VH9XRsl9cTcLe+X2GsZEADkx1xjMvABNVHg9NCkgcMkOAqCrRoa/KWA5qlneAnpY40NtEveVN1s7GwlrXK07FYF8d8dkRpuwApUJlH+Ztv7bcrGjvHfMzMrsEgeCtx6ohzr4wHdqKDiBV+Cilh/4wIpn9iTnb5XmepfxyGCDJBgLl+WtVlFkjeMYMoVONh8zV6O3EOaOAmzrPYFYdgfR+pJnMdH04BqYTVaMx9OkXNEDTSqLUEy388B+u0ExEYBCj9ic1GL/bpHBiRVJE/1jrZX66W8Af4HFPSrj7QKN6Dyu9EnLeW6XjMZXci1I8fMXyHDOI0mQaumUPebGvgdoKP9A7q2SpJt9e1wFOqo18yx7d8ybksph0txIJbZpr11r6Yymk+bt2mR9WZSJt6OYLhSWxlDKzONyJSx0k1Z/kPoSJzoS+Ob0n8+KyGyr+1NXDAOKj4NxLBESrg0jDFj5jMp8XpsngRSIpq9SGXHNDAdckoVTGqqlKSbkfoHteftRJfcLpE2sGWqiod9c3EJS+vX3nAfCjuNsfPTKPKcEKqxnMw7mXUkRNRpWVWDkpcMzGr4yZYh+2I2gat6aqPAz2oZKaP4SU5WuLaMTLJcxq4STKOgOVqd1wDiEQpU68ALi3PDsJWrKtoVob+MbroL1vrHHvILnCce+u43sa6ulzMyw29urNB0D3TGnZI7YEr19sR1V+Occ0quizPNYckK3ICdp8seYX+TZQDGriJcqy1PF9HvpNOryWtzioXQXOzK+AiqSKOE7+zcr/Y7QAiXkupTuf+n51Y5krCUapyORGpIpvb34P2dtWrI5vM5fjBUOGSY1z5MaBU1jNCZq55s62BmyQfORViNro0YGwXinRUlVlG9XKbm7UbT3LV+OvfcacyU/qpLL3mtrjNqKXntteJZ5AmVkWUlnRhVDmSmMuzLdWUEC3krT4YxkfL6eNmrlNvu+OABq47PnUoRRWZEkdSlSFl5F7bb1+83E7OQzIcru2qti0CgONQBqx7RXTL5Orz0vKrqpf3Q/BqykwOaOAm+Vw4jjMvH8IMGNJQZa6Sai6K2tJBgMSOaOi5bVWFsdC1XTk35zYh3czjmG7yYqHsEL4qCiWj3fBBY9/NU0m8jAZu4jxL6ApOi9jDErmJHfyIKfdo/OJi150hqsgvIBDgScTOOhE1CifDEp1FOESwEnMtwyZnEK3jilky6yV6P0EOaOAmyDBZnNKW0ylyHFgCfVhlhNkP32VZRl5r/XUTI8txJ6dtHk1SZSa86BH1mw3Vjv3hCIBztE6+1eSBSqLSGBdsHdiz3x2hbeWA3k+UAxq4iXLMVJ6J4BpaxSkTuhUpkEsppxBKplqEOMEh26IszHliukWqLMGyTLzfzXDHXLK5VnwMVdmJaKHmagzmMbz1GlqNo+P6jrBk5BAuN2gHppakhdlah95PngMauMnzzpjrrGkdwDJHcrFiwpYpTDk9Ygfe45Ht0Q0RIlw9gCqzXX3WuqgZvLijASqy2opsLc/II6q7drQNDid00bT2gywgL6S3FMfSMszPrj59LjEOaOAmxq92pbfBQ0g61NMnt1hhPqbEpZSze3n5oo+Fm6Ib4piZK+f9zuIiGe9aAut9uDA+sLEq5s0Ur6w8TmeOwxVZLuR5/n4CCc4PkpWi0jon5phCHjkZ56x16H1nDmjgOvMoboltkH4y9pQGJs5rqpwtPjrY5AgaJmJzS7RC37O+SjBw3YkY2L8E4+K1lc4qsqzraARFjIT7pB3xY6SKPba6eG6GD7R0f7SrT59LjAMauInxq13pjfA+ovGJxFgDZsPopZC6K/Y2KVO1miu7EkngMLR0RVSZt2HsePvqynZTUtaLKe1f3RmN/LGei7fPONuTEAAvVd145dbhQ6BK9s4YYLp5kug2ybG1DDiIV5c+njgH7D+rideXVVcwvxIlymkACKN0GKNKa6wMz5PM4Jq4n8OF0C6YfjAk9rdGlRoLhMnr7H4pxagy01h1JjJHqky37BsXHDPPN9vVyXNnIbsFs1HaEWNu+adyHGHWi96tH69VUNGlRmJXnz6XOAc0cBPnWbsrmDliH6TusNxcI1VLX6QkZZpSMxE4/9hWb2RH5BgwHjHn8u/hHCEzSMQrJ49zjMmFt/jnBY3Dh+e8IYXKFQvM9TO9zmetYYDm4/RLHo2xurSu0wdbGu/M5fR25zkQ/y3qfN1ZUcPbWJ2dzhEkhtQdC1WRc7pW+it8g508pBgmuGhiX+uladmnz/FFSOHKAHw7opGNS4fSh9pKlNSDsZoDp5GoHr8JgEvjnbWs3u8cBzRwO8c/I1cTDTVSHf0CJNbAHh0VGeaj+jdA7mSoYd7i7x/jLvVqJ7seu5xAuwxZKJkw3Wls+/LnDeID3IvKqeQc5FLu3yP6Si3HvTLxHEYRmlLAAQ3cTjKVnkOvY6wppS6lzjAEmVundPn+/gwqrXX8q2r+pyeUiW/GSQKnKt+ZY+wns0DeMLrUmH+1q4tjWkYUqZw4mEKHjiQylQ9T7+xXTBfZ1a/PueeABq57XsUt+RqAux1TQyQapy4ZVqx0YKCx5llE+qiMOtbKf3NKH6yLW2Y97Ok+Je2FUI/vxoeCFnEn4uJeHLeqrMRMncOMjiQa7TgO1mqyE0eTP6+BmzzvYlfSBfFlOO/ToZ50CZakZGpSlcvg/647KHYA5E4aJOeDb0USOC5+7QZUsc643BgIK/YtY3qJ+04uN1KtOl3GMS1zU22ANdlKXGrkPENNjnpbPYFynD+m84em1HBAA9cjvj6B9KaftlpaOe3DsSotzFYiyOevrnAtjbjC+xvnDfRU+jK4nxkgKdHpteVEHA78Fuv9voQ5YW5bieNj5riCADe8qZ6BViE/Ytayet8bDmjgesNHY9z3CnI4HWhdN+jrGKNyiRCVJxVTxjysyPUUryucXhmtyJ0cr7zTcaq6dP7f06ohOJX/C8a1T8PPWWUVZ0bJSzE0kEuS/An3xphfFcCd2tHn3XNAA9c9rxxLPoSVCNbDvZEqIkP1rj+q1FixTnXhD7BqwDvI7OhGnQwjWv1fcOLwkqiuq9ReaxtcMvR+SFvmqLISDVtMyH5MWVTacpzP/MxOieas9ej9xDmggZs4z+JewekPhs5RmpHOxdTQl2H8UTldcFrowqW7BQ1WCu2zXRuUXrRce0ns4wZIRjt6B6C9bVVl3LZ5b5z3lffH8Tv9p918jOza1eecOaCB68yjhEo8jpSqnK+l5Zj+yz+EgSneYtD09f3Sa7uNhbDtGuEU0mp4aHlJuxFI/DGkaLyPBqXxTzB99QrGtaoyXD/o+qNLjUXP2C+W4zKbbr2+vLyXbKxLA9fjp85g9zvWVIp1rZKHEUN3YbqFCcRpvLES1covvLLbWD3Aeo77lF70zvJaijG4nZZfht1Z6S20x8ySTFKnAi3XQbp1XC9j/VveEy3Ov1hXhbWTOtZlrVvve8MBDVxv+NiulvWInOGLLFXm8QiU//mJfeLmlmLupgnP7xS//KiqXT3cIXBe29V+pYEOhZI8wNUXGOgviV5Of0Y+qqvf3m9Mb6k+FjS23YhppPMx/cPkeDR0/fTDg8bHReVNJevWv95yQAPXW37GansS00OPfVobCzbntA6DCJgSRkV0mbwBUm7q63uM9XtkGcMwBWeGVBBDA6WBitM3P/mwUlzz9j5jPSFVe5yXnoulTri0JzUJflQe2lQj/grJzGVUNKWPA+q3KH3t+7YlvtR3Y4xIdZNxsSS+8PMBXukWaBy0/KPEO+7vO2LSl6o0Y19TQQQrA+z5kfnSa3vEnWviu2RSJb72yFJxo8k18lksj/Kbj6uU6nYq+qvrbONA27Br8Zbo29V2Tm95wAFOCz1yWl/Ds0g68DPtzA+RJ5lzvnZMHws3xAuHFoofQxVNFVH15UugcmOUbTLb47cxtfUdGKOYj4rEpOrMffW+iyU5ZT36t5McmDEihtfYhtDA7SRX41/OjBCPIFyPkUMSvLTCTntjn6MTBB+QHbjjt+rNGS4T+j+IVroG0laq+UwTezu8v5jLSjUO9qZlXUsHDpiAq1XlDtzx/gA9jqa/uVf8ESqpDP87G/OfS6cMdMw20ZWgpcRnfPBNMEYRtOzLM1CPb3rvgHgXklaD1vt3xW2NbcANiGVuL9LlEucAF4z+1vL9GBNWx/yUmS3i5XMGiO9CBVUtnpV4K95cQV/mS+HL/ChU/KnwQ6b1mMN0Lr59M0BLq7mmruVAG3Aj4vWu7Yr/W+c48ha8+NdgukXG7xIk947vI5aeO1AwEL2riZFID5xaLhZOKDfia6mq0z3y++g3x+VerDnU1ffYLdu3CNY24Ia1xE3HA6V6ySCD01/YacS2ynV1TulbIF46e4D4w+n9EGmT2yEQP5V94wIMDEO8HQtj/+OsAWLW4SWGrzWl7GqMY+eu2C/uwxyzKqtjKvul6zZxwCJYO+ZYMZXVm6njABPKnfPybvFVqKLMeCENP1cgIP2LsCS/ibxOP4PvLzM5porokslxLIFKv+MhSOrOwAESE+D9bmONeBDqMed79Xg2ypdM+d/6mFq7s2TLUlggJmVK57KlH4zfvQfqMoPRmUHDTHSQ4Fq2zCjBIAbV6gHm8k7btBIPR1K7U/sViCtGlIgzBhS0Cz2kIW0Z2mLCdbapKUM4YLIos0ftgfvIlkkiKJZmSFezqhuUdFw4jA4aM7GqARe7kw8HGqvhxFEBKfgBgg1o2WVUEYPyGczANWpZJmJarJar5bEOjqH5YWCSc46hJwKwXMu3BGliKXFJvJbWbk7z3AvAvrc/GiRhnNT/MoEDC8SMEfPNHZHvRtuxxVtYYF7bAb2Vbg6MQuQNs0pw3peSseNDivaIluqdSLTOpOPRBbQJQayqALDS8aMP/voBtPxVEbBqJABgLikGy69EfLBeWU/FqS491gG07I36ndAqc5c+Kflg6NV0RGmu4bU0BdKyHAAsNknKRDtJY1M9rGF7EdL3NmJtuTI91eE6IFiPYRPlZprKW1Rk2araOBUSCwQ92/R4V/Ip7b+UnZw+op8yp484l8oUqEdAGh8BqzNX0xvbG4tzYZveWNbFsekfXQXHf047McSQ9TASiEYxhvOp0tCk/SZ1g/YcCIvJ8QqoJa4srdVmyYmM/uX4mIEL/CVFJWvE1v84WlL/z0gOcM6WwnPWiGXx+mcPXF4VBS+35vGfJs0BzYEUccAFYGXLzsCVJfnbBmKOjs8wn+rSba3Sdyn7u13jFi+kLu0/HSuk85ONhLX2MTHgWq/OlH09jZUpT6I79ENppe0OHTf3UT1PYC7RHbYT+FJ1h9vRfUwhB6R0S2ET6ajaH8AlpzJJ/UnHk9NtJMcBn3zk/QNcWuE0aQ7Yc8A374g/xrjyYWnHEckJ/WvlADWy6SMmWw93133/SFw+AS11u+t7mPp+W8LiUt9galvwl8Qlr7SFObVvTPes3ReWZDPr/SVxeWdR44NvxjLmh6W3k+KA70BLLvhP4spnq901JSey+deXoOUD9S9weXcavORCtpJvQcsH6m/gyldWA1hywv+/Cfj7dmdmZAdw5RMigOljrX2bJUf88Sudbxwiavxxs9G7yC7gmp9cVApLLmROwIS5j3o7PgeSdM6PX6E+ozmgOaA5oDmgOaA5oDlg5cD/A+qplueDZ5IZAAAAAElFTkSuQmCC;" parent="1" vertex="1">
          <mxGeometry x="290" y="342" width="110" height="65" as="geometry" />
        </mxCell>
        <mxCell id="2x6z2sCF0aa3ZfLK6q7P-36" value="" style="shape=image;verticalLabelPosition=bottom;labelBackgroundColor=default;verticalAlign=top;aspect=fixed;imageAspect=0;image=data:image/png,iVBORw0KGgoAAAANSUhEUgAAAKcAAAAtCAYAAADLPXtSAAAAAXNSR0IArs4c6QAAAARnQU1BAACxjwv8YQUAAAAJcEhZcwAAFiUAABYlAUlSJPAAAAx4SURBVHhe7ZwJWFXVFsf/XC4yiiJOzAoqOOKAojhkDjlk+Vn5tMwpNc0GTStLMxVLtKQsM/M5ZKUvbTKrl6U5JI8cQQVnRZBRQUEBmYd31rr7wAW5cCEP6vX8vu9+a+19zj3n3HPX3nutdfY+ZqPGTimGxLAhA/HY0EdIRVZWNl6d8w7rMmtWfiA04JffduLXHbtECfhoWSBsbKxZL7+tX99eGPXkcFECpr78utCATr7tMG3yeFEC1m3cjCNhx0UJmP/WLLg6O7EefjwCa9Z/zTrx3Pin4e/XWZSAwCXBSEi6wnr54x46Go4NX34jStI1TBqLzh07sB6fmITFQR+yTlS2zcWpKd6ZO1uUgM/XfYljJ06KUtl7dO16KuYtDBKl6t3frT9sx559/xOl6t3fyu7Dnbq/5e/Dnbq/hP59MEtISGDjVFG519AIqaJyz6Eap8o9i2qcKvcsqnGq3LPUWkCUX5APTeR2WCRFoLi4GBZ1rHDLwRtZbp1h6+gOrVYr9lRR0VErxpmbl4PCjWPhefVvUVOWm5ZNcX7gYjRq0w9WllaiVuVBp1aMs2j7m3COKM2hGaJQY4lk977IDJgGK49OsNBaiC0qDyKKG2dmaiK8PvOHWXGRqDGOIo0WV116IstvAixb94PWXB32HzQUD4i0MQerbZiEpqgATnF/wWvbRFisHopbGWlii8qDguLGaRN/SGg1p0naKTReNwiFRzYj59YNUati6ihunJYX9sJM6CSrq8vSPjMBLr+/AZuvnkZhYYFug4pJo6hxJl4MR72sBMhOLcnq6rKU9cbXImCzdhhuRB0VNSqmiqLGaX1ovdDuLA4pkfD5z3BoNk1AdlqiqFUxNRQ1Tu+E3bcN09XVZVmR3iR6F6y2Pi9KKqaGYsaZmZYETW7GbcN0dXVZGtKdUo4Bnw1BbnzpvEoV00C5njM+UijK0/R6BBpvHoW8mDBRo2IKKGacDbLihFY7WOfdgPVPM/i5vYppoJhxmmUmC632aJQRDQ0N8ddjRY3K/Yxixplz6+480WmSGon6305GYWGhqFG5X1Hs2Xr+1ulwO79dlGqfmCfWw6rtYFEqy/XUNIPG29CxATSa0jZ7Mz0Dubm5rNvb14WVpSXrREFBAVLTdE+sGjdqyLIybt5MR25eHuvl99c/VvnzyN+j+sKCQoSfKPXnaeGbb7s2VU45pMVpl6Iv8/4+LVvA1tZGbKkY+XfL1xIlfTdRLHCjY7Rt7V3mGg1xMSoaWdnZvL+5ubmoNQ7ljHPzZLhd2iFKtU+SzwiYjfxUlMoy682FiItPEKWybFzzcckfRwYz7ZU3+I8ihg8bjGdHP8k6cTkuHq+9tYj17zatZWkI8oXpWLIBBs5/A629W7JO6B/Lr7Mv5sx6iXVi+cercehIOGa/Mg1OTk1K9pPRSn+6k1NTtGvjjXHPjCwx1KKiIoSEHsJvf+zGpZjLXCfj37Uzrwj1adVC1JRlxaq1CD1wmM/ZvVsXfPH1Fj6OPm6uLmjVwhNPjRjGjVomJycXKz9fj8NHj4kaHW18WuHF5yeiceOqGzKh2LBeLN2Yu4n2suEnSK/NfAHLgxaUfLw8m3F9N79OJUtwiYOHw9gwPdxduRwSerDGAdep0+fYMGm5LhlTsGRweXn5YmtZjoafQMTJ06JkmNdnTufrnzT+Gb7GHTv34K0FS3DrVhZv/+PPffh0zQZcTU5ho/hk+bv4cNkidJcMk4x96fKVSLpylfc1FvmcM6ZPlhpXC+zeF4IXZswpMVxq0PMXL0P4sQgMHdQfSxbNxdLF87hRR0XH4JPV63gfY1DMOO82+XWbCO12nJs2gYebK3/IQKIuxXD9xLGjYWYmp/iBM+cusOzauSPat23NxnXlas0CvYhTZ1i+OPU5eEu9FRn9hahLXKePu5sLD5c7d/8lagzTzMONf8OAfn3YWGjojLkcV2Iou/bsZ/lQ7x7o2ycATtLvdnNxxowXp3D9raws7pWrg3zOXgH+mDLxWTz8UE+u/3H7f1nSOekauvv78f1s6dUcXs2b8agz/NHBCOjeVTJO4+IB5aJ187s8UbhFH6EYJkfyqTZ89Q1sbWy4hesPTdRDUg9G+HXx5RtNHA2PYFldjh2PRDN3N9STfLhWLb10dXovZJChoXJg/z4Ik8598tRZUWscvXv6s/z2x59ZJqeksPRt35alDA37Y4R7EhuXYHRPVhF9evZgSY2NfEu5QXiL36jPyCce497UyqpqX5VQzDg11jq/zdCjR2N1WVZXz/GfpCsYgPwxeiMHOewjHh/CLVwfCppk/7C5h7tkNM4cxESeqnq4LU9yyjXExMahQ/s2XPYV8tSZcyzLM3TQABRIAduioGBuQMbSQu836AIaXfDl6OjAUh/HBqV18n41wdVF98YQoriouMSXr1/PnuU/QTHj1NbRGSd5aLKXVhNdltXRYztNgY1dfVGqmG2/7OBeg4bRRwcPELWlHDike9rUpVMHduzJ/6Q/9PTZ8yU+nbHIr2rJlnoWOk7KtetcpoaRnpHJusyFi5e4B+/YoR2XyW80lqQknf9IvXNdO1vWiezsHKFVjNai5qsMUqVGLEPHadfWh3VqXP8UxYzT0r6p0GqPPHMrxD6yFJohb4uaigk7HoEt3/3EPeGcV1+qMA0TekA3STpMcuyDP/mcP+SDUi+zcrXxs60oCKDzETTk0XFWrfmCy8RfIQeEpkOOZCc8O4rld9IQbYyfSyPB3v2hrA/s35fTYeQfEn8fPMJSht7V9OWmraxTb2tZpw7rNWHnHp1v3MChPh9n5IjHuExuTHnIF9605Qd+j5QxKGacGVa6gKSyodcYXZbG6Km+Y1DHfyzMK1lvRPlN6sko6AgOWlhhWoOGRMrrkdNPKSL5s3ZVMG8nYzP2Bh8N0/mtFKzoH+vrdbo017kLF1nK1LPXDYcuzk3xihTkUGO4HBvPdYYgt+H1eYEIlwyCes1RTz7O9T26+bGkKF4/Kt/y/U/8G4k3Z7/MsrrcuJnO6abde0O4/FDvAJaULiK/eX/oQalh/cKNhj5nz1/EN99uwz6pATnUr8f7VkXN+/MqyHLQ+T/yUEvUVDdm32tufZD/yDxUFYYdkQIN+jOJsZNLc4kylNfbt1+3hNmzmQdLGfKjyMeKT0jCcSmYadnSU2zR5U7LM37Mv0r8SjkIkqGgoF0bHxyPOGnQr+wpRba//rbrthylzKIlwbCUGllS0hUeRi0t62DyhDFiq+4NdPRdShvNmrOAc6EUoctDMeVEyZirQ/lzUlqMInMKdGRGPTUcK1au4cDs9z/3cl26aAzTJo8zOhmvWBI+NzsTHsGS41+s7GPEXK0dkvu9DbMuo6XhueoMASW76c8yROeO7bkHIoYNHlgm70mciDzNvZ27mysnsHfuNuwTdu/aBQeP6HzX/n17lwlCiJOnz7IPS72qi7MTH8td6nUo6S1z8VIMv56QCJCMwM7O7rZzUrbB2akJvDybw76unagtJS4hkf1mMhALyS90dXHmc1T2hId841gpuKFz0v6UWdBPfdF3yS2iRkdDenmSk6/hmNTwrkn+NRmxtbUVP1wo3+ArQ9GlwdqP+qBhZpQoKcPZwR+jftenREnFlFDM5ySiW5c+6rvTpNm4IvaJDaphmjCKGmeDXuNQKEXQd5ICc0tE91uMrJmhqNN2kKhVMUUUNU5bOwckOXcXpX9OntYWZ0d8Beuez1UakauYBooaJ2Hh0U1oNSdfY4lEv2lImBmOhq17iVoVU0f5dyUlR6PFmt6SVr3TZBRqkefoieIOI5DhOwrW9Q1P5FAxTRTvOe0aN0dSo46iZBxRHoMQOfoHzEt/FJn+U1XDfEBR3DiJ/ICpyNYaTvYWm2kQUtgKPyIAF/p/AJux6+Hp48d5QUqUf/bvjbhx46bYW+VBQfFhXSYzPRX2R9Yj58p5oKgQGis72Dq64kSGHb4/mYYTZ2Kw4v1ABAZ9yJNnaeLvlaspeHn2XP4+PVWgJG7vAH/epj/vUsU0qTXjrAiaS0nPfQl62rDqoyAsfG85P/Lr2aMbXpo6Edt+3lEyP1FmwMO9MXXSOFFSMVVqZVjXhyYBHDsRiffeX1FimIQ80VeeckXrV+YuDOLZ2/qTgIk/94Zg0vRZPLOIZtiomCa12nOSYdJ0MZqxUh6a7j99yoQyC72MgSYuvDZzusGFWir3L7XSc9I6nQOHw7Dg3Q8qNEyiXl1dwERrXGg5qrHQ1K/5gcuwNPhTg7N3VO5HgP8D5LI7YOQa64IAAAAASUVORK5CYII=;" parent="1" vertex="1">
          <mxGeometry x="36.5" y="352" width="167" height="45" as="geometry" />
        </mxCell>
        <mxCell id="2x6z2sCF0aa3ZfLK6q7P-42" value="STOCK MUTATIONS&lt;br&gt;FLOW" style="rounded=0;whiteSpace=wrap;html=1;" parent="1" vertex="1">
          <mxGeometry x="280" width="120" height="60" as="geometry" />
        </mxCell>
        <mxCell id="2x6z2sCF0aa3ZfLK6q7P-51" style="edgeStyle=orthogonalEdgeStyle;rounded=0;orthogonalLoop=1;jettySize=auto;html=1;entryX=0.5;entryY=1;entryDx=0;entryDy=0;" parent="1" source="2x6z2sCF0aa3ZfLK6q7P-47" target="2x6z2sCF0aa3ZfLK6q7P-28" edge="1">
          <mxGeometry relative="1" as="geometry" />
        </mxCell>
        <mxCell id="2x6z2sCF0aa3ZfLK6q7P-47" value="smart-portal-sa" style="shape=image;verticalLabelPosition=bottom;verticalAlign=top;imageAspect=0;image=data:image/png,iVBORw0KGgoAAAANSUhEUgAAAO4AAACECAYAAACXgRceAAAAAXNSR0IArs4c6QAAAIRlWElmTU0AKgAAAAgABQESAAMAAAABAAEAAAEaAAUAAAABAAAASgEbAAUAAAABAAAAUgEoAAMAAAABAAIAAIdpAAQAAAABAAAAWgAAAAAAAAFKAAAAAQAAAUoAAAABAAOgAQADAAAAAQABAACgAgAEAAAAAQAAAO6gAwAEAAAAAQAAAIQAAAAAyiTvzQAAAAlwSFlzAAAywAAAMsABKGRa2wAAIsdJREFUeAHtXQmYFNW1vt2zMQsDw7CDIKKoILiigs8nuKDGxKgRoxLZkhDFaGJc8mL8BKKJMcnTxJcYg4qCMYkao1mMu2A0IriACIggEllkZ4bZt+5+/189t6em5nZVdU91T0/1Pd8307XcuvfWqfrrnHvuOecKoUlzQHOg23Eg0O163M07PGfOnLyWlpZ+gUCg4eGHH67A7US6wy1dddVVxQWBgpGhSKgskhPhe7Ortrb206eeeqqpO/Tfb30M+u2GMv1+GhoaSkVYXB5piVwxffr0I+bOnVuS4X0OXHnllWU5OTlnhgKhB0RQvIJPzVJ8eG4pLy/vneF99233cn17Zxl6Y/n5+bnhlvDYsAhPDwaCO+tr61fNnjn7XwDES7m5uesXLlzYnCldnz179mAREl9EX78CsJ4cEREN1Ax5OBq4XfcgqO0MARiGRCKRCwCQBU3hprUAyxPhcPglAHxrRUVFPVRRAjkt6vTUqVNz+vXrV1hXVzcCEvWr6Mc0tD0Mf1ozAxMyiTRw0/w0ANJmwGB3IBRoAWgl/zlmLAQ8x4dD4fHYrm1uav6kuLh41cyZM98PhoPvNoYa1z3++ONVXnd3/vz5wa1btw5Ev8YHIoEJdbV1E9DGOOzHla4BEWhB2T3Nzc0tXvdH1+eOA9o45Y5PXpYKTJs2rSckKgFyUyQcOQO/BLDyWRAkONeAv12Qgi/miJzFJbUla+958p4G7CcliQnWPXv2FNXX15+M+r8ByToJ9ZfhLx9/SukKIEeCwWAjevkyPjr3osfvLlq0qAblk+oDrtPUCQ4oX5ZO1KcvTYADN9xwQyHU4ZOAiSsAoMm4dCT+8uyqMIAcEGsgrf8OIL0Cqbfqscceq7W7pvVcYO7UucX1JfUnQlpOQZsXAoSjiUeHa6vxgViPdl+NBCJP79q1a93zzz/f6HCNPp1iDmjgppjBbqrH2DIfavFgAJGAuhpS+HgX11HSVQSCgQ8ArDuGDRv2BiSpUnXF8Vyow6dDsi6AfDwG11ENtn32qPMgyv4dYF0C7WDVxo0bK5ctW6as30VfdRGPOWD78DxuS1fnggNQo0sBlPMB4KsAnBMh6fqaxsLxaggDaI8BissBznbgwvG8oAhODEfCX8PFds87hLYqANSNKP9cbiT3iYWLF26O16A+3rUcsHuQXduzLG+dAC4IFowKB8JnAW5TwY6x+OMY1GuqR/2rUOmz+HsDwN+0ZMmSA9jWY1evOe1hfRq4HjIzRVUFoErn9ezZ82SAajrGp5MhgftDOha5kMTWLhGM9HSqgSTejuv/BseKJ6uqqj7CtFPIWljvZy4HNHAz99koe3b11Vf3h/fVaAD4aIDvaIBvFGTjMEjNQVCvS3EsZmzCPoFK49IWlKPauwGH1uZF8tY1Rho3uzRqKfuhD3YtBzRw08R/SM1CSM3TIDVnQVo2BHOC927evHlDZww+dJgYOHBgbmVlZW5eXl4wWB8saspr6gUjVxH+Io2Njftxe1UwfLXAet0yZsyYFhiqwgnecgD+1bktDS0nYaJoDryoDsGH4DPU8SZ+X4S3195M8vZK8N66bXEN3NQ/ugCcKIYDrPMh7WggymltshK/L8Aq/DTU1bcffPDBHQBCxowr+VEA4A8JRoKnRYKRr8DSPRn9tTplVEHS/xPHF8GgtkwDuPXJpuFHAzfFTAYASkqKS14EaOlwYeU3gdqAo58BtP8AgBc99NBDH6W4S7bV0zkDU0dj0d9vAKzno/Bg/PXAn7Xv5noOQoO4o7q6+pd6rGxmS+q27R5G6lrNoppnzZr1cwDgJpe3XAsArwBEngmGgisbw43bioqK9qVSkuHDkl9YWNgPH43hkVDkVLR/MdqnUwjB6ppwXRhaxdcXPbroUdcX6YJJc0ADN2nWOV84Y8aMkXihP4TxqNC5dLsStPBSld4BMGwI5ARWAkjLWRfcDKvblUxi57rrriutqak5HgauCRiz0kd5FIxXQ1BVL/zFjFtJVF3R3NI8Dj7V25O4Vl+SAAekk3sCl+iibjmQF8y7HIHnhQCF20tkOY6Dy/mHa8dBEl5GRRWSu3bWzFmf4PhqgI0fhE/DwfB2SMuKQFMgFMmPhOECGYGhKhAKhQI4novfvgD8UMQAH4brOBd8XHVV9Sj85st+yV8c6xShnTKMdWejkh91qiJ9sSMHNHAdWZR8AYD2HEjK5CswXxmtphj1HYvDxxpgo76E46GWUBPkZLNoEc2I8Q0hwigHwM7F8QKUyPOsD+b+KLbZDryupuCUBq6CP14e0sD1kpsd66KESwfRo4p/BqULqLI98y++GhPN+3o7NRwIpqZaXSs5AAD1yTZOQF3WdpM0PHQN3DQwWTehOeA1BzRwveaork9zIA0c0MBNA5N1E5oDXnNAA9drjur6NAfSwAEN3DQwWTehOeA1BzRwveaork9zIA0c0MBNA5N1E5oDXnNAA9drjur6NAfSwAEN3DQwWTehOeA1B7Lb5fGRLZO8Zqi5vl0fLDbvZs92ivkaY+SsEcti21m2kV3uaXyhgmISIm3OgHP+pCx71n6+3QWIflomsgjI2QFcAjZHzNNg9TN2Y/e2QMwYMT+259MN/wN3yZalGrA+fXvj35bvwetf4GopG/+1zpYzYTHZr+qzP4EbHcsuzZb3U9+nLQd8KX39OR0UFBq0tu9yVp2cJ/gh9xn5D7gc02rSHDBzwIcfcn+pyou3zMfzmmd+Zn7c5kPLCwZET6zDV5IXEEU5AYFd/AZFPtLMVTQhd2MEiwThX3VzRFQ1h0VjCAeymQKYLpo+YrJfWOA34Pr67SzODYghRbmiX4+gOAS/R/bKEyN75hrHgF8xtDhX9MkPitUVTaIZoCWAPz7YLD7C37bakNjXGBI760PiII77mlHx0OkjY5V/PKei0jbeI+uWx/lVLYA0/e8BPcRXDy3GbwGAmSMI4Hwcj/fVPQPlzUSQEsh1LRGANyze398onvhPrVi2q8EAd9aAmHP5ApLXBxTv2Xe/W1uMBel8QvnQe88c2ENcMLRIfGV4kRhUKJcb8vYGP4f0fWFHvfjbtjrx1t5Gsbch5G0DmVjbjBG+eOd9cROG1dAHBohCSNHJAOx9J5eLYcU5xjjW+u5TctZjvMq/XQAe1eCNVUipjDX4qArXYEw7oiTXkMj9CoJibFm+GI59joN74I8S3PzQ+bVrQZ2fVLeIBzZWiz9uqRX7UQ8O+ZN8oi6bn6G7B5WJpnX6H3dzo9TcI3uK2Yf3FCeWx9Ijx54HMfTOvkbx0uf14r0DTWIjwLqjdawaK2SzQdV6IKT2iJI8cUKffHHWoB7ilH4FoheMW2ai/epjfAQe21wjfv9pjdhe50MJTCNVSCww33eXbyfhY+0OuNoLKSXPlpbgo2Fguv+UcmMca24Ew1EYlFrE81Bl71l/UGyGRPSShsK4Ne2wYmPsfDgMXLRQm+ltqM53rT0oXsbHgtJdU4o5wA9KRLzu1s/aHrgasCl7WrlA7b0nlYkrR5SIPlBpzUT193vvHhArAZ4DsACnivjwSwDY4yGFrx7VU1w8rMhQp2V7nEb682d14hfrDhoquTyuf1POAUdvr/jAzZI50ZQ/AkUDoyFl/w/j2EkYz1LqSvqwskn8ZM1B8SdYfNNNGPoKWqOvP7rUGGeXmiTwcnxAfvRBpXgNVmjODWtKCwdswWt6bUyd0aA1McPbzUuHF4t7x/fB3GtOzEhEg9NtqyvF/RuqRA115C4kGrAoeb9/TC8xDoYt+YLsgcV5Hvr4OIxX1ZDEmtLAARunkY7zDBq0KXsiVEcJ2gEwFElAUJpdsmyPoZKmUCt2fU/8bqytbDYMYQTxkaV5hiW6OBcWwIHRZX7XQ5Wv7eIPjOsb6t4FDxUXfzcgnv3VMuttyPen7biP5kPbbqprtzgve+PoUnEzpFgZPJtIlLIPbaoRN793IGNBUIB+XwNr9w3o+yHwyuLLQjsVjWW/+qhK7PCj1dl4Ohn2TzGF1V7iRqXtpAzrdrfvzrxje4vvjW4DbSNAe+2KA+JuWG0bMthiy66thJcVjWV0r6S7Jcfkp/brYcwxr8WYvArzxppSzIGgOFQ886vF5lbamzO7+Vyo+cYyYZsGn28fVSq+BRW5d6ukpf/w9Df3icWYK+0Ohh7aouhddct7FeLNPY2GxOV9XYf74rxzX4tFPBP47rs+MD+axX+iDbiWE767+S64oWmHlYibx5QiKCCq2NDwdNnre8VfttYaqnK8Lh0GT6ejIOHSRcOgBnM+GX4acYl+zdeu2G/4N1PGUvL+YGwvzAWXxD5KcS/WJzznQBtwo95HnjeQrRVybpTjWjk2pCV2zvJ94o09DYZ7ooovBM43jugp1l80RDwysW+7qSJVeS+O0atqxsgS8eqUgeLuE/sY7pHx6l2DqKN5H1QIGtQoiWm8Ing5rcXxsKYUciAaIBFroA24sUN6o7McKIf6eNcJZYYU4+tMA+zNUDXpzB8vLpYAWnbuILFwQrkBglPhkkg1O9V05qBCOIEUG4EM38Uc7sMT+orTMZ8bD4b/hrp855pKwTln0gBoEz8EeMeW5cW9JtX3kI31m4E7LxsZ4PU9U/DcOra3OKVvQSxI4NeYn33qs9q41mPG1L5x3iBxWv+Cdi//fBi1DoXanCo6vGeeuAzRR1ItZ9/px3wfpqy+iMikeEKUY176M3/ealU+qbxAzME4nvHAmlLEAUsecDNwU9RidlU7BRLsgqGFsXEfJRSBW4E4WBXRT3gp1FSq1lbi1BH9mFNBVHPZz6lwCLHScejLL+COSWcR1biXY9xff1wtXjT5MU/HWHcitATWqyn1HNDA9ZDHdBNklA+NSyRakG9fXSG2IvsEX3YrDYX31HNnDbCVVGdDAl4FUHhNEwCymRjbMsxPRaPgeHHHcb0Nyas6T5X/p5jOehfTRbw31nMTDHFH4DpNqeeABq6HPJ4+slicALWR+aBIv4VUokGHzhZW4jTK05P6C6qrauhEr2BdPz6+t+jfapm21pPMPq3IlyOjBiWrHRG8ND4xRlhFjAP+E1wgtyOKiUSV+RK4S+opIhW3vD2mgesRPwmsiw6JGnlY5TuQRH/YUoOg9I4qMoH66Gn9EHtbEHccae7WYDg+3HNSH/OhpLf5IaAU5zSOGzoZY3UayY7prQY556NX7GuKzUlTOxgGjcPuY+SmXV3GngMauPb8cX32Uhh5juwV9SyigL0f0vY/NS1KFZlTPpRicbTUDm2y3EWQZByTdpbGI1Cf7dOK7Za+fEgRxrtFHcIPeT19lh/dXC0+bY0XpqHtC0OKRJl2zHDL3qTKaeAmxbb2F3Fsy/xQgwqjY1tK25XIWKFyxOcY8LZxvURhAsBha0Uo/3PMs1oD3tv3xH6PuasugcGJ49tEiB8OWo0nY5pIZWmmlZljXRlw/zUE6NM90v2nIZHe6LLkgAauB+8Bp1AoaaQEXfRJjdgKaauiBZjiMUcHqcqojhEEzCVFg1EyxPBaxtvOPtydimxtg6CfDmPWmF4dVWb6ND+NgHs51uXY+JS++cbHxlqP3veGAxq4HvDx3MGFgqlgSAx5o7RVxdUyzSrHl8l6GXGqhWNIeiolSmMxRv0mpKaMTkr0epbnfY4HIKXxzVwH82Ex4RydTfiROR/qcp+C9jEs5vJ6u3Mc0MDtHP8EpQsNN3LM+M/t9Ub2RVW112KqqLQ12EB13s2xXrj+ruPLEpJmtPJ+CePUeNZhN+2yDKd8GGTPGF0r1UHsLoU/877WFK9TAHImC1Cp1tZr9X7iHNDATZxn7a7geHEQXlASQ/Re342XV2FJpicVXQmTlbayUarjx/TOEzchTNANcSg9sX8PcQ2kLSVhZ+lsOJgwEyVjjK1Eh4zdrcAtQcO8Zwbga/KeA5qrneTpsUjvIuctOWf7GeY0mafYSlMxb9oZw5K5vmIMWGdhrOo0D8trRiHq5+soy3G1F0R1nR5S8mNlrpPxuZ9UtQjGG5P+Cx+MUq6NoslzDmjgdoKlVFsZYC4B+c7+JnEAycStRDWahiEmJbcjWmX/BYntRKxlMKT8nceVCSZRj0ccz16AsSb9jp2IUNsCgxqnsJzoDIyxhyv8kolXfry40BiJkrlES1wndiZ1XgM3KbZFLzoKYz2uFiChswbJyisViaMmIGMErbIK7bJd6w9vqhYXL90Tc2Zod9KyQ1WVEUSck1UR26L/83VH9XRsl9cTcLe+X2GsZEADkx1xjMvABNVHg9NCkgcMkOAqCrRoa/KWA5qlneAnpY40NtEveVN1s7GwlrXK07FYF8d8dkRpuwApUJlH+Ztv7bcrGjvHfMzMrsEgeCtx6ohzr4wHdqKDiBV+Cilh/4wIpn9iTnb5XmepfxyGCDJBgLl+WtVlFkjeMYMoVONh8zV6O3EOaOAmzrPYFYdgfR+pJnMdH04BqYTVaMx9OkXNEDTSqLUEy388B+u0ExEYBCj9ic1GL/bpHBiRVJE/1jrZX66W8Af4HFPSrj7QKN6Dyu9EnLeW6XjMZXci1I8fMXyHDOI0mQaumUPebGvgdoKP9A7q2SpJt9e1wFOqo18yx7d8ybksph0txIJbZpr11r6Yymk+bt2mR9WZSJt6OYLhSWxlDKzONyJSx0k1Z/kPoSJzoS+Ob0n8+KyGyr+1NXDAOKj4NxLBESrg0jDFj5jMp8XpsngRSIpq9SGXHNDAdckoVTGqqlKSbkfoHteftRJfcLpE2sGWqiod9c3EJS+vX3nAfCjuNsfPTKPKcEKqxnMw7mXUkRNRpWVWDkpcMzGr4yZYh+2I2gat6aqPAz2oZKaP4SU5WuLaMTLJcxq4STKOgOVqd1wDiEQpU68ALi3PDsJWrKtoVob+MbroL1vrHHvILnCce+u43sa6ulzMyw29urNB0D3TGnZI7YEr19sR1V+Occ0quizPNYckK3ICdp8seYX+TZQDGriJcqy1PF9HvpNOryWtzioXQXOzK+AiqSKOE7+zcr/Y7QAiXkupTuf+n51Y5krCUapyORGpIpvb34P2dtWrI5vM5fjBUOGSY1z5MaBU1jNCZq55s62BmyQfORViNro0YGwXinRUlVlG9XKbm7UbT3LV+OvfcacyU/qpLL3mtrjNqKXntteJZ5AmVkWUlnRhVDmSmMuzLdWUEC3krT4YxkfL6eNmrlNvu+OABq47PnUoRRWZEkdSlSFl5F7bb1+83E7OQzIcru2qti0CgONQBqx7RXTL5Orz0vKrqpf3Q/BqykwOaOAm+Vw4jjMvH8IMGNJQZa6Sai6K2tJBgMSOaOi5bVWFsdC1XTk35zYh3czjmG7yYqHsEL4qCiWj3fBBY9/NU0m8jAZu4jxL6ApOi9jDErmJHfyIKfdo/OJi150hqsgvIBDgScTOOhE1CifDEp1FOESwEnMtwyZnEK3jilky6yV6P0EOaOAmyDBZnNKW0ylyHFgCfVhlhNkP32VZRl5r/XUTI8txJ6dtHk1SZSa86BH1mw3Vjv3hCIBztE6+1eSBSqLSGBdsHdiz3x2hbeWA3k+UAxq4iXLMVJ6J4BpaxSkTuhUpkEsppxBKplqEOMEh26IszHliukWqLMGyTLzfzXDHXLK5VnwMVdmJaKHmagzmMbz1GlqNo+P6jrBk5BAuN2gHppakhdlah95PngMauMnzzpjrrGkdwDJHcrFiwpYpTDk9Ygfe45Ht0Q0RIlw9gCqzXX3WuqgZvLijASqy2opsLc/II6q7drQNDid00bT2gywgL6S3FMfSMszPrj59LjEOaOAmxq92pbfBQ0g61NMnt1hhPqbEpZSze3n5oo+Fm6Ib4piZK+f9zuIiGe9aAut9uDA+sLEq5s0Ur6w8TmeOwxVZLuR5/n4CCc4PkpWi0jon5phCHjkZ56x16H1nDmjgOvMoboltkH4y9pQGJs5rqpwtPjrY5AgaJmJzS7RC37O+SjBw3YkY2L8E4+K1lc4qsqzraARFjIT7pB3xY6SKPba6eG6GD7R0f7SrT59LjAMauInxq13pjfA+ovGJxFgDZsPopZC6K/Y2KVO1miu7EkngMLR0RVSZt2HsePvqynZTUtaLKe1f3RmN/LGei7fPONuTEAAvVd145dbhQ6BK9s4YYLp5kug2ybG1DDiIV5c+njgH7D+rideXVVcwvxIlymkACKN0GKNKa6wMz5PM4Jq4n8OF0C6YfjAk9rdGlRoLhMnr7H4pxagy01h1JjJHqky37BsXHDPPN9vVyXNnIbsFs1HaEWNu+adyHGHWi96tH69VUNGlRmJXnz6XOAc0cBPnWbsrmDliH6TusNxcI1VLX6QkZZpSMxE4/9hWb2RH5BgwHjHn8u/hHCEzSMQrJ49zjMmFt/jnBY3Dh+e8IYXKFQvM9TO9zmetYYDm4/RLHo2xurSu0wdbGu/M5fR25zkQ/y3qfN1ZUcPbWJ2dzhEkhtQdC1WRc7pW+it8g508pBgmuGhiX+uladmnz/FFSOHKAHw7opGNS4fSh9pKlNSDsZoDp5GoHr8JgEvjnbWs3u8cBzRwO8c/I1cTDTVSHf0CJNbAHh0VGeaj+jdA7mSoYd7i7x/jLvVqJ7seu5xAuwxZKJkw3Wls+/LnDeID3IvKqeQc5FLu3yP6Si3HvTLxHEYRmlLAAQ3cTjKVnkOvY6wppS6lzjAEmVundPn+/gwqrXX8q2r+pyeUiW/GSQKnKt+ZY+wns0DeMLrUmH+1q4tjWkYUqZw4mEKHjiQylQ9T7+xXTBfZ1a/PueeABq57XsUt+RqAux1TQyQapy4ZVqx0YKCx5llE+qiMOtbKf3NKH6yLW2Y97Ok+Je2FUI/vxoeCFnEn4uJeHLeqrMRMncOMjiQa7TgO1mqyE0eTP6+BmzzvYlfSBfFlOO/ToZ50CZakZGpSlcvg/647KHYA5E4aJOeDb0USOC5+7QZUsc643BgIK/YtY3qJ+04uN1KtOl3GMS1zU22ANdlKXGrkPENNjnpbPYFynD+m84em1HBAA9cjvj6B9KaftlpaOe3DsSotzFYiyOevrnAtjbjC+xvnDfRU+jK4nxkgKdHpteVEHA78Fuv9voQ5YW5bieNj5riCADe8qZ6BViE/Ytayet8bDmjgesNHY9z3CnI4HWhdN+jrGKNyiRCVJxVTxjysyPUUryucXhmtyJ0cr7zTcaq6dP7f06ohOJX/C8a1T8PPWWUVZ0bJSzE0kEuS/An3xphfFcCd2tHn3XNAA9c9rxxLPoSVCNbDvZEqIkP1rj+q1FixTnXhD7BqwDvI7OhGnQwjWv1fcOLwkqiuq9ReaxtcMvR+SFvmqLISDVtMyH5MWVTacpzP/MxOieas9ej9xDmggZs4z+JewekPhs5RmpHOxdTQl2H8UTldcFrowqW7BQ1WCu2zXRuUXrRce0ns4wZIRjt6B6C9bVVl3LZ5b5z3lffH8Tv9p918jOza1eecOaCB68yjhEo8jpSqnK+l5Zj+yz+EgSneYtD09f3Sa7uNhbDtGuEU0mp4aHlJuxFI/DGkaLyPBqXxTzB99QrGtaoyXD/o+qNLjUXP2C+W4zKbbr2+vLyXbKxLA9fjp85g9zvWVIp1rZKHEUN3YbqFCcRpvLES1covvLLbWD3Aeo77lF70zvJaijG4nZZfht1Z6S20x8ySTFKnAi3XQbp1XC9j/VveEy3Ov1hXhbWTOtZlrVvve8MBDVxv+NiulvWInOGLLFXm8QiU//mJfeLmlmLupgnP7xS//KiqXT3cIXBe29V+pYEOhZI8wNUXGOgviV5Of0Y+qqvf3m9Mb6k+FjS23YhppPMx/cPkeDR0/fTDg8bHReVNJevWv95yQAPXW37GansS00OPfVobCzbntA6DCJgSRkV0mbwBUm7q63uM9XtkGcMwBWeGVBBDA6WBitM3P/mwUlzz9j5jPSFVe5yXnoulTri0JzUJflQe2lQj/grJzGVUNKWPA+q3KH3t+7YlvtR3Y4xIdZNxsSS+8PMBXukWaBy0/KPEO+7vO2LSl6o0Y19TQQQrA+z5kfnSa3vEnWviu2RSJb72yFJxo8k18lksj/Kbj6uU6nYq+qvrbONA27Br8Zbo29V2Tm95wAFOCz1yWl/Ds0g68DPtzA+RJ5lzvnZMHws3xAuHFoofQxVNFVH15UugcmOUbTLb47cxtfUdGKOYj4rEpOrMffW+iyU5ZT36t5McmDEihtfYhtDA7SRX41/OjBCPIFyPkUMSvLTCTntjn6MTBB+QHbjjt+rNGS4T+j+IVroG0laq+UwTezu8v5jLSjUO9qZlXUsHDpiAq1XlDtzx/gA9jqa/uVf8ESqpDP87G/OfS6cMdMw20ZWgpcRnfPBNMEYRtOzLM1CPb3rvgHgXklaD1vt3xW2NbcANiGVuL9LlEucAF4z+1vL9GBNWx/yUmS3i5XMGiO9CBVUtnpV4K95cQV/mS+HL/ChU/KnwQ6b1mMN0Lr59M0BLq7mmruVAG3Aj4vWu7Yr/W+c48ha8+NdgukXG7xIk947vI5aeO1AwEL2riZFID5xaLhZOKDfia6mq0z3y++g3x+VerDnU1ffYLdu3CNY24Ia1xE3HA6V6ySCD01/YacS2ynV1TulbIF46e4D4w+n9EGmT2yEQP5V94wIMDEO8HQtj/+OsAWLW4SWGrzWl7GqMY+eu2C/uwxyzKqtjKvul6zZxwCJYO+ZYMZXVm6njABPKnfPybvFVqKLMeCENP1cgIP2LsCS/ibxOP4PvLzM5porokslxLIFKv+MhSOrOwAESE+D9bmONeBDqMed79Xg2ypdM+d/6mFq7s2TLUlggJmVK57KlH4zfvQfqMoPRmUHDTHSQ4Fq2zCjBIAbV6gHm8k7btBIPR1K7U/sViCtGlIgzBhS0Cz2kIW0Z2mLCdbapKUM4YLIos0ftgfvIlkkiKJZmSFezqhuUdFw4jA4aM7GqARe7kw8HGqvhxFEBKfgBgg1o2WVUEYPyGczANWpZJmJarJar5bEOjqH5YWCSc46hJwKwXMu3BGliKXFJvJbWbk7z3AvAvrc/GiRhnNT/MoEDC8SMEfPNHZHvRtuxxVtYYF7bAb2Vbg6MQuQNs0pw3peSseNDivaIluqdSLTOpOPRBbQJQayqALDS8aMP/voBtPxVEbBqJABgLikGy69EfLBeWU/FqS491gG07I36ndAqc5c+Kflg6NV0RGmu4bU0BdKyHAAsNknKRDtJY1M9rGF7EdL3NmJtuTI91eE6IFiPYRPlZprKW1Rk2araOBUSCwQ92/R4V/Ip7b+UnZw+op8yp484l8oUqEdAGh8BqzNX0xvbG4tzYZveWNbFsekfXQXHf047McSQ9TASiEYxhvOp0tCk/SZ1g/YcCIvJ8QqoJa4srdVmyYmM/uX4mIEL/CVFJWvE1v84WlL/z0gOcM6WwnPWiGXx+mcPXF4VBS+35vGfJs0BzYEUccAFYGXLzsCVJfnbBmKOjs8wn+rSba3Sdyn7u13jFi+kLu0/HSuk85ONhLX2MTHgWq/OlH09jZUpT6I79ENppe0OHTf3UT1PYC7RHbYT+FJ1h9vRfUwhB6R0S2ET6ajaH8AlpzJJ/UnHk9NtJMcBn3zk/QNcWuE0aQ7Yc8A374g/xrjyYWnHEckJ/WvlADWy6SMmWw93133/SFw+AS11u+t7mPp+W8LiUt9galvwl8Qlr7SFObVvTPes3ReWZDPr/SVxeWdR44NvxjLmh6W3k+KA70BLLvhP4spnq901JSey+deXoOUD9S9weXcavORCtpJvQcsH6m/gyldWA1hywv+/Cfj7dmdmZAdw5RMigOljrX2bJUf88Sudbxwiavxxs9G7yC7gmp9cVApLLmROwIS5j3o7PgeSdM6PX6E+ozmgOaA5oDmgOaA5oDlg5cD/A+qplueDZ5IZAAAAAElFTkSuQmCC;" parent="1" vertex="1">
          <mxGeometry x="585" y="200" width="110" height="65" as="geometry" />
        </mxCell>
        <mxCell id="2x6z2sCF0aa3ZfLK6q7P-50" style="edgeStyle=orthogonalEdgeStyle;rounded=0;orthogonalLoop=1;jettySize=auto;html=1;entryX=0.5;entryY=1;entryDx=0;entryDy=0;" parent="1" source="2x6z2sCF0aa3ZfLK6q7P-48" target="2x6z2sCF0aa3ZfLK6q7P-47" edge="1">
          <mxGeometry relative="1" as="geometry" />
        </mxCell>
        <mxCell id="2x6z2sCF0aa3ZfLK6q7P-48" value="stock-pa" style="shape=image;verticalLabelPosition=bottom;verticalAlign=top;imageAspect=0;image=data:image/png,iVBORw0KGgoAAAANSUhEUgAAAO4AAACECAYAAACXgRceAAAAAXNSR0IArs4c6QAAAIRlWElmTU0AKgAAAAgABQESAAMAAAABAAEAAAEaAAUAAAABAAAASgEbAAUAAAABAAAAUgEoAAMAAAABAAIAAIdpAAQAAAABAAAAWgAAAAAAAAFKAAAAAQAAAUoAAAABAAOgAQADAAAAAQABAACgAgAEAAAAAQAAAO6gAwAEAAAAAQAAAIQAAAAAyiTvzQAAAAlwSFlzAAAywAAAMsABKGRa2wAAIsdJREFUeAHtXQmYFNW1vt2zMQsDw7CDIKKoILiigs8nuKDGxKgRoxLZkhDFaGJc8mL8BKKJMcnTxJcYg4qCMYkao1mMu2A0IriACIggEllkZ4bZt+5+/189t6em5nZVdU91T0/1Pd8307XcuvfWqfrrnHvuOecKoUlzQHOg23Eg0O163M07PGfOnLyWlpZ+gUCg4eGHH67A7US6wy1dddVVxQWBgpGhSKgskhPhe7Ortrb206eeeqqpO/Tfb30M+u2GMv1+GhoaSkVYXB5piVwxffr0I+bOnVuS4X0OXHnllWU5OTlnhgKhB0RQvIJPzVJ8eG4pLy/vneF99233cn17Zxl6Y/n5+bnhlvDYsAhPDwaCO+tr61fNnjn7XwDES7m5uesXLlzYnCldnz179mAREl9EX78CsJ4cEREN1Ax5OBq4XfcgqO0MARiGRCKRCwCQBU3hprUAyxPhcPglAHxrRUVFPVRRAjkt6vTUqVNz+vXrV1hXVzcCEvWr6Mc0tD0Mf1ozAxMyiTRw0/w0ANJmwGB3IBRoAWgl/zlmLAQ8x4dD4fHYrm1uav6kuLh41cyZM98PhoPvNoYa1z3++ONVXnd3/vz5wa1btw5Ev8YHIoEJdbV1E9DGOOzHla4BEWhB2T3Nzc0tXvdH1+eOA9o45Y5PXpYKTJs2rSckKgFyUyQcOQO/BLDyWRAkONeAv12Qgi/miJzFJbUla+958p4G7CcliQnWPXv2FNXX15+M+r8ByToJ9ZfhLx9/SukKIEeCwWAjevkyPjr3osfvLlq0qAblk+oDrtPUCQ4oX5ZO1KcvTYADN9xwQyHU4ZOAiSsAoMm4dCT+8uyqMIAcEGsgrf8OIL0Cqbfqscceq7W7pvVcYO7UucX1JfUnQlpOQZsXAoSjiUeHa6vxgViPdl+NBCJP79q1a93zzz/f6HCNPp1iDmjgppjBbqrH2DIfavFgAJGAuhpS+HgX11HSVQSCgQ8ArDuGDRv2BiSpUnXF8Vyow6dDsi6AfDwG11ENtn32qPMgyv4dYF0C7WDVxo0bK5ctW6as30VfdRGPOWD78DxuS1fnggNQo0sBlPMB4KsAnBMh6fqaxsLxaggDaI8BissBznbgwvG8oAhODEfCX8PFds87hLYqANSNKP9cbiT3iYWLF26O16A+3rUcsHuQXduzLG+dAC4IFowKB8JnAW5TwY6x+OMY1GuqR/2rUOmz+HsDwN+0ZMmSA9jWY1evOe1hfRq4HjIzRVUFoErn9ezZ82SAajrGp5MhgftDOha5kMTWLhGM9HSqgSTejuv/BseKJ6uqqj7CtFPIWljvZy4HNHAz99koe3b11Vf3h/fVaAD4aIDvaIBvFGTjMEjNQVCvS3EsZmzCPoFK49IWlKPauwGH1uZF8tY1Rho3uzRqKfuhD3YtBzRw08R/SM1CSM3TIDVnQVo2BHOC927evHlDZww+dJgYOHBgbmVlZW5eXl4wWB8saspr6gUjVxH+Io2Njftxe1UwfLXAet0yZsyYFhiqwgnecgD+1bktDS0nYaJoDryoDsGH4DPU8SZ+X4S3195M8vZK8N66bXEN3NQ/ugCcKIYDrPMh7WggymltshK/L8Aq/DTU1bcffPDBHQBCxowr+VEA4A8JRoKnRYKRr8DSPRn9tTplVEHS/xPHF8GgtkwDuPXJpuFHAzfFTAYASkqKS14EaOlwYeU3gdqAo58BtP8AgBc99NBDH6W4S7bV0zkDU0dj0d9vAKzno/Bg/PXAn7Xv5noOQoO4o7q6+pd6rGxmS+q27R5G6lrNoppnzZr1cwDgJpe3XAsArwBEngmGgisbw43bioqK9qVSkuHDkl9YWNgPH43hkVDkVLR/MdqnUwjB6ppwXRhaxdcXPbroUdcX6YJJc0ADN2nWOV84Y8aMkXihP4TxqNC5dLsStPBSld4BMGwI5ARWAkjLWRfcDKvblUxi57rrriutqak5HgauCRiz0kd5FIxXQ1BVL/zFjFtJVF3R3NI8Dj7V25O4Vl+SAAekk3sCl+iibjmQF8y7HIHnhQCF20tkOY6Dy/mHa8dBEl5GRRWSu3bWzFmf4PhqgI0fhE/DwfB2SMuKQFMgFMmPhOECGYGhKhAKhQI4novfvgD8UMQAH4brOBd8XHVV9Sj85st+yV8c6xShnTKMdWejkh91qiJ9sSMHNHAdWZR8AYD2HEjK5CswXxmtphj1HYvDxxpgo76E46GWUBPkZLNoEc2I8Q0hwigHwM7F8QKUyPOsD+b+KLbZDryupuCUBq6CP14e0sD1kpsd66KESwfRo4p/BqULqLI98y++GhPN+3o7NRwIpqZaXSs5AAD1yTZOQF3WdpM0PHQN3DQwWTehOeA1BzRwveaork9zIA0c0MBNA5N1E5oDXnNAA9drjur6NAfSwAEN3DQwWTehOeA1BzRwveaork9zIA0c0MBNA5N1E5oDXnNAA9drjur6NAfSwAEN3DQwWTehOeA1B7Lb5fGRLZO8Zqi5vl0fLDbvZs92ivkaY+SsEcti21m2kV3uaXyhgmISIm3OgHP+pCx71n6+3QWIflomsgjI2QFcAjZHzNNg9TN2Y/e2QMwYMT+259MN/wN3yZalGrA+fXvj35bvwetf4GopG/+1zpYzYTHZr+qzP4EbHcsuzZb3U9+nLQd8KX39OR0UFBq0tu9yVp2cJ/gh9xn5D7gc02rSHDBzwIcfcn+pyou3zMfzmmd+Zn7c5kPLCwZET6zDV5IXEEU5AYFd/AZFPtLMVTQhd2MEiwThX3VzRFQ1h0VjCAeymQKYLpo+YrJfWOA34Pr67SzODYghRbmiX4+gOAS/R/bKEyN75hrHgF8xtDhX9MkPitUVTaIZoCWAPz7YLD7C37bakNjXGBI760PiII77mlHx0OkjY5V/PKei0jbeI+uWx/lVLYA0/e8BPcRXDy3GbwGAmSMI4Hwcj/fVPQPlzUSQEsh1LRGANyze398onvhPrVi2q8EAd9aAmHP5ApLXBxTv2Xe/W1uMBel8QvnQe88c2ENcMLRIfGV4kRhUKJcb8vYGP4f0fWFHvfjbtjrx1t5Gsbch5G0DmVjbjBG+eOd9cROG1dAHBohCSNHJAOx9J5eLYcU5xjjW+u5TctZjvMq/XQAe1eCNVUipjDX4qArXYEw7oiTXkMj9CoJibFm+GI59joN74I8S3PzQ+bVrQZ2fVLeIBzZWiz9uqRX7UQ8O+ZN8oi6bn6G7B5WJpnX6H3dzo9TcI3uK2Yf3FCeWx9Ijx54HMfTOvkbx0uf14r0DTWIjwLqjdawaK2SzQdV6IKT2iJI8cUKffHHWoB7ilH4FoheMW2ai/epjfAQe21wjfv9pjdhe50MJTCNVSCww33eXbyfhY+0OuNoLKSXPlpbgo2Fguv+UcmMca24Ew1EYlFrE81Bl71l/UGyGRPSShsK4Ne2wYmPsfDgMXLRQm+ltqM53rT0oXsbHgtJdU4o5wA9KRLzu1s/aHrgasCl7WrlA7b0nlYkrR5SIPlBpzUT193vvHhArAZ4DsACnivjwSwDY4yGFrx7VU1w8rMhQp2V7nEb682d14hfrDhoquTyuf1POAUdvr/jAzZI50ZQ/AkUDoyFl/w/j2EkYz1LqSvqwskn8ZM1B8SdYfNNNGPoKWqOvP7rUGGeXmiTwcnxAfvRBpXgNVmjODWtKCwdswWt6bUyd0aA1McPbzUuHF4t7x/fB3GtOzEhEg9NtqyvF/RuqRA115C4kGrAoeb9/TC8xDoYt+YLsgcV5Hvr4OIxX1ZDEmtLAARunkY7zDBq0KXsiVEcJ2gEwFElAUJpdsmyPoZKmUCt2fU/8bqytbDYMYQTxkaV5hiW6OBcWwIHRZX7XQ5Wv7eIPjOsb6t4FDxUXfzcgnv3VMuttyPen7biP5kPbbqprtzgve+PoUnEzpFgZPJtIlLIPbaoRN793IGNBUIB+XwNr9w3o+yHwyuLLQjsVjWW/+qhK7PCj1dl4Ohn2TzGF1V7iRqXtpAzrdrfvzrxje4vvjW4DbSNAe+2KA+JuWG0bMthiy66thJcVjWV0r6S7Jcfkp/brYcwxr8WYvArzxppSzIGgOFQ886vF5lbamzO7+Vyo+cYyYZsGn28fVSq+BRW5d6ukpf/w9Df3icWYK+0Ohh7aouhddct7FeLNPY2GxOV9XYf74rxzX4tFPBP47rs+MD+axX+iDbiWE767+S64oWmHlYibx5QiKCCq2NDwdNnre8VfttYaqnK8Lh0GT6ejIOHSRcOgBnM+GX4acYl+zdeu2G/4N1PGUvL+YGwvzAWXxD5KcS/WJzznQBtwo95HnjeQrRVybpTjWjk2pCV2zvJ94o09DYZ7ooovBM43jugp1l80RDwysW+7qSJVeS+O0atqxsgS8eqUgeLuE/sY7pHx6l2DqKN5H1QIGtQoiWm8Ing5rcXxsKYUciAaIBFroA24sUN6o7McKIf6eNcJZYYU4+tMA+zNUDXpzB8vLpYAWnbuILFwQrkBglPhkkg1O9V05qBCOIEUG4EM38Uc7sMT+orTMZ8bD4b/hrp855pKwTln0gBoEz8EeMeW5cW9JtX3kI31m4E7LxsZ4PU9U/DcOra3OKVvQSxI4NeYn33qs9q41mPG1L5x3iBxWv+Cdi//fBi1DoXanCo6vGeeuAzRR1ItZ9/px3wfpqy+iMikeEKUY176M3/ealU+qbxAzME4nvHAmlLEAUsecDNwU9RidlU7BRLsgqGFsXEfJRSBW4E4WBXRT3gp1FSq1lbi1BH9mFNBVHPZz6lwCLHScejLL+COSWcR1biXY9xff1wtXjT5MU/HWHcitATWqyn1HNDA9ZDHdBNklA+NSyRakG9fXSG2IvsEX3YrDYX31HNnDbCVVGdDAl4FUHhNEwCymRjbMsxPRaPgeHHHcb0Nyas6T5X/p5jOehfTRbw31nMTDHFH4DpNqeeABq6HPJ4+slicALWR+aBIv4VUokGHzhZW4jTK05P6C6qrauhEr2BdPz6+t+jfapm21pPMPq3IlyOjBiWrHRG8ND4xRlhFjAP+E1wgtyOKiUSV+RK4S+opIhW3vD2mgesRPwmsiw6JGnlY5TuQRH/YUoOg9I4qMoH66Gn9EHtbEHccae7WYDg+3HNSH/OhpLf5IaAU5zSOGzoZY3UayY7prQY556NX7GuKzUlTOxgGjcPuY+SmXV3GngMauPb8cX32Uhh5juwV9SyigL0f0vY/NS1KFZlTPpRicbTUDm2y3EWQZByTdpbGI1Cf7dOK7Za+fEgRxrtFHcIPeT19lh/dXC0+bY0XpqHtC0OKRJl2zHDL3qTKaeAmxbb2F3Fsy/xQgwqjY1tK25XIWKFyxOcY8LZxvURhAsBha0Uo/3PMs1oD3tv3xH6PuasugcGJ49tEiB8OWo0nY5pIZWmmlZljXRlw/zUE6NM90v2nIZHe6LLkgAauB+8Bp1AoaaQEXfRJjdgKaauiBZjiMUcHqcqojhEEzCVFg1EyxPBaxtvOPtydimxtg6CfDmPWmF4dVWb6ND+NgHs51uXY+JS++cbHxlqP3veGAxq4HvDx3MGFgqlgSAx5o7RVxdUyzSrHl8l6GXGqhWNIeiolSmMxRv0mpKaMTkr0epbnfY4HIKXxzVwH82Ex4RydTfiROR/qcp+C9jEs5vJ6u3Mc0MDtHP8EpQsNN3LM+M/t9Ub2RVW112KqqLQ12EB13s2xXrj+ruPLEpJmtPJ+CePUeNZhN+2yDKd8GGTPGF0r1UHsLoU/877WFK9TAHImC1Cp1tZr9X7iHNDATZxn7a7geHEQXlASQ/Re342XV2FJpicVXQmTlbayUarjx/TOEzchTNANcSg9sX8PcQ2kLSVhZ+lsOJgwEyVjjK1Eh4zdrcAtQcO8Zwbga/KeA5qrneTpsUjvIuctOWf7GeY0mafYSlMxb9oZw5K5vmIMWGdhrOo0D8trRiHq5+soy3G1F0R1nR5S8mNlrpPxuZ9UtQjGG5P+Cx+MUq6NoslzDmjgdoKlVFsZYC4B+c7+JnEAycStRDWahiEmJbcjWmX/BYntRKxlMKT8nceVCSZRj0ccz16AsSb9jp2IUNsCgxqnsJzoDIyxhyv8kolXfry40BiJkrlES1wndiZ1XgM3KbZFLzoKYz2uFiChswbJyisViaMmIGMErbIK7bJd6w9vqhYXL90Tc2Zod9KyQ1WVEUSck1UR26L/83VH9XRsl9cTcLe+X2GsZEADkx1xjMvABNVHg9NCkgcMkOAqCrRoa/KWA5qlneAnpY40NtEveVN1s7GwlrXK07FYF8d8dkRpuwApUJlH+Ztv7bcrGjvHfMzMrsEgeCtx6ohzr4wHdqKDiBV+Cilh/4wIpn9iTnb5XmepfxyGCDJBgLl+WtVlFkjeMYMoVONh8zV6O3EOaOAmzrPYFYdgfR+pJnMdH04BqYTVaMx9OkXNEDTSqLUEy388B+u0ExEYBCj9ic1GL/bpHBiRVJE/1jrZX66W8Af4HFPSrj7QKN6Dyu9EnLeW6XjMZXci1I8fMXyHDOI0mQaumUPebGvgdoKP9A7q2SpJt9e1wFOqo18yx7d8ybksph0txIJbZpr11r6Yymk+bt2mR9WZSJt6OYLhSWxlDKzONyJSx0k1Z/kPoSJzoS+Ob0n8+KyGyr+1NXDAOKj4NxLBESrg0jDFj5jMp8XpsngRSIpq9SGXHNDAdckoVTGqqlKSbkfoHteftRJfcLpE2sGWqiod9c3EJS+vX3nAfCjuNsfPTKPKcEKqxnMw7mXUkRNRpWVWDkpcMzGr4yZYh+2I2gat6aqPAz2oZKaP4SU5WuLaMTLJcxq4STKOgOVqd1wDiEQpU68ALi3PDsJWrKtoVob+MbroL1vrHHvILnCce+u43sa6ulzMyw29urNB0D3TGnZI7YEr19sR1V+Occ0quizPNYckK3ICdp8seYX+TZQDGriJcqy1PF9HvpNOryWtzioXQXOzK+AiqSKOE7+zcr/Y7QAiXkupTuf+n51Y5krCUapyORGpIpvb34P2dtWrI5vM5fjBUOGSY1z5MaBU1jNCZq55s62BmyQfORViNro0YGwXinRUlVlG9XKbm7UbT3LV+OvfcacyU/qpLL3mtrjNqKXntteJZ5AmVkWUlnRhVDmSmMuzLdWUEC3krT4YxkfL6eNmrlNvu+OABq47PnUoRRWZEkdSlSFl5F7bb1+83E7OQzIcru2qti0CgONQBqx7RXTL5Orz0vKrqpf3Q/BqykwOaOAm+Vw4jjMvH8IMGNJQZa6Sai6K2tJBgMSOaOi5bVWFsdC1XTk35zYh3czjmG7yYqHsEL4qCiWj3fBBY9/NU0m8jAZu4jxL6ApOi9jDErmJHfyIKfdo/OJi150hqsgvIBDgScTOOhE1CifDEp1FOESwEnMtwyZnEK3jilky6yV6P0EOaOAmyDBZnNKW0ylyHFgCfVhlhNkP32VZRl5r/XUTI8txJ6dtHk1SZSa86BH1mw3Vjv3hCIBztE6+1eSBSqLSGBdsHdiz3x2hbeWA3k+UAxq4iXLMVJ6J4BpaxSkTuhUpkEsppxBKplqEOMEh26IszHliukWqLMGyTLzfzXDHXLK5VnwMVdmJaKHmagzmMbz1GlqNo+P6jrBk5BAuN2gHppakhdlah95PngMauMnzzpjrrGkdwDJHcrFiwpYpTDk9Ygfe45Ht0Q0RIlw9gCqzXX3WuqgZvLijASqy2opsLc/II6q7drQNDid00bT2gywgL6S3FMfSMszPrj59LjEOaOAmxq92pbfBQ0g61NMnt1hhPqbEpZSze3n5oo+Fm6Ib4piZK+f9zuIiGe9aAut9uDA+sLEq5s0Ur6w8TmeOwxVZLuR5/n4CCc4PkpWi0jon5phCHjkZ56x16H1nDmjgOvMoboltkH4y9pQGJs5rqpwtPjrY5AgaJmJzS7RC37O+SjBw3YkY2L8E4+K1lc4qsqzraARFjIT7pB3xY6SKPba6eG6GD7R0f7SrT59LjAMauInxq13pjfA+ovGJxFgDZsPopZC6K/Y2KVO1miu7EkngMLR0RVSZt2HsePvqynZTUtaLKe1f3RmN/LGei7fPONuTEAAvVd145dbhQ6BK9s4YYLp5kug2ybG1DDiIV5c+njgH7D+rideXVVcwvxIlymkACKN0GKNKa6wMz5PM4Jq4n8OF0C6YfjAk9rdGlRoLhMnr7H4pxagy01h1JjJHqky37BsXHDPPN9vVyXNnIbsFs1HaEWNu+adyHGHWi96tH69VUNGlRmJXnz6XOAc0cBPnWbsrmDliH6TusNxcI1VLX6QkZZpSMxE4/9hWb2RH5BgwHjHn8u/hHCEzSMQrJ49zjMmFt/jnBY3Dh+e8IYXKFQvM9TO9zmetYYDm4/RLHo2xurSu0wdbGu/M5fR25zkQ/y3qfN1ZUcPbWJ2dzhEkhtQdC1WRc7pW+it8g508pBgmuGhiX+uladmnz/FFSOHKAHw7opGNS4fSh9pKlNSDsZoDp5GoHr8JgEvjnbWs3u8cBzRwO8c/I1cTDTVSHf0CJNbAHh0VGeaj+jdA7mSoYd7i7x/jLvVqJ7seu5xAuwxZKJkw3Wls+/LnDeID3IvKqeQc5FLu3yP6Si3HvTLxHEYRmlLAAQ3cTjKVnkOvY6wppS6lzjAEmVundPn+/gwqrXX8q2r+pyeUiW/GSQKnKt+ZY+wns0DeMLrUmH+1q4tjWkYUqZw4mEKHjiQylQ9T7+xXTBfZ1a/PueeABq57XsUt+RqAux1TQyQapy4ZVqx0YKCx5llE+qiMOtbKf3NKH6yLW2Y97Ok+Je2FUI/vxoeCFnEn4uJeHLeqrMRMncOMjiQa7TgO1mqyE0eTP6+BmzzvYlfSBfFlOO/ToZ50CZakZGpSlcvg/647KHYA5E4aJOeDb0USOC5+7QZUsc643BgIK/YtY3qJ+04uN1KtOl3GMS1zU22ANdlKXGrkPENNjnpbPYFynD+m84em1HBAA9cjvj6B9KaftlpaOe3DsSotzFYiyOevrnAtjbjC+xvnDfRU+jK4nxkgKdHpteVEHA78Fuv9voQ5YW5bieNj5riCADe8qZ6BViE/Ytayet8bDmjgesNHY9z3CnI4HWhdN+jrGKNyiRCVJxVTxjysyPUUryucXhmtyJ0cr7zTcaq6dP7f06ohOJX/C8a1T8PPWWUVZ0bJSzE0kEuS/An3xphfFcCd2tHn3XNAA9c9rxxLPoSVCNbDvZEqIkP1rj+q1FixTnXhD7BqwDvI7OhGnQwjWv1fcOLwkqiuq9ReaxtcMvR+SFvmqLISDVtMyH5MWVTacpzP/MxOieas9ej9xDmggZs4z+JewekPhs5RmpHOxdTQl2H8UTldcFrowqW7BQ1WCu2zXRuUXrRce0ns4wZIRjt6B6C9bVVl3LZ5b5z3lffH8Tv9p918jOza1eecOaCB68yjhEo8jpSqnK+l5Zj+yz+EgSneYtD09f3Sa7uNhbDtGuEU0mp4aHlJuxFI/DGkaLyPBqXxTzB99QrGtaoyXD/o+qNLjUXP2C+W4zKbbr2+vLyXbKxLA9fjp85g9zvWVIp1rZKHEUN3YbqFCcRpvLES1covvLLbWD3Aeo77lF70zvJaijG4nZZfht1Z6S20x8ySTFKnAi3XQbp1XC9j/VveEy3Ov1hXhbWTOtZlrVvve8MBDVxv+NiulvWInOGLLFXm8QiU//mJfeLmlmLupgnP7xS//KiqXT3cIXBe29V+pYEOhZI8wNUXGOgviV5Of0Y+qqvf3m9Mb6k+FjS23YhppPMx/cPkeDR0/fTDg8bHReVNJevWv95yQAPXW37GansS00OPfVobCzbntA6DCJgSRkV0mbwBUm7q63uM9XtkGcMwBWeGVBBDA6WBitM3P/mwUlzz9j5jPSFVe5yXnoulTri0JzUJflQe2lQj/grJzGVUNKWPA+q3KH3t+7YlvtR3Y4xIdZNxsSS+8PMBXukWaBy0/KPEO+7vO2LSl6o0Y19TQQQrA+z5kfnSa3vEnWviu2RSJb72yFJxo8k18lksj/Kbj6uU6nYq+qvrbONA27Br8Zbo29V2Tm95wAFOCz1yWl/Ds0g68DPtzA+RJ5lzvnZMHws3xAuHFoofQxVNFVH15UugcmOUbTLb47cxtfUdGKOYj4rEpOrMffW+iyU5ZT36t5McmDEihtfYhtDA7SRX41/OjBCPIFyPkUMSvLTCTntjn6MTBB+QHbjjt+rNGS4T+j+IVroG0laq+UwTezu8v5jLSjUO9qZlXUsHDpiAq1XlDtzx/gA9jqa/uVf8ESqpDP87G/OfS6cMdMw20ZWgpcRnfPBNMEYRtOzLM1CPb3rvgHgXklaD1vt3xW2NbcANiGVuL9LlEucAF4z+1vL9GBNWx/yUmS3i5XMGiO9CBVUtnpV4K95cQV/mS+HL/ChU/KnwQ6b1mMN0Lr59M0BLq7mmruVAG3Aj4vWu7Yr/W+c48ha8+NdgukXG7xIk947vI5aeO1AwEL2riZFID5xaLhZOKDfia6mq0z3y++g3x+VerDnU1ffYLdu3CNY24Ia1xE3HA6V6ySCD01/YacS2ynV1TulbIF46e4D4w+n9EGmT2yEQP5V94wIMDEO8HQtj/+OsAWLW4SWGrzWl7GqMY+eu2C/uwxyzKqtjKvul6zZxwCJYO+ZYMZXVm6njABPKnfPybvFVqKLMeCENP1cgIP2LsCS/ibxOP4PvLzM5porokslxLIFKv+MhSOrOwAESE+D9bmONeBDqMed79Xg2ypdM+d/6mFq7s2TLUlggJmVK57KlH4zfvQfqMoPRmUHDTHSQ4Fq2zCjBIAbV6gHm8k7btBIPR1K7U/sViCtGlIgzBhS0Cz2kIW0Z2mLCdbapKUM4YLIos0ftgfvIlkkiKJZmSFezqhuUdFw4jA4aM7GqARe7kw8HGqvhxFEBKfgBgg1o2WVUEYPyGczANWpZJmJarJar5bEOjqH5YWCSc46hJwKwXMu3BGliKXFJvJbWbk7z3AvAvrc/GiRhnNT/MoEDC8SMEfPNHZHvRtuxxVtYYF7bAb2Vbg6MQuQNs0pw3peSseNDivaIluqdSLTOpOPRBbQJQayqALDS8aMP/voBtPxVEbBqJABgLikGy69EfLBeWU/FqS491gG07I36ndAqc5c+Kflg6NV0RGmu4bU0BdKyHAAsNknKRDtJY1M9rGF7EdL3NmJtuTI91eE6IFiPYRPlZprKW1Rk2araOBUSCwQ92/R4V/Ip7b+UnZw+op8yp484l8oUqEdAGh8BqzNX0xvbG4tzYZveWNbFsekfXQXHf047McSQ9TASiEYxhvOp0tCk/SZ1g/YcCIvJ8QqoJa4srdVmyYmM/uX4mIEL/CVFJWvE1v84WlL/z0gOcM6WwnPWiGXx+mcPXF4VBS+35vGfJs0BzYEUccAFYGXLzsCVJfnbBmKOjs8wn+rSba3Sdyn7u13jFi+kLu0/HSuk85ONhLX2MTHgWq/OlH09jZUpT6I79ENppe0OHTf3UT1PYC7RHbYT+FJ1h9vRfUwhB6R0S2ET6ajaH8AlpzJJ/UnHk9NtJMcBn3zk/QNcWuE0aQ7Yc8A374g/xrjyYWnHEckJ/WvlADWy6SMmWw93133/SFw+AS11u+t7mPp+W8LiUt9galvwl8Qlr7SFObVvTPes3ReWZDPr/SVxeWdR44NvxjLmh6W3k+KA70BLLvhP4spnq901JSey+deXoOUD9S9weXcavORCtpJvQcsH6m/gyldWA1hywv+/Cfj7dmdmZAdw5RMigOljrX2bJUf88Sudbxwiavxxs9G7yC7gmp9cVApLLmROwIS5j3o7PgeSdM6PX6E+ozmgOaA5oDmgOaA5oDlg5cD/A+qplueDZ5IZAAAAAElFTkSuQmCC;" parent="1" vertex="1">
          <mxGeometry x="585" y="342" width="110" height="65" as="geometry" />
        </mxCell>
        <mxCell id="2x6z2sCF0aa3ZfLK6q7P-52" value="SKU Rebooking" style="rounded=0;whiteSpace=wrap;html=1;" parent="1" vertex="1">
          <mxGeometry x="320" y="525" width="120" height="60" as="geometry" />
        </mxCell>
        <mxCell id="2x6z2sCF0aa3ZfLK6q7P-53" style="edgeStyle=orthogonalEdgeStyle;rounded=0;orthogonalLoop=1;jettySize=auto;html=1;entryX=0;entryY=0.5;entryDx=0;entryDy=0;" parent="1" source="2x6z2sCF0aa3ZfLK6q7P-54" target="2x6z2sCF0aa3ZfLK6q7P-56" edge="1">
          <mxGeometry relative="1" as="geometry" />
        </mxCell>
        <mxCell id="2x6z2sCF0aa3ZfLK6q7P-54" value="smart-trigger" style="verticalLabelPosition=bottom;html=1;verticalAlign=top;align=center;strokeColor=none;fillColor=#00BEF2;shape=mxgraph.azure.scheduler;pointerEvents=1;" parent="1" vertex="1">
          <mxGeometry x="60" y="627.5" width="40" height="50" as="geometry" />
        </mxCell>
        <mxCell id="2x6z2sCF0aa3ZfLK6q7P-55" style="edgeStyle=orthogonalEdgeStyle;rounded=0;orthogonalLoop=1;jettySize=auto;html=1;" parent="1" source="2x6z2sCF0aa3ZfLK6q7P-56" target="2x6z2sCF0aa3ZfLK6q7P-68" edge="1">
          <mxGeometry relative="1" as="geometry">
            <mxPoint x="598" y="652.5" as="targetPoint" />
          </mxGeometry>
        </mxCell>
        <mxCell id="2x6z2sCF0aa3ZfLK6q7P-56" value="smart-portal-sa" style="shape=image;verticalLabelPosition=bottom;verticalAlign=top;imageAspect=0;image=data:image/png,iVBORw0KGgoAAAANSUhEUgAAAO4AAACECAYAAACXgRceAAAAAXNSR0IArs4c6QAAAIRlWElmTU0AKgAAAAgABQESAAMAAAABAAEAAAEaAAUAAAABAAAASgEbAAUAAAABAAAAUgEoAAMAAAABAAIAAIdpAAQAAAABAAAAWgAAAAAAAAFKAAAAAQAAAUoAAAABAAOgAQADAAAAAQABAACgAgAEAAAAAQAAAO6gAwAEAAAAAQAAAIQAAAAAyiTvzQAAAAlwSFlzAAAywAAAMsABKGRa2wAAIsdJREFUeAHtXQmYFNW1vt2zMQsDw7CDIKKoILiigs8nuKDGxKgRoxLZkhDFaGJc8mL8BKKJMcnTxJcYg4qCMYkao1mMu2A0IriACIggEllkZ4bZt+5+/189t6em5nZVdU91T0/1Pd8307XcuvfWqfrrnHvuOecKoUlzQHOg23Eg0O163M07PGfOnLyWlpZ+gUCg4eGHH67A7US6wy1dddVVxQWBgpGhSKgskhPhe7Ortrb206eeeqqpO/Tfb30M+u2GMv1+GhoaSkVYXB5piVwxffr0I+bOnVuS4X0OXHnllWU5OTlnhgKhB0RQvIJPzVJ8eG4pLy/vneF99233cn17Zxl6Y/n5+bnhlvDYsAhPDwaCO+tr61fNnjn7XwDES7m5uesXLlzYnCldnz179mAREl9EX78CsJ4cEREN1Ax5OBq4XfcgqO0MARiGRCKRCwCQBU3hprUAyxPhcPglAHxrRUVFPVRRAjkt6vTUqVNz+vXrV1hXVzcCEvWr6Mc0tD0Mf1ozAxMyiTRw0/w0ANJmwGB3IBRoAWgl/zlmLAQ8x4dD4fHYrm1uav6kuLh41cyZM98PhoPvNoYa1z3++ONVXnd3/vz5wa1btw5Ev8YHIoEJdbV1E9DGOOzHla4BEWhB2T3Nzc0tXvdH1+eOA9o45Y5PXpYKTJs2rSckKgFyUyQcOQO/BLDyWRAkONeAv12Qgi/miJzFJbUla+958p4G7CcliQnWPXv2FNXX15+M+r8ByToJ9ZfhLx9/SukKIEeCwWAjevkyPjr3osfvLlq0qAblk+oDrtPUCQ4oX5ZO1KcvTYADN9xwQyHU4ZOAiSsAoMm4dCT+8uyqMIAcEGsgrf8OIL0Cqbfqscceq7W7pvVcYO7UucX1JfUnQlpOQZsXAoSjiUeHa6vxgViPdl+NBCJP79q1a93zzz/f6HCNPp1iDmjgppjBbqrH2DIfavFgAJGAuhpS+HgX11HSVQSCgQ8ArDuGDRv2BiSpUnXF8Vyow6dDsi6AfDwG11ENtn32qPMgyv4dYF0C7WDVxo0bK5ctW6as30VfdRGPOWD78DxuS1fnggNQo0sBlPMB4KsAnBMh6fqaxsLxaggDaI8BissBznbgwvG8oAhODEfCX8PFds87hLYqANSNKP9cbiT3iYWLF26O16A+3rUcsHuQXduzLG+dAC4IFowKB8JnAW5TwY6x+OMY1GuqR/2rUOmz+HsDwN+0ZMmSA9jWY1evOe1hfRq4HjIzRVUFoErn9ezZ82SAajrGp5MhgftDOha5kMTWLhGM9HSqgSTejuv/BseKJ6uqqj7CtFPIWljvZy4HNHAz99koe3b11Vf3h/fVaAD4aIDvaIBvFGTjMEjNQVCvS3EsZmzCPoFK49IWlKPauwGH1uZF8tY1Rho3uzRqKfuhD3YtBzRw08R/SM1CSM3TIDVnQVo2BHOC927evHlDZww+dJgYOHBgbmVlZW5eXl4wWB8saspr6gUjVxH+Io2Njftxe1UwfLXAet0yZsyYFhiqwgnecgD+1bktDS0nYaJoDryoDsGH4DPU8SZ+X4S3195M8vZK8N66bXEN3NQ/ugCcKIYDrPMh7WggymltshK/L8Aq/DTU1bcffPDBHQBCxowr+VEA4A8JRoKnRYKRr8DSPRn9tTplVEHS/xPHF8GgtkwDuPXJpuFHAzfFTAYASkqKS14EaOlwYeU3gdqAo58BtP8AgBc99NBDH6W4S7bV0zkDU0dj0d9vAKzno/Bg/PXAn7Xv5noOQoO4o7q6+pd6rGxmS+q27R5G6lrNoppnzZr1cwDgJpe3XAsArwBEngmGgisbw43bioqK9qVSkuHDkl9YWNgPH43hkVDkVLR/MdqnUwjB6ppwXRhaxdcXPbroUdcX6YJJc0ADN2nWOV84Y8aMkXihP4TxqNC5dLsStPBSld4BMGwI5ARWAkjLWRfcDKvblUxi57rrriutqak5HgauCRiz0kd5FIxXQ1BVL/zFjFtJVF3R3NI8Dj7V25O4Vl+SAAekk3sCl+iibjmQF8y7HIHnhQCF20tkOY6Dy/mHa8dBEl5GRRWSu3bWzFmf4PhqgI0fhE/DwfB2SMuKQFMgFMmPhOECGYGhKhAKhQI4novfvgD8UMQAH4brOBd8XHVV9Sj85st+yV8c6xShnTKMdWejkh91qiJ9sSMHNHAdWZR8AYD2HEjK5CswXxmtphj1HYvDxxpgo76E46GWUBPkZLNoEc2I8Q0hwigHwM7F8QKUyPOsD+b+KLbZDryupuCUBq6CP14e0sD1kpsd66KESwfRo4p/BqULqLI98y++GhPN+3o7NRwIpqZaXSs5AAD1yTZOQF3WdpM0PHQN3DQwWTehOeA1BzRwveaork9zIA0c0MBNA5N1E5oDXnNAA9drjur6NAfSwAEN3DQwWTehOeA1BzRwveaork9zIA0c0MBNA5N1E5oDXnNAA9drjur6NAfSwAEN3DQwWTehOeA1B7Lb5fGRLZO8Zqi5vl0fLDbvZs92ivkaY+SsEcti21m2kV3uaXyhgmISIm3OgHP+pCx71n6+3QWIflomsgjI2QFcAjZHzNNg9TN2Y/e2QMwYMT+259MN/wN3yZalGrA+fXvj35bvwetf4GopG/+1zpYzYTHZr+qzP4EbHcsuzZb3U9+nLQd8KX39OR0UFBq0tu9yVp2cJ/gh9xn5D7gc02rSHDBzwIcfcn+pyou3zMfzmmd+Zn7c5kPLCwZET6zDV5IXEEU5AYFd/AZFPtLMVTQhd2MEiwThX3VzRFQ1h0VjCAeymQKYLpo+YrJfWOA34Pr67SzODYghRbmiX4+gOAS/R/bKEyN75hrHgF8xtDhX9MkPitUVTaIZoCWAPz7YLD7C37bakNjXGBI760PiII77mlHx0OkjY5V/PKei0jbeI+uWx/lVLYA0/e8BPcRXDy3GbwGAmSMI4Hwcj/fVPQPlzUSQEsh1LRGANyze398onvhPrVi2q8EAd9aAmHP5ApLXBxTv2Xe/W1uMBel8QvnQe88c2ENcMLRIfGV4kRhUKJcb8vYGP4f0fWFHvfjbtjrx1t5Gsbch5G0DmVjbjBG+eOd9cROG1dAHBohCSNHJAOx9J5eLYcU5xjjW+u5TctZjvMq/XQAe1eCNVUipjDX4qArXYEw7oiTXkMj9CoJibFm+GI59joN74I8S3PzQ+bVrQZ2fVLeIBzZWiz9uqRX7UQ8O+ZN8oi6bn6G7B5WJpnX6H3dzo9TcI3uK2Yf3FCeWx9Ijx54HMfTOvkbx0uf14r0DTWIjwLqjdawaK2SzQdV6IKT2iJI8cUKffHHWoB7ilH4FoheMW2ai/epjfAQe21wjfv9pjdhe50MJTCNVSCww33eXbyfhY+0OuNoLKSXPlpbgo2Fguv+UcmMca24Ew1EYlFrE81Bl71l/UGyGRPSShsK4Ne2wYmPsfDgMXLRQm+ltqM53rT0oXsbHgtJdU4o5wA9KRLzu1s/aHrgasCl7WrlA7b0nlYkrR5SIPlBpzUT193vvHhArAZ4DsACnivjwSwDY4yGFrx7VU1w8rMhQp2V7nEb682d14hfrDhoquTyuf1POAUdvr/jAzZI50ZQ/AkUDoyFl/w/j2EkYz1LqSvqwskn8ZM1B8SdYfNNNGPoKWqOvP7rUGGeXmiTwcnxAfvRBpXgNVmjODWtKCwdswWt6bUyd0aA1McPbzUuHF4t7x/fB3GtOzEhEg9NtqyvF/RuqRA115C4kGrAoeb9/TC8xDoYt+YLsgcV5Hvr4OIxX1ZDEmtLAARunkY7zDBq0KXsiVEcJ2gEwFElAUJpdsmyPoZKmUCt2fU/8bqytbDYMYQTxkaV5hiW6OBcWwIHRZX7XQ5Wv7eIPjOsb6t4FDxUXfzcgnv3VMuttyPen7biP5kPbbqprtzgve+PoUnEzpFgZPJtIlLIPbaoRN793IGNBUIB+XwNr9w3o+yHwyuLLQjsVjWW/+qhK7PCj1dl4Ohn2TzGF1V7iRqXtpAzrdrfvzrxje4vvjW4DbSNAe+2KA+JuWG0bMthiy66thJcVjWV0r6S7Jcfkp/brYcwxr8WYvArzxppSzIGgOFQ886vF5lbamzO7+Vyo+cYyYZsGn28fVSq+BRW5d6ukpf/w9Df3icWYK+0Ohh7aouhddct7FeLNPY2GxOV9XYf74rxzX4tFPBP47rs+MD+axX+iDbiWE767+S64oWmHlYibx5QiKCCq2NDwdNnre8VfttYaqnK8Lh0GT6ejIOHSRcOgBnM+GX4acYl+zdeu2G/4N1PGUvL+YGwvzAWXxD5KcS/WJzznQBtwo95HnjeQrRVybpTjWjk2pCV2zvJ94o09DYZ7ooovBM43jugp1l80RDwysW+7qSJVeS+O0atqxsgS8eqUgeLuE/sY7pHx6l2DqKN5H1QIGtQoiWm8Ing5rcXxsKYUciAaIBFroA24sUN6o7McKIf6eNcJZYYU4+tMA+zNUDXpzB8vLpYAWnbuILFwQrkBglPhkkg1O9V05qBCOIEUG4EM38Uc7sMT+orTMZ8bD4b/hrp855pKwTln0gBoEz8EeMeW5cW9JtX3kI31m4E7LxsZ4PU9U/DcOra3OKVvQSxI4NeYn33qs9q41mPG1L5x3iBxWv+Cdi//fBi1DoXanCo6vGeeuAzRR1ItZ9/px3wfpqy+iMikeEKUY176M3/ealU+qbxAzME4nvHAmlLEAUsecDNwU9RidlU7BRLsgqGFsXEfJRSBW4E4WBXRT3gp1FSq1lbi1BH9mFNBVHPZz6lwCLHScejLL+COSWcR1biXY9xff1wtXjT5MU/HWHcitATWqyn1HNDA9ZDHdBNklA+NSyRakG9fXSG2IvsEX3YrDYX31HNnDbCVVGdDAl4FUHhNEwCymRjbMsxPRaPgeHHHcb0Nyas6T5X/p5jOehfTRbw31nMTDHFH4DpNqeeABq6HPJ4+slicALWR+aBIv4VUokGHzhZW4jTK05P6C6qrauhEr2BdPz6+t+jfapm21pPMPq3IlyOjBiWrHRG8ND4xRlhFjAP+E1wgtyOKiUSV+RK4S+opIhW3vD2mgesRPwmsiw6JGnlY5TuQRH/YUoOg9I4qMoH66Gn9EHtbEHccae7WYDg+3HNSH/OhpLf5IaAU5zSOGzoZY3UayY7prQY556NX7GuKzUlTOxgGjcPuY+SmXV3GngMauPb8cX32Uhh5juwV9SyigL0f0vY/NS1KFZlTPpRicbTUDm2y3EWQZByTdpbGI1Cf7dOK7Za+fEgRxrtFHcIPeT19lh/dXC0+bY0XpqHtC0OKRJl2zHDL3qTKaeAmxbb2F3Fsy/xQgwqjY1tK25XIWKFyxOcY8LZxvURhAsBha0Uo/3PMs1oD3tv3xH6PuasugcGJ49tEiB8OWo0nY5pIZWmmlZljXRlw/zUE6NM90v2nIZHe6LLkgAauB+8Bp1AoaaQEXfRJjdgKaauiBZjiMUcHqcqojhEEzCVFg1EyxPBaxtvOPtydimxtg6CfDmPWmF4dVWb6ND+NgHs51uXY+JS++cbHxlqP3veGAxq4HvDx3MGFgqlgSAx5o7RVxdUyzSrHl8l6GXGqhWNIeiolSmMxRv0mpKaMTkr0epbnfY4HIKXxzVwH82Ex4RydTfiROR/qcp+C9jEs5vJ6u3Mc0MDtHP8EpQsNN3LM+M/t9Ub2RVW112KqqLQ12EB13s2xXrj+ruPLEpJmtPJ+CePUeNZhN+2yDKd8GGTPGF0r1UHsLoU/877WFK9TAHImC1Cp1tZr9X7iHNDATZxn7a7geHEQXlASQ/Re342XV2FJpicVXQmTlbayUarjx/TOEzchTNANcSg9sX8PcQ2kLSVhZ+lsOJgwEyVjjK1Eh4zdrcAtQcO8Zwbga/KeA5qrneTpsUjvIuctOWf7GeY0mafYSlMxb9oZw5K5vmIMWGdhrOo0D8trRiHq5+soy3G1F0R1nR5S8mNlrpPxuZ9UtQjGG5P+Cx+MUq6NoslzDmjgdoKlVFsZYC4B+c7+JnEAycStRDWahiEmJbcjWmX/BYntRKxlMKT8nceVCSZRj0ccz16AsSb9jp2IUNsCgxqnsJzoDIyxhyv8kolXfry40BiJkrlES1wndiZ1XgM3KbZFLzoKYz2uFiChswbJyisViaMmIGMErbIK7bJd6w9vqhYXL90Tc2Zod9KyQ1WVEUSck1UR26L/83VH9XRsl9cTcLe+X2GsZEADkx1xjMvABNVHg9NCkgcMkOAqCrRoa/KWA5qlneAnpY40NtEveVN1s7GwlrXK07FYF8d8dkRpuwApUJlH+Ztv7bcrGjvHfMzMrsEgeCtx6ohzr4wHdqKDiBV+Cilh/4wIpn9iTnb5XmepfxyGCDJBgLl+WtVlFkjeMYMoVONh8zV6O3EOaOAmzrPYFYdgfR+pJnMdH04BqYTVaMx9OkXNEDTSqLUEy388B+u0ExEYBCj9ic1GL/bpHBiRVJE/1jrZX66W8Af4HFPSrj7QKN6Dyu9EnLeW6XjMZXci1I8fMXyHDOI0mQaumUPebGvgdoKP9A7q2SpJt9e1wFOqo18yx7d8ybksph0txIJbZpr11r6Yymk+bt2mR9WZSJt6OYLhSWxlDKzONyJSx0k1Z/kPoSJzoS+Ob0n8+KyGyr+1NXDAOKj4NxLBESrg0jDFj5jMp8XpsngRSIpq9SGXHNDAdckoVTGqqlKSbkfoHteftRJfcLpE2sGWqiod9c3EJS+vX3nAfCjuNsfPTKPKcEKqxnMw7mXUkRNRpWVWDkpcMzGr4yZYh+2I2gat6aqPAz2oZKaP4SU5WuLaMTLJcxq4STKOgOVqd1wDiEQpU68ALi3PDsJWrKtoVob+MbroL1vrHHvILnCce+u43sa6ulzMyw29urNB0D3TGnZI7YEr19sR1V+Occ0quizPNYckK3ICdp8seYX+TZQDGriJcqy1PF9HvpNOryWtzioXQXOzK+AiqSKOE7+zcr/Y7QAiXkupTuf+n51Y5krCUapyORGpIpvb34P2dtWrI5vM5fjBUOGSY1z5MaBU1jNCZq55s62BmyQfORViNro0YGwXinRUlVlG9XKbm7UbT3LV+OvfcacyU/qpLL3mtrjNqKXntteJZ5AmVkWUlnRhVDmSmMuzLdWUEC3krT4YxkfL6eNmrlNvu+OABq47PnUoRRWZEkdSlSFl5F7bb1+83E7OQzIcru2qti0CgONQBqx7RXTL5Orz0vKrqpf3Q/BqykwOaOAm+Vw4jjMvH8IMGNJQZa6Sai6K2tJBgMSOaOi5bVWFsdC1XTk35zYh3czjmG7yYqHsEL4qCiWj3fBBY9/NU0m8jAZu4jxL6ApOi9jDErmJHfyIKfdo/OJi150hqsgvIBDgScTOOhE1CifDEp1FOESwEnMtwyZnEK3jilky6yV6P0EOaOAmyDBZnNKW0ylyHFgCfVhlhNkP32VZRl5r/XUTI8txJ6dtHk1SZSa86BH1mw3Vjv3hCIBztE6+1eSBSqLSGBdsHdiz3x2hbeWA3k+UAxq4iXLMVJ6J4BpaxSkTuhUpkEsppxBKplqEOMEh26IszHliukWqLMGyTLzfzXDHXLK5VnwMVdmJaKHmagzmMbz1GlqNo+P6jrBk5BAuN2gHppakhdlah95PngMauMnzzpjrrGkdwDJHcrFiwpYpTDk9Ygfe45Ht0Q0RIlw9gCqzXX3WuqgZvLijASqy2opsLc/II6q7drQNDid00bT2gywgL6S3FMfSMszPrj59LjEOaOAmxq92pbfBQ0g61NMnt1hhPqbEpZSze3n5oo+Fm6Ib4piZK+f9zuIiGe9aAut9uDA+sLEq5s0Ur6w8TmeOwxVZLuR5/n4CCc4PkpWi0jon5phCHjkZ56x16H1nDmjgOvMoboltkH4y9pQGJs5rqpwtPjrY5AgaJmJzS7RC37O+SjBw3YkY2L8E4+K1lc4qsqzraARFjIT7pB3xY6SKPba6eG6GD7R0f7SrT59LjAMauInxq13pjfA+ovGJxFgDZsPopZC6K/Y2KVO1miu7EkngMLR0RVSZt2HsePvqynZTUtaLKe1f3RmN/LGei7fPONuTEAAvVd145dbhQ6BK9s4YYLp5kug2ybG1DDiIV5c+njgH7D+rideXVVcwvxIlymkACKN0GKNKa6wMz5PM4Jq4n8OF0C6YfjAk9rdGlRoLhMnr7H4pxagy01h1JjJHqky37BsXHDPPN9vVyXNnIbsFs1HaEWNu+adyHGHWi96tH69VUNGlRmJXnz6XOAc0cBPnWbsrmDliH6TusNxcI1VLX6QkZZpSMxE4/9hWb2RH5BgwHjHn8u/hHCEzSMQrJ49zjMmFt/jnBY3Dh+e8IYXKFQvM9TO9zmetYYDm4/RLHo2xurSu0wdbGu/M5fR25zkQ/y3qfN1ZUcPbWJ2dzhEkhtQdC1WRc7pW+it8g508pBgmuGhiX+uladmnz/FFSOHKAHw7opGNS4fSh9pKlNSDsZoDp5GoHr8JgEvjnbWs3u8cBzRwO8c/I1cTDTVSHf0CJNbAHh0VGeaj+jdA7mSoYd7i7x/jLvVqJ7seu5xAuwxZKJkw3Wls+/LnDeID3IvKqeQc5FLu3yP6Si3HvTLxHEYRmlLAAQ3cTjKVnkOvY6wppS6lzjAEmVundPn+/gwqrXX8q2r+pyeUiW/GSQKnKt+ZY+wns0DeMLrUmH+1q4tjWkYUqZw4mEKHjiQylQ9T7+xXTBfZ1a/PueeABq57XsUt+RqAux1TQyQapy4ZVqx0YKCx5llE+qiMOtbKf3NKH6yLW2Y97Ok+Je2FUI/vxoeCFnEn4uJeHLeqrMRMncOMjiQa7TgO1mqyE0eTP6+BmzzvYlfSBfFlOO/ToZ50CZakZGpSlcvg/647KHYA5E4aJOeDb0USOC5+7QZUsc643BgIK/YtY3qJ+04uN1KtOl3GMS1zU22ANdlKXGrkPENNjnpbPYFynD+m84em1HBAA9cjvj6B9KaftlpaOe3DsSotzFYiyOevrnAtjbjC+xvnDfRU+jK4nxkgKdHpteVEHA78Fuv9voQ5YW5bieNj5riCADe8qZ6BViE/Ytayet8bDmjgesNHY9z3CnI4HWhdN+jrGKNyiRCVJxVTxjysyPUUryucXhmtyJ0cr7zTcaq6dP7f06ohOJX/C8a1T8PPWWUVZ0bJSzE0kEuS/An3xphfFcCd2tHn3XNAA9c9rxxLPoSVCNbDvZEqIkP1rj+q1FixTnXhD7BqwDvI7OhGnQwjWv1fcOLwkqiuq9ReaxtcMvR+SFvmqLISDVtMyH5MWVTacpzP/MxOieas9ej9xDmggZs4z+JewekPhs5RmpHOxdTQl2H8UTldcFrowqW7BQ1WCu2zXRuUXrRce0ns4wZIRjt6B6C9bVVl3LZ5b5z3lffH8Tv9p918jOza1eecOaCB68yjhEo8jpSqnK+l5Zj+yz+EgSneYtD09f3Sa7uNhbDtGuEU0mp4aHlJuxFI/DGkaLyPBqXxTzB99QrGtaoyXD/o+qNLjUXP2C+W4zKbbr2+vLyXbKxLA9fjp85g9zvWVIp1rZKHEUN3YbqFCcRpvLES1covvLLbWD3Aeo77lF70zvJaijG4nZZfht1Z6S20x8ySTFKnAi3XQbp1XC9j/VveEy3Ov1hXhbWTOtZlrVvve8MBDVxv+NiulvWInOGLLFXm8QiU//mJfeLmlmLupgnP7xS//KiqXT3cIXBe29V+pYEOhZI8wNUXGOgviV5Of0Y+qqvf3m9Mb6k+FjS23YhppPMx/cPkeDR0/fTDg8bHReVNJevWv95yQAPXW37GansS00OPfVobCzbntA6DCJgSRkV0mbwBUm7q63uM9XtkGcMwBWeGVBBDA6WBitM3P/mwUlzz9j5jPSFVe5yXnoulTri0JzUJflQe2lQj/grJzGVUNKWPA+q3KH3t+7YlvtR3Y4xIdZNxsSS+8PMBXukWaBy0/KPEO+7vO2LSl6o0Y19TQQQrA+z5kfnSa3vEnWviu2RSJb72yFJxo8k18lksj/Kbj6uU6nYq+qvrbONA27Br8Zbo29V2Tm95wAFOCz1yWl/Ds0g68DPtzA+RJ5lzvnZMHws3xAuHFoofQxVNFVH15UugcmOUbTLb47cxtfUdGKOYj4rEpOrMffW+iyU5ZT36t5McmDEihtfYhtDA7SRX41/OjBCPIFyPkUMSvLTCTntjn6MTBB+QHbjjt+rNGS4T+j+IVroG0laq+UwTezu8v5jLSjUO9qZlXUsHDpiAq1XlDtzx/gA9jqa/uVf8ESqpDP87G/OfS6cMdMw20ZWgpcRnfPBNMEYRtOzLM1CPb3rvgHgXklaD1vt3xW2NbcANiGVuL9LlEucAF4z+1vL9GBNWx/yUmS3i5XMGiO9CBVUtnpV4K95cQV/mS+HL/ChU/KnwQ6b1mMN0Lr59M0BLq7mmruVAG3Aj4vWu7Yr/W+c48ha8+NdgukXG7xIk947vI5aeO1AwEL2riZFID5xaLhZOKDfia6mq0z3y++g3x+VerDnU1ffYLdu3CNY24Ia1xE3HA6V6ySCD01/YacS2ynV1TulbIF46e4D4w+n9EGmT2yEQP5V94wIMDEO8HQtj/+OsAWLW4SWGrzWl7GqMY+eu2C/uwxyzKqtjKvul6zZxwCJYO+ZYMZXVm6njABPKnfPybvFVqKLMeCENP1cgIP2LsCS/ibxOP4PvLzM5porokslxLIFKv+MhSOrOwAESE+D9bmONeBDqMed79Xg2ypdM+d/6mFq7s2TLUlggJmVK57KlH4zfvQfqMoPRmUHDTHSQ4Fq2zCjBIAbV6gHm8k7btBIPR1K7U/sViCtGlIgzBhS0Cz2kIW0Z2mLCdbapKUM4YLIos0ftgfvIlkkiKJZmSFezqhuUdFw4jA4aM7GqARe7kw8HGqvhxFEBKfgBgg1o2WVUEYPyGczANWpZJmJarJar5bEOjqH5YWCSc46hJwKwXMu3BGliKXFJvJbWbk7z3AvAvrc/GiRhnNT/MoEDC8SMEfPNHZHvRtuxxVtYYF7bAb2Vbg6MQuQNs0pw3peSseNDivaIluqdSLTOpOPRBbQJQayqALDS8aMP/voBtPxVEbBqJABgLikGy69EfLBeWU/FqS491gG07I36ndAqc5c+Kflg6NV0RGmu4bU0BdKyHAAsNknKRDtJY1M9rGF7EdL3NmJtuTI91eE6IFiPYRPlZprKW1Rk2araOBUSCwQ92/R4V/Ip7b+UnZw+op8yp484l8oUqEdAGh8BqzNX0xvbG4tzYZveWNbFsekfXQXHf047McSQ9TASiEYxhvOp0tCk/SZ1g/YcCIvJ8QqoJa4srdVmyYmM/uX4mIEL/CVFJWvE1v84WlL/z0gOcM6WwnPWiGXx+mcPXF4VBS+35vGfJs0BzYEUccAFYGXLzsCVJfnbBmKOjs8wn+rSba3Sdyn7u13jFi+kLu0/HSuk85ONhLX2MTHgWq/OlH09jZUpT6I79ENppe0OHTf3UT1PYC7RHbYT+FJ1h9vRfUwhB6R0S2ET6ajaH8AlpzJJ/UnHk9NtJMcBn3zk/QNcWuE0aQ7Yc8A374g/xrjyYWnHEckJ/WvlADWy6SMmWw93133/SFw+AS11u+t7mPp+W8LiUt9galvwl8Qlr7SFObVvTPes3ReWZDPr/SVxeWdR44NvxjLmh6W3k+KA70BLLvhP4spnq901JSey+deXoOUD9S9weXcavORCtpJvQcsH6m/gyldWA1hywv+/Cfj7dmdmZAdw5RMigOljrX2bJUf88Sudbxwiavxxs9G7yC7gmp9cVApLLmROwIS5j3o7PgeSdM6PX6E+ozmgOaA5oDmgOaA5oDlg5cD/A+qplueDZ5IZAAAAAElFTkSuQmCC;" parent="1" vertex="1">
          <mxGeometry x="320" y="620" width="110" height="65" as="geometry" />
        </mxCell>
        <mxCell id="2x6z2sCF0aa3ZfLK6q7P-57" value="" style="edgeStyle=orthogonalEdgeStyle;rounded=0;orthogonalLoop=1;jettySize=auto;html=1;exitX=0.5;exitY=1;exitDx=0;exitDy=0;" parent="1" source="2x6z2sCF0aa3ZfLK6q7P-56" target="2x6z2sCF0aa3ZfLK6q7P-59" edge="1">
          <mxGeometry relative="1" as="geometry">
            <mxPoint x="350" y="962.5" as="sourcePoint" />
          </mxGeometry>
        </mxCell>
        <mxCell id="2x6z2sCF0aa3ZfLK6q7P-58" value="" style="edgeStyle=orthogonalEdgeStyle;rounded=0;orthogonalLoop=1;jettySize=auto;html=1;" parent="1" source="2x6z2sCF0aa3ZfLK6q7P-59" target="2x6z2sCF0aa3ZfLK6q7P-62" edge="1">
          <mxGeometry relative="1" as="geometry" />
        </mxCell>
        <mxCell id="2x6z2sCF0aa3ZfLK6q7P-59" value="stock-pa" style="shape=image;verticalLabelPosition=bottom;verticalAlign=top;imageAspect=0;image=data:image/png,iVBORw0KGgoAAAANSUhEUgAAAO4AAACECAYAAACXgRceAAAAAXNSR0IArs4c6QAAAIRlWElmTU0AKgAAAAgABQESAAMAAAABAAEAAAEaAAUAAAABAAAASgEbAAUAAAABAAAAUgEoAAMAAAABAAIAAIdpAAQAAAABAAAAWgAAAAAAAAFKAAAAAQAAAUoAAAABAAOgAQADAAAAAQABAACgAgAEAAAAAQAAAO6gAwAEAAAAAQAAAIQAAAAAyiTvzQAAAAlwSFlzAAAywAAAMsABKGRa2wAAIsdJREFUeAHtXQmYFNW1vt2zMQsDw7CDIKKoILiigs8nuKDGxKgRoxLZkhDFaGJc8mL8BKKJMcnTxJcYg4qCMYkao1mMu2A0IriACIggEllkZ4bZt+5+/189t6em5nZVdU91T0/1Pd8307XcuvfWqfrrnHvuOecKoUlzQHOg23Eg0O163M07PGfOnLyWlpZ+gUCg4eGHH67A7US6wy1dddVVxQWBgpGhSKgskhPhe7Ortrb206eeeqqpO/Tfb30M+u2GMv1+GhoaSkVYXB5piVwxffr0I+bOnVuS4X0OXHnllWU5OTlnhgKhB0RQvIJPzVJ8eG4pLy/vneF99233cn17Zxl6Y/n5+bnhlvDYsAhPDwaCO+tr61fNnjn7XwDES7m5uesXLlzYnCldnz179mAREl9EX78CsJ4cEREN1Ax5OBq4XfcgqO0MARiGRCKRCwCQBU3hprUAyxPhcPglAHxrRUVFPVRRAjkt6vTUqVNz+vXrV1hXVzcCEvWr6Mc0tD0Mf1ozAxMyiTRw0/w0ANJmwGB3IBRoAWgl/zlmLAQ8x4dD4fHYrm1uav6kuLh41cyZM98PhoPvNoYa1z3++ONVXnd3/vz5wa1btw5Ev8YHIoEJdbV1E9DGOOzHla4BEWhB2T3Nzc0tXvdH1+eOA9o45Y5PXpYKTJs2rSckKgFyUyQcOQO/BLDyWRAkONeAv12Qgi/miJzFJbUla+958p4G7CcliQnWPXv2FNXX15+M+r8ByToJ9ZfhLx9/SukKIEeCwWAjevkyPjr3osfvLlq0qAblk+oDrtPUCQ4oX5ZO1KcvTYADN9xwQyHU4ZOAiSsAoMm4dCT+8uyqMIAcEGsgrf8OIL0Cqbfqscceq7W7pvVcYO7UucX1JfUnQlpOQZsXAoSjiUeHa6vxgViPdl+NBCJP79q1a93zzz/f6HCNPp1iDmjgppjBbqrH2DIfavFgAJGAuhpS+HgX11HSVQSCgQ8ArDuGDRv2BiSpUnXF8Vyow6dDsi6AfDwG11ENtn32qPMgyv4dYF0C7WDVxo0bK5ctW6as30VfdRGPOWD78DxuS1fnggNQo0sBlPMB4KsAnBMh6fqaxsLxaggDaI8BissBznbgwvG8oAhODEfCX8PFds87hLYqANSNKP9cbiT3iYWLF26O16A+3rUcsHuQXduzLG+dAC4IFowKB8JnAW5TwY6x+OMY1GuqR/2rUOmz+HsDwN+0ZMmSA9jWY1evOe1hfRq4HjIzRVUFoErn9ezZ82SAajrGp5MhgftDOha5kMTWLhGM9HSqgSTejuv/BseKJ6uqqj7CtFPIWljvZy4HNHAz99koe3b11Vf3h/fVaAD4aIDvaIBvFGTjMEjNQVCvS3EsZmzCPoFK49IWlKPauwGH1uZF8tY1Rho3uzRqKfuhD3YtBzRw08R/SM1CSM3TIDVnQVo2BHOC927evHlDZww+dJgYOHBgbmVlZW5eXl4wWB8saspr6gUjVxH+Io2Njftxe1UwfLXAet0yZsyYFhiqwgnecgD+1bktDS0nYaJoDryoDsGH4DPU8SZ+X4S3195M8vZK8N66bXEN3NQ/ugCcKIYDrPMh7WggymltshK/L8Aq/DTU1bcffPDBHQBCxowr+VEA4A8JRoKnRYKRr8DSPRn9tTplVEHS/xPHF8GgtkwDuPXJpuFHAzfFTAYASkqKS14EaOlwYeU3gdqAo58BtP8AgBc99NBDH6W4S7bV0zkDU0dj0d9vAKzno/Bg/PXAn7Xv5noOQoO4o7q6+pd6rGxmS+q27R5G6lrNoppnzZr1cwDgJpe3XAsArwBEngmGgisbw43bioqK9qVSkuHDkl9YWNgPH43hkVDkVLR/MdqnUwjB6ppwXRhaxdcXPbroUdcX6YJJc0ADN2nWOV84Y8aMkXihP4TxqNC5dLsStPBSld4BMGwI5ARWAkjLWRfcDKvblUxi57rrriutqak5HgauCRiz0kd5FIxXQ1BVL/zFjFtJVF3R3NI8Dj7V25O4Vl+SAAekk3sCl+iibjmQF8y7HIHnhQCF20tkOY6Dy/mHa8dBEl5GRRWSu3bWzFmf4PhqgI0fhE/DwfB2SMuKQFMgFMmPhOECGYGhKhAKhQI4novfvgD8UMQAH4brOBd8XHVV9Sj85st+yV8c6xShnTKMdWejkh91qiJ9sSMHNHAdWZR8AYD2HEjK5CswXxmtphj1HYvDxxpgo76E46GWUBPkZLNoEc2I8Q0hwigHwM7F8QKUyPOsD+b+KLbZDryupuCUBq6CP14e0sD1kpsd66KESwfRo4p/BqULqLI98y++GhPN+3o7NRwIpqZaXSs5AAD1yTZOQF3WdpM0PHQN3DQwWTehOeA1BzRwveaork9zIA0c0MBNA5N1E5oDXnNAA9drjur6NAfSwAEN3DQwWTehOeA1BzRwveaork9zIA0c0MBNA5N1E5oDXnNAA9drjur6NAfSwAEN3DQwWTehOeA1B7Lb5fGRLZO8Zqi5vl0fLDbvZs92ivkaY+SsEcti21m2kV3uaXyhgmISIm3OgHP+pCx71n6+3QWIflomsgjI2QFcAjZHzNNg9TN2Y/e2QMwYMT+259MN/wN3yZalGrA+fXvj35bvwetf4GopG/+1zpYzYTHZr+qzP4EbHcsuzZb3U9+nLQd8KX39OR0UFBq0tu9yVp2cJ/gh9xn5D7gc02rSHDBzwIcfcn+pyou3zMfzmmd+Zn7c5kPLCwZET6zDV5IXEEU5AYFd/AZFPtLMVTQhd2MEiwThX3VzRFQ1h0VjCAeymQKYLpo+YrJfWOA34Pr67SzODYghRbmiX4+gOAS/R/bKEyN75hrHgF8xtDhX9MkPitUVTaIZoCWAPz7YLD7C37bakNjXGBI760PiII77mlHx0OkjY5V/PKei0jbeI+uWx/lVLYA0/e8BPcRXDy3GbwGAmSMI4Hwcj/fVPQPlzUSQEsh1LRGANyze398onvhPrVi2q8EAd9aAmHP5ApLXBxTv2Xe/W1uMBel8QvnQe88c2ENcMLRIfGV4kRhUKJcb8vYGP4f0fWFHvfjbtjrx1t5Gsbch5G0DmVjbjBG+eOd9cROG1dAHBohCSNHJAOx9J5eLYcU5xjjW+u5TctZjvMq/XQAe1eCNVUipjDX4qArXYEw7oiTXkMj9CoJibFm+GI59joN74I8S3PzQ+bVrQZ2fVLeIBzZWiz9uqRX7UQ8O+ZN8oi6bn6G7B5WJpnX6H3dzo9TcI3uK2Yf3FCeWx9Ijx54HMfTOvkbx0uf14r0DTWIjwLqjdawaK2SzQdV6IKT2iJI8cUKffHHWoB7ilH4FoheMW2ai/epjfAQe21wjfv9pjdhe50MJTCNVSCww33eXbyfhY+0OuNoLKSXPlpbgo2Fguv+UcmMca24Ew1EYlFrE81Bl71l/UGyGRPSShsK4Ne2wYmPsfDgMXLRQm+ltqM53rT0oXsbHgtJdU4o5wA9KRLzu1s/aHrgasCl7WrlA7b0nlYkrR5SIPlBpzUT193vvHhArAZ4DsACnivjwSwDY4yGFrx7VU1w8rMhQp2V7nEb682d14hfrDhoquTyuf1POAUdvr/jAzZI50ZQ/AkUDoyFl/w/j2EkYz1LqSvqwskn8ZM1B8SdYfNNNGPoKWqOvP7rUGGeXmiTwcnxAfvRBpXgNVmjODWtKCwdswWt6bUyd0aA1McPbzUuHF4t7x/fB3GtOzEhEg9NtqyvF/RuqRA115C4kGrAoeb9/TC8xDoYt+YLsgcV5Hvr4OIxX1ZDEmtLAARunkY7zDBq0KXsiVEcJ2gEwFElAUJpdsmyPoZKmUCt2fU/8bqytbDYMYQTxkaV5hiW6OBcWwIHRZX7XQ5Wv7eIPjOsb6t4FDxUXfzcgnv3VMuttyPen7biP5kPbbqprtzgve+PoUnEzpFgZPJtIlLIPbaoRN793IGNBUIB+XwNr9w3o+yHwyuLLQjsVjWW/+qhK7PCj1dl4Ohn2TzGF1V7iRqXtpAzrdrfvzrxje4vvjW4DbSNAe+2KA+JuWG0bMthiy66thJcVjWV0r6S7Jcfkp/brYcwxr8WYvArzxppSzIGgOFQ886vF5lbamzO7+Vyo+cYyYZsGn28fVSq+BRW5d6ukpf/w9Df3icWYK+0Ohh7aouhddct7FeLNPY2GxOV9XYf74rxzX4tFPBP47rs+MD+axX+iDbiWE767+S64oWmHlYibx5QiKCCq2NDwdNnre8VfttYaqnK8Lh0GT6ejIOHSRcOgBnM+GX4acYl+zdeu2G/4N1PGUvL+YGwvzAWXxD5KcS/WJzznQBtwo95HnjeQrRVybpTjWjk2pCV2zvJ94o09DYZ7ooovBM43jugp1l80RDwysW+7qSJVeS+O0atqxsgS8eqUgeLuE/sY7pHx6l2DqKN5H1QIGtQoiWm8Ing5rcXxsKYUciAaIBFroA24sUN6o7McKIf6eNcJZYYU4+tMA+zNUDXpzB8vLpYAWnbuILFwQrkBglPhkkg1O9V05qBCOIEUG4EM38Uc7sMT+orTMZ8bD4b/hrp855pKwTln0gBoEz8EeMeW5cW9JtX3kI31m4E7LxsZ4PU9U/DcOra3OKVvQSxI4NeYn33qs9q41mPG1L5x3iBxWv+Cdi//fBi1DoXanCo6vGeeuAzRR1ItZ9/px3wfpqy+iMikeEKUY176M3/ealU+qbxAzME4nvHAmlLEAUsecDNwU9RidlU7BRLsgqGFsXEfJRSBW4E4WBXRT3gp1FSq1lbi1BH9mFNBVHPZz6lwCLHScejLL+COSWcR1biXY9xff1wtXjT5MU/HWHcitATWqyn1HNDA9ZDHdBNklA+NSyRakG9fXSG2IvsEX3YrDYX31HNnDbCVVGdDAl4FUHhNEwCymRjbMsxPRaPgeHHHcb0Nyas6T5X/p5jOehfTRbw31nMTDHFH4DpNqeeABq6HPJ4+slicALWR+aBIv4VUokGHzhZW4jTK05P6C6qrauhEr2BdPz6+t+jfapm21pPMPq3IlyOjBiWrHRG8ND4xRlhFjAP+E1wgtyOKiUSV+RK4S+opIhW3vD2mgesRPwmsiw6JGnlY5TuQRH/YUoOg9I4qMoH66Gn9EHtbEHccae7WYDg+3HNSH/OhpLf5IaAU5zSOGzoZY3UayY7prQY556NX7GuKzUlTOxgGjcPuY+SmXV3GngMauPb8cX32Uhh5juwV9SyigL0f0vY/NS1KFZlTPpRicbTUDm2y3EWQZByTdpbGI1Cf7dOK7Za+fEgRxrtFHcIPeT19lh/dXC0+bY0XpqHtC0OKRJl2zHDL3qTKaeAmxbb2F3Fsy/xQgwqjY1tK25XIWKFyxOcY8LZxvURhAsBha0Uo/3PMs1oD3tv3xH6PuasugcGJ49tEiB8OWo0nY5pIZWmmlZljXRlw/zUE6NM90v2nIZHe6LLkgAauB+8Bp1AoaaQEXfRJjdgKaauiBZjiMUcHqcqojhEEzCVFg1EyxPBaxtvOPtydimxtg6CfDmPWmF4dVWb6ND+NgHs51uXY+JS++cbHxlqP3veGAxq4HvDx3MGFgqlgSAx5o7RVxdUyzSrHl8l6GXGqhWNIeiolSmMxRv0mpKaMTkr0epbnfY4HIKXxzVwH82Ex4RydTfiROR/qcp+C9jEs5vJ6u3Mc0MDtHP8EpQsNN3LM+M/t9Ub2RVW112KqqLQ12EB13s2xXrj+ruPLEpJmtPJ+CePUeNZhN+2yDKd8GGTPGF0r1UHsLoU/877WFK9TAHImC1Cp1tZr9X7iHNDATZxn7a7geHEQXlASQ/Re342XV2FJpicVXQmTlbayUarjx/TOEzchTNANcSg9sX8PcQ2kLSVhZ+lsOJgwEyVjjK1Eh4zdrcAtQcO8Zwbga/KeA5qrneTpsUjvIuctOWf7GeY0mafYSlMxb9oZw5K5vmIMWGdhrOo0D8trRiHq5+soy3G1F0R1nR5S8mNlrpPxuZ9UtQjGG5P+Cx+MUq6NoslzDmjgdoKlVFsZYC4B+c7+JnEAycStRDWahiEmJbcjWmX/BYntRKxlMKT8nceVCSZRj0ccz16AsSb9jp2IUNsCgxqnsJzoDIyxhyv8kolXfry40BiJkrlES1wndiZ1XgM3KbZFLzoKYz2uFiChswbJyisViaMmIGMErbIK7bJd6w9vqhYXL90Tc2Zod9KyQ1WVEUSck1UR26L/83VH9XRsl9cTcLe+X2GsZEADkx1xjMvABNVHg9NCkgcMkOAqCrRoa/KWA5qlneAnpY40NtEveVN1s7GwlrXK07FYF8d8dkRpuwApUJlH+Ztv7bcrGjvHfMzMrsEgeCtx6ohzr4wHdqKDiBV+Cilh/4wIpn9iTnb5XmepfxyGCDJBgLl+WtVlFkjeMYMoVONh8zV6O3EOaOAmzrPYFYdgfR+pJnMdH04BqYTVaMx9OkXNEDTSqLUEy388B+u0ExEYBCj9ic1GL/bpHBiRVJE/1jrZX66W8Af4HFPSrj7QKN6Dyu9EnLeW6XjMZXci1I8fMXyHDOI0mQaumUPebGvgdoKP9A7q2SpJt9e1wFOqo18yx7d8ybksph0txIJbZpr11r6Yymk+bt2mR9WZSJt6OYLhSWxlDKzONyJSx0k1Z/kPoSJzoS+Ob0n8+KyGyr+1NXDAOKj4NxLBESrg0jDFj5jMp8XpsngRSIpq9SGXHNDAdckoVTGqqlKSbkfoHteftRJfcLpE2sGWqiod9c3EJS+vX3nAfCjuNsfPTKPKcEKqxnMw7mXUkRNRpWVWDkpcMzGr4yZYh+2I2gat6aqPAz2oZKaP4SU5WuLaMTLJcxq4STKOgOVqd1wDiEQpU68ALi3PDsJWrKtoVob+MbroL1vrHHvILnCce+u43sa6ulzMyw29urNB0D3TGnZI7YEr19sR1V+Occ0quizPNYckK3ICdp8seYX+TZQDGriJcqy1PF9HvpNOryWtzioXQXOzK+AiqSKOE7+zcr/Y7QAiXkupTuf+n51Y5krCUapyORGpIpvb34P2dtWrI5vM5fjBUOGSY1z5MaBU1jNCZq55s62BmyQfORViNro0YGwXinRUlVlG9XKbm7UbT3LV+OvfcacyU/qpLL3mtrjNqKXntteJZ5AmVkWUlnRhVDmSmMuzLdWUEC3krT4YxkfL6eNmrlNvu+OABq47PnUoRRWZEkdSlSFl5F7bb1+83E7OQzIcru2qti0CgONQBqx7RXTL5Orz0vKrqpf3Q/BqykwOaOAm+Vw4jjMvH8IMGNJQZa6Sai6K2tJBgMSOaOi5bVWFsdC1XTk35zYh3czjmG7yYqHsEL4qCiWj3fBBY9/NU0m8jAZu4jxL6ApOi9jDErmJHfyIKfdo/OJi150hqsgvIBDgScTOOhE1CifDEp1FOESwEnMtwyZnEK3jilky6yV6P0EOaOAmyDBZnNKW0ylyHFgCfVhlhNkP32VZRl5r/XUTI8txJ6dtHk1SZSa86BH1mw3Vjv3hCIBztE6+1eSBSqLSGBdsHdiz3x2hbeWA3k+UAxq4iXLMVJ6J4BpaxSkTuhUpkEsppxBKplqEOMEh26IszHliukWqLMGyTLzfzXDHXLK5VnwMVdmJaKHmagzmMbz1GlqNo+P6jrBk5BAuN2gHppakhdlah95PngMauMnzzpjrrGkdwDJHcrFiwpYpTDk9Ygfe45Ht0Q0RIlw9gCqzXX3WuqgZvLijASqy2opsLc/II6q7drQNDid00bT2gywgL6S3FMfSMszPrj59LjEOaOAmxq92pbfBQ0g61NMnt1hhPqbEpZSze3n5oo+Fm6Ib4piZK+f9zuIiGe9aAut9uDA+sLEq5s0Ur6w8TmeOwxVZLuR5/n4CCc4PkpWi0jon5phCHjkZ56x16H1nDmjgOvMoboltkH4y9pQGJs5rqpwtPjrY5AgaJmJzS7RC37O+SjBw3YkY2L8E4+K1lc4qsqzraARFjIT7pB3xY6SKPba6eG6GD7R0f7SrT59LjAMauInxq13pjfA+ovGJxFgDZsPopZC6K/Y2KVO1miu7EkngMLR0RVSZt2HsePvqynZTUtaLKe1f3RmN/LGei7fPONuTEAAvVd145dbhQ6BK9s4YYLp5kug2ybG1DDiIV5c+njgH7D+rideXVVcwvxIlymkACKN0GKNKa6wMz5PM4Jq4n8OF0C6YfjAk9rdGlRoLhMnr7H4pxagy01h1JjJHqky37BsXHDPPN9vVyXNnIbsFs1HaEWNu+adyHGHWi96tH69VUNGlRmJXnz6XOAc0cBPnWbsrmDliH6TusNxcI1VLX6QkZZpSMxE4/9hWb2RH5BgwHjHn8u/hHCEzSMQrJ49zjMmFt/jnBY3Dh+e8IYXKFQvM9TO9zmetYYDm4/RLHo2xurSu0wdbGu/M5fR25zkQ/y3qfN1ZUcPbWJ2dzhEkhtQdC1WRc7pW+it8g508pBgmuGhiX+uladmnz/FFSOHKAHw7opGNS4fSh9pKlNSDsZoDp5GoHr8JgEvjnbWs3u8cBzRwO8c/I1cTDTVSHf0CJNbAHh0VGeaj+jdA7mSoYd7i7x/jLvVqJ7seu5xAuwxZKJkw3Wls+/LnDeID3IvKqeQc5FLu3yP6Si3HvTLxHEYRmlLAAQ3cTjKVnkOvY6wppS6lzjAEmVundPn+/gwqrXX8q2r+pyeUiW/GSQKnKt+ZY+wns0DeMLrUmH+1q4tjWkYUqZw4mEKHjiQylQ9T7+xXTBfZ1a/PueeABq57XsUt+RqAux1TQyQapy4ZVqx0YKCx5llE+qiMOtbKf3NKH6yLW2Y97Ok+Je2FUI/vxoeCFnEn4uJeHLeqrMRMncOMjiQa7TgO1mqyE0eTP6+BmzzvYlfSBfFlOO/ToZ50CZakZGpSlcvg/647KHYA5E4aJOeDb0USOC5+7QZUsc643BgIK/YtY3qJ+04uN1KtOl3GMS1zU22ANdlKXGrkPENNjnpbPYFynD+m84em1HBAA9cjvj6B9KaftlpaOe3DsSotzFYiyOevrnAtjbjC+xvnDfRU+jK4nxkgKdHpteVEHA78Fuv9voQ5YW5bieNj5riCADe8qZ6BViE/Ytayet8bDmjgesNHY9z3CnI4HWhdN+jrGKNyiRCVJxVTxjysyPUUryucXhmtyJ0cr7zTcaq6dP7f06ohOJX/C8a1T8PPWWUVZ0bJSzE0kEuS/An3xphfFcCd2tHn3XNAA9c9rxxLPoSVCNbDvZEqIkP1rj+q1FixTnXhD7BqwDvI7OhGnQwjWv1fcOLwkqiuq9ReaxtcMvR+SFvmqLISDVtMyH5MWVTacpzP/MxOieas9ej9xDmggZs4z+JewekPhs5RmpHOxdTQl2H8UTldcFrowqW7BQ1WCu2zXRuUXrRce0ns4wZIRjt6B6C9bVVl3LZ5b5z3lffH8Tv9p918jOza1eecOaCB68yjhEo8jpSqnK+l5Zj+yz+EgSneYtD09f3Sa7uNhbDtGuEU0mp4aHlJuxFI/DGkaLyPBqXxTzB99QrGtaoyXD/o+qNLjUXP2C+W4zKbbr2+vLyXbKxLA9fjp85g9zvWVIp1rZKHEUN3YbqFCcRpvLES1covvLLbWD3Aeo77lF70zvJaijG4nZZfht1Z6S20x8ySTFKnAi3XQbp1XC9j/VveEy3Ov1hXhbWTOtZlrVvve8MBDVxv+NiulvWInOGLLFXm8QiU//mJfeLmlmLupgnP7xS//KiqXT3cIXBe29V+pYEOhZI8wNUXGOgviV5Of0Y+qqvf3m9Mb6k+FjS23YhppPMx/cPkeDR0/fTDg8bHReVNJevWv95yQAPXW37GansS00OPfVobCzbntA6DCJgSRkV0mbwBUm7q63uM9XtkGcMwBWeGVBBDA6WBitM3P/mwUlzz9j5jPSFVe5yXnoulTri0JzUJflQe2lQj/grJzGVUNKWPA+q3KH3t+7YlvtR3Y4xIdZNxsSS+8PMBXukWaBy0/KPEO+7vO2LSl6o0Y19TQQQrA+z5kfnSa3vEnWviu2RSJb72yFJxo8k18lksj/Kbj6uU6nYq+qvrbONA27Br8Zbo29V2Tm95wAFOCz1yWl/Ds0g68DPtzA+RJ5lzvnZMHws3xAuHFoofQxVNFVH15UugcmOUbTLb47cxtfUdGKOYj4rEpOrMffW+iyU5ZT36t5McmDEihtfYhtDA7SRX41/OjBCPIFyPkUMSvLTCTntjn6MTBB+QHbjjt+rNGS4T+j+IVroG0laq+UwTezu8v5jLSjUO9qZlXUsHDpiAq1XlDtzx/gA9jqa/uVf8ESqpDP87G/OfS6cMdMw20ZWgpcRnfPBNMEYRtOzLM1CPb3rvgHgXklaD1vt3xW2NbcANiGVuL9LlEucAF4z+1vL9GBNWx/yUmS3i5XMGiO9CBVUtnpV4K95cQV/mS+HL/ChU/KnwQ6b1mMN0Lr59M0BLq7mmruVAG3Aj4vWu7Yr/W+c48ha8+NdgukXG7xIk947vI5aeO1AwEL2riZFID5xaLhZOKDfia6mq0z3y++g3x+VerDnU1ffYLdu3CNY24Ia1xE3HA6V6ySCD01/YacS2ynV1TulbIF46e4D4w+n9EGmT2yEQP5V94wIMDEO8HQtj/+OsAWLW4SWGrzWl7GqMY+eu2C/uwxyzKqtjKvul6zZxwCJYO+ZYMZXVm6njABPKnfPybvFVqKLMeCENP1cgIP2LsCS/ibxOP4PvLzM5porokslxLIFKv+MhSOrOwAESE+D9bmONeBDqMed79Xg2ypdM+d/6mFq7s2TLUlggJmVK57KlH4zfvQfqMoPRmUHDTHSQ4Fq2zCjBIAbV6gHm8k7btBIPR1K7U/sViCtGlIgzBhS0Cz2kIW0Z2mLCdbapKUM4YLIos0ftgfvIlkkiKJZmSFezqhuUdFw4jA4aM7GqARe7kw8HGqvhxFEBKfgBgg1o2WVUEYPyGczANWpZJmJarJar5bEOjqH5YWCSc46hJwKwXMu3BGliKXFJvJbWbk7z3AvAvrc/GiRhnNT/MoEDC8SMEfPNHZHvRtuxxVtYYF7bAb2Vbg6MQuQNs0pw3peSseNDivaIluqdSLTOpOPRBbQJQayqALDS8aMP/voBtPxVEbBqJABgLikGy69EfLBeWU/FqS491gG07I36ndAqc5c+Kflg6NV0RGmu4bU0BdKyHAAsNknKRDtJY1M9rGF7EdL3NmJtuTI91eE6IFiPYRPlZprKW1Rk2araOBUSCwQ92/R4V/Ip7b+UnZw+op8yp484l8oUqEdAGh8BqzNX0xvbG4tzYZveWNbFsekfXQXHf047McSQ9TASiEYxhvOp0tCk/SZ1g/YcCIvJ8QqoJa4srdVmyYmM/uX4mIEL/CVFJWvE1v84WlL/z0gOcM6WwnPWiGXx+mcPXF4VBS+35vGfJs0BzYEUccAFYGXLzsCVJfnbBmKOjs8wn+rSba3Sdyn7u13jFi+kLu0/HSuk85ONhLX2MTHgWq/OlH09jZUpT6I79ENppe0OHTf3UT1PYC7RHbYT+FJ1h9vRfUwhB6R0S2ET6ajaH8AlpzJJ/UnHk9NtJMcBn3zk/QNcWuE0aQ7Yc8A374g/xrjyYWnHEckJ/WvlADWy6SMmWw93133/SFw+AS11u+t7mPp+W8LiUt9galvwl8Qlr7SFObVvTPes3ReWZDPr/SVxeWdR44NvxjLmh6W3k+KA70BLLvhP4spnq901JSey+deXoOUD9S9weXcavORCtpJvQcsH6m/gyldWA1hywv+/Cfj7dmdmZAdw5RMigOljrX2bJUf88Sudbxwiavxxs9G7yC7gmp9cVApLLmROwIS5j3o7PgeSdM6PX6E+ozmgOaA5oDmgOaA5oDlg5cD/A+qplueDZ5IZAAAAAElFTkSuQmCC;" parent="1" vertex="1">
          <mxGeometry x="320" y="747.5" width="110" height="65" as="geometry" />
        </mxCell>
        <mxCell id="2x6z2sCF0aa3ZfLK6q7P-60" style="edgeStyle=orthogonalEdgeStyle;rounded=0;orthogonalLoop=1;jettySize=auto;html=1;entryX=1;entryY=0.5;entryDx=0;entryDy=0;" parent="1" source="2x6z2sCF0aa3ZfLK6q7P-62" target="2x6z2sCF0aa3ZfLK6q7P-63" edge="1">
          <mxGeometry relative="1" as="geometry" />
        </mxCell>
        <mxCell id="2x6z2sCF0aa3ZfLK6q7P-61" style="edgeStyle=orthogonalEdgeStyle;rounded=0;orthogonalLoop=1;jettySize=auto;html=1;entryX=0;entryY=0.5;entryDx=0;entryDy=0;" parent="1" source="2x6z2sCF0aa3ZfLK6q7P-62" target="2x6z2sCF0aa3ZfLK6q7P-67" edge="1">
          <mxGeometry relative="1" as="geometry" />
        </mxCell>
        <mxCell id="2x6z2sCF0aa3ZfLK6q7P-62" value="zalando-idc-ea" style="shape=image;verticalLabelPosition=bottom;verticalAlign=top;imageAspect=0;image=data:image/png,iVBORw0KGgoAAAANSUhEUgAAAO4AAACECAYAAACXgRceAAAAAXNSR0IArs4c6QAAAIRlWElmTU0AKgAAAAgABQESAAMAAAABAAEAAAEaAAUAAAABAAAASgEbAAUAAAABAAAAUgEoAAMAAAABAAIAAIdpAAQAAAABAAAAWgAAAAAAAAFKAAAAAQAAAUoAAAABAAOgAQADAAAAAQABAACgAgAEAAAAAQAAAO6gAwAEAAAAAQAAAIQAAAAAyiTvzQAAAAlwSFlzAAAywAAAMsABKGRa2wAAIsdJREFUeAHtXQmYFNW1vt2zMQsDw7CDIKKoILiigs8nuKDGxKgRoxLZkhDFaGJc8mL8BKKJMcnTxJcYg4qCMYkao1mMu2A0IriACIggEllkZ4bZt+5+/189t6em5nZVdU91T0/1Pd8307XcuvfWqfrrnHvuOecKoUlzQHOg23Eg0O163M07PGfOnLyWlpZ+gUCg4eGHH67A7US6wy1dddVVxQWBgpGhSKgskhPhe7Ortrb206eeeqqpO/Tfb30M+u2GMv1+GhoaSkVYXB5piVwxffr0I+bOnVuS4X0OXHnllWU5OTlnhgKhB0RQvIJPzVJ8eG4pLy/vneF99233cn17Zxl6Y/n5+bnhlvDYsAhPDwaCO+tr61fNnjn7XwDES7m5uesXLlzYnCldnz179mAREl9EX78CsJ4cEREN1Ax5OBq4XfcgqO0MARiGRCKRCwCQBU3hprUAyxPhcPglAHxrRUVFPVRRAjkt6vTUqVNz+vXrV1hXVzcCEvWr6Mc0tD0Mf1ozAxMyiTRw0/w0ANJmwGB3IBRoAWgl/zlmLAQ8x4dD4fHYrm1uav6kuLh41cyZM98PhoPvNoYa1z3++ONVXnd3/vz5wa1btw5Ev8YHIoEJdbV1E9DGOOzHla4BEWhB2T3Nzc0tXvdH1+eOA9o45Y5PXpYKTJs2rSckKgFyUyQcOQO/BLDyWRAkONeAv12Qgi/miJzFJbUla+958p4G7CcliQnWPXv2FNXX15+M+r8ByToJ9ZfhLx9/SukKIEeCwWAjevkyPjr3osfvLlq0qAblk+oDrtPUCQ4oX5ZO1KcvTYADN9xwQyHU4ZOAiSsAoMm4dCT+8uyqMIAcEGsgrf8OIL0Cqbfqscceq7W7pvVcYO7UucX1JfUnQlpOQZsXAoSjiUeHa6vxgViPdl+NBCJP79q1a93zzz/f6HCNPp1iDmjgppjBbqrH2DIfavFgAJGAuhpS+HgX11HSVQSCgQ8ArDuGDRv2BiSpUnXF8Vyow6dDsi6AfDwG11ENtn32qPMgyv4dYF0C7WDVxo0bK5ctW6as30VfdRGPOWD78DxuS1fnggNQo0sBlPMB4KsAnBMh6fqaxsLxaggDaI8BissBznbgwvG8oAhODEfCX8PFds87hLYqANSNKP9cbiT3iYWLF26O16A+3rUcsHuQXduzLG+dAC4IFowKB8JnAW5TwY6x+OMY1GuqR/2rUOmz+HsDwN+0ZMmSA9jWY1evOe1hfRq4HjIzRVUFoErn9ezZ82SAajrGp5MhgftDOha5kMTWLhGM9HSqgSTejuv/BseKJ6uqqj7CtFPIWljvZy4HNHAz99koe3b11Vf3h/fVaAD4aIDvaIBvFGTjMEjNQVCvS3EsZmzCPoFK49IWlKPauwGH1uZF8tY1Rho3uzRqKfuhD3YtBzRw08R/SM1CSM3TIDVnQVo2BHOC927evHlDZww+dJgYOHBgbmVlZW5eXl4wWB8saspr6gUjVxH+Io2Njftxe1UwfLXAet0yZsyYFhiqwgnecgD+1bktDS0nYaJoDryoDsGH4DPU8SZ+X4S3195M8vZK8N66bXEN3NQ/ugCcKIYDrPMh7WggymltshK/L8Aq/DTU1bcffPDBHQBCxowr+VEA4A8JRoKnRYKRr8DSPRn9tTplVEHS/xPHF8GgtkwDuPXJpuFHAzfFTAYASkqKS14EaOlwYeU3gdqAo58BtP8AgBc99NBDH6W4S7bV0zkDU0dj0d9vAKzno/Bg/PXAn7Xv5noOQoO4o7q6+pd6rGxmS+q27R5G6lrNoppnzZr1cwDgJpe3XAsArwBEngmGgisbw43bioqK9qVSkuHDkl9YWNgPH43hkVDkVLR/MdqnUwjB6ppwXRhaxdcXPbroUdcX6YJJc0ADN2nWOV84Y8aMkXihP4TxqNC5dLsStPBSld4BMGwI5ARWAkjLWRfcDKvblUxi57rrriutqak5HgauCRiz0kd5FIxXQ1BVL/zFjFtJVF3R3NI8Dj7V25O4Vl+SAAekk3sCl+iibjmQF8y7HIHnhQCF20tkOY6Dy/mHa8dBEl5GRRWSu3bWzFmf4PhqgI0fhE/DwfB2SMuKQFMgFMmPhOECGYGhKhAKhQI4novfvgD8UMQAH4brOBd8XHVV9Sj85st+yV8c6xShnTKMdWejkh91qiJ9sSMHNHAdWZR8AYD2HEjK5CswXxmtphj1HYvDxxpgo76E46GWUBPkZLNoEc2I8Q0hwigHwM7F8QKUyPOsD+b+KLbZDryupuCUBq6CP14e0sD1kpsd66KESwfRo4p/BqULqLI98y++GhPN+3o7NRwIpqZaXSs5AAD1yTZOQF3WdpM0PHQN3DQwWTehOeA1BzRwveaork9zIA0c0MBNA5N1E5oDXnNAA9drjur6NAfSwAEN3DQwWTehOeA1BzRwveaork9zIA0c0MBNA5N1E5oDXnNAA9drjur6NAfSwAEN3DQwWTehOeA1B7Lb5fGRLZO8Zqi5vl0fLDbvZs92ivkaY+SsEcti21m2kV3uaXyhgmISIm3OgHP+pCx71n6+3QWIflomsgjI2QFcAjZHzNNg9TN2Y/e2QMwYMT+259MN/wN3yZalGrA+fXvj35bvwetf4GopG/+1zpYzYTHZr+qzP4EbHcsuzZb3U9+nLQd8KX39OR0UFBq0tu9yVp2cJ/gh9xn5D7gc02rSHDBzwIcfcn+pyou3zMfzmmd+Zn7c5kPLCwZET6zDV5IXEEU5AYFd/AZFPtLMVTQhd2MEiwThX3VzRFQ1h0VjCAeymQKYLpo+YrJfWOA34Pr67SzODYghRbmiX4+gOAS/R/bKEyN75hrHgF8xtDhX9MkPitUVTaIZoCWAPz7YLD7C37bakNjXGBI760PiII77mlHx0OkjY5V/PKei0jbeI+uWx/lVLYA0/e8BPcRXDy3GbwGAmSMI4Hwcj/fVPQPlzUSQEsh1LRGANyze398onvhPrVi2q8EAd9aAmHP5ApLXBxTv2Xe/W1uMBel8QvnQe88c2ENcMLRIfGV4kRhUKJcb8vYGP4f0fWFHvfjbtjrx1t5Gsbch5G0DmVjbjBG+eOd9cROG1dAHBohCSNHJAOx9J5eLYcU5xjjW+u5TctZjvMq/XQAe1eCNVUipjDX4qArXYEw7oiTXkMj9CoJibFm+GI59joN74I8S3PzQ+bVrQZ2fVLeIBzZWiz9uqRX7UQ8O+ZN8oi6bn6G7B5WJpnX6H3dzo9TcI3uK2Yf3FCeWx9Ijx54HMfTOvkbx0uf14r0DTWIjwLqjdawaK2SzQdV6IKT2iJI8cUKffHHWoB7ilH4FoheMW2ai/epjfAQe21wjfv9pjdhe50MJTCNVSCww33eXbyfhY+0OuNoLKSXPlpbgo2Fguv+UcmMca24Ew1EYlFrE81Bl71l/UGyGRPSShsK4Ne2wYmPsfDgMXLRQm+ltqM53rT0oXsbHgtJdU4o5wA9KRLzu1s/aHrgasCl7WrlA7b0nlYkrR5SIPlBpzUT193vvHhArAZ4DsACnivjwSwDY4yGFrx7VU1w8rMhQp2V7nEb682d14hfrDhoquTyuf1POAUdvr/jAzZI50ZQ/AkUDoyFl/w/j2EkYz1LqSvqwskn8ZM1B8SdYfNNNGPoKWqOvP7rUGGeXmiTwcnxAfvRBpXgNVmjODWtKCwdswWt6bUyd0aA1McPbzUuHF4t7x/fB3GtOzEhEg9NtqyvF/RuqRA115C4kGrAoeb9/TC8xDoYt+YLsgcV5Hvr4OIxX1ZDEmtLAARunkY7zDBq0KXsiVEcJ2gEwFElAUJpdsmyPoZKmUCt2fU/8bqytbDYMYQTxkaV5hiW6OBcWwIHRZX7XQ5Wv7eIPjOsb6t4FDxUXfzcgnv3VMuttyPen7biP5kPbbqprtzgve+PoUnEzpFgZPJtIlLIPbaoRN793IGNBUIB+XwNr9w3o+yHwyuLLQjsVjWW/+qhK7PCj1dl4Ohn2TzGF1V7iRqXtpAzrdrfvzrxje4vvjW4DbSNAe+2KA+JuWG0bMthiy66thJcVjWV0r6S7Jcfkp/brYcwxr8WYvArzxppSzIGgOFQ886vF5lbamzO7+Vyo+cYyYZsGn28fVSq+BRW5d6ukpf/w9Df3icWYK+0Ohh7aouhddct7FeLNPY2GxOV9XYf74rxzX4tFPBP47rs+MD+axX+iDbiWE767+S64oWmHlYibx5QiKCCq2NDwdNnre8VfttYaqnK8Lh0GT6ejIOHSRcOgBnM+GX4acYl+zdeu2G/4N1PGUvL+YGwvzAWXxD5KcS/WJzznQBtwo95HnjeQrRVybpTjWjk2pCV2zvJ94o09DYZ7ooovBM43jugp1l80RDwysW+7qSJVeS+O0atqxsgS8eqUgeLuE/sY7pHx6l2DqKN5H1QIGtQoiWm8Ing5rcXxsKYUciAaIBFroA24sUN6o7McKIf6eNcJZYYU4+tMA+zNUDXpzB8vLpYAWnbuILFwQrkBglPhkkg1O9V05qBCOIEUG4EM38Uc7sMT+orTMZ8bD4b/hrp855pKwTln0gBoEz8EeMeW5cW9JtX3kI31m4E7LxsZ4PU9U/DcOra3OKVvQSxI4NeYn33qs9q41mPG1L5x3iBxWv+Cdi//fBi1DoXanCo6vGeeuAzRR1ItZ9/px3wfpqy+iMikeEKUY176M3/ealU+qbxAzME4nvHAmlLEAUsecDNwU9RidlU7BRLsgqGFsXEfJRSBW4E4WBXRT3gp1FSq1lbi1BH9mFNBVHPZz6lwCLHScejLL+COSWcR1biXY9xff1wtXjT5MU/HWHcitATWqyn1HNDA9ZDHdBNklA+NSyRakG9fXSG2IvsEX3YrDYX31HNnDbCVVGdDAl4FUHhNEwCymRjbMsxPRaPgeHHHcb0Nyas6T5X/p5jOehfTRbw31nMTDHFH4DpNqeeABq6HPJ4+slicALWR+aBIv4VUokGHzhZW4jTK05P6C6qrauhEr2BdPz6+t+jfapm21pPMPq3IlyOjBiWrHRG8ND4xRlhFjAP+E1wgtyOKiUSV+RK4S+opIhW3vD2mgesRPwmsiw6JGnlY5TuQRH/YUoOg9I4qMoH66Gn9EHtbEHccae7WYDg+3HNSH/OhpLf5IaAU5zSOGzoZY3UayY7prQY556NX7GuKzUlTOxgGjcPuY+SmXV3GngMauPb8cX32Uhh5juwV9SyigL0f0vY/NS1KFZlTPpRicbTUDm2y3EWQZByTdpbGI1Cf7dOK7Za+fEgRxrtFHcIPeT19lh/dXC0+bY0XpqHtC0OKRJl2zHDL3qTKaeAmxbb2F3Fsy/xQgwqjY1tK25XIWKFyxOcY8LZxvURhAsBha0Uo/3PMs1oD3tv3xH6PuasugcGJ49tEiB8OWo0nY5pIZWmmlZljXRlw/zUE6NM90v2nIZHe6LLkgAauB+8Bp1AoaaQEXfRJjdgKaauiBZjiMUcHqcqojhEEzCVFg1EyxPBaxtvOPtydimxtg6CfDmPWmF4dVWb6ND+NgHs51uXY+JS++cbHxlqP3veGAxq4HvDx3MGFgqlgSAx5o7RVxdUyzSrHl8l6GXGqhWNIeiolSmMxRv0mpKaMTkr0epbnfY4HIKXxzVwH82Ex4RydTfiROR/qcp+C9jEs5vJ6u3Mc0MDtHP8EpQsNN3LM+M/t9Ub2RVW112KqqLQ12EB13s2xXrj+ruPLEpJmtPJ+CePUeNZhN+2yDKd8GGTPGF0r1UHsLoU/877WFK9TAHImC1Cp1tZr9X7iHNDATZxn7a7geHEQXlASQ/Re342XV2FJpicVXQmTlbayUarjx/TOEzchTNANcSg9sX8PcQ2kLSVhZ+lsOJgwEyVjjK1Eh4zdrcAtQcO8Zwbga/KeA5qrneTpsUjvIuctOWf7GeY0mafYSlMxb9oZw5K5vmIMWGdhrOo0D8trRiHq5+soy3G1F0R1nR5S8mNlrpPxuZ9UtQjGG5P+Cx+MUq6NoslzDmjgdoKlVFsZYC4B+c7+JnEAycStRDWahiEmJbcjWmX/BYntRKxlMKT8nceVCSZRj0ccz16AsSb9jp2IUNsCgxqnsJzoDIyxhyv8kolXfry40BiJkrlES1wndiZ1XgM3KbZFLzoKYz2uFiChswbJyisViaMmIGMErbIK7bJd6w9vqhYXL90Tc2Zod9KyQ1WVEUSck1UR26L/83VH9XRsl9cTcLe+X2GsZEADkx1xjMvABNVHg9NCkgcMkOAqCrRoa/KWA5qlneAnpY40NtEveVN1s7GwlrXK07FYF8d8dkRpuwApUJlH+Ztv7bcrGjvHfMzMrsEgeCtx6ohzr4wHdqKDiBV+Cilh/4wIpn9iTnb5XmepfxyGCDJBgLl+WtVlFkjeMYMoVONh8zV6O3EOaOAmzrPYFYdgfR+pJnMdH04BqYTVaMx9OkXNEDTSqLUEy388B+u0ExEYBCj9ic1GL/bpHBiRVJE/1jrZX66W8Af4HFPSrj7QKN6Dyu9EnLeW6XjMZXci1I8fMXyHDOI0mQaumUPebGvgdoKP9A7q2SpJt9e1wFOqo18yx7d8ybksph0txIJbZpr11r6Yymk+bt2mR9WZSJt6OYLhSWxlDKzONyJSx0k1Z/kPoSJzoS+Ob0n8+KyGyr+1NXDAOKj4NxLBESrg0jDFj5jMp8XpsngRSIpq9SGXHNDAdckoVTGqqlKSbkfoHteftRJfcLpE2sGWqiod9c3EJS+vX3nAfCjuNsfPTKPKcEKqxnMw7mXUkRNRpWVWDkpcMzGr4yZYh+2I2gat6aqPAz2oZKaP4SU5WuLaMTLJcxq4STKOgOVqd1wDiEQpU68ALi3PDsJWrKtoVob+MbroL1vrHHvILnCce+u43sa6ulzMyw29urNB0D3TGnZI7YEr19sR1V+Occ0quizPNYckK3ICdp8seYX+TZQDGriJcqy1PF9HvpNOryWtzioXQXOzK+AiqSKOE7+zcr/Y7QAiXkupTuf+n51Y5krCUapyORGpIpvb34P2dtWrI5vM5fjBUOGSY1z5MaBU1jNCZq55s62BmyQfORViNro0YGwXinRUlVlG9XKbm7UbT3LV+OvfcacyU/qpLL3mtrjNqKXntteJZ5AmVkWUlnRhVDmSmMuzLdWUEC3krT4YxkfL6eNmrlNvu+OABq47PnUoRRWZEkdSlSFl5F7bb1+83E7OQzIcru2qti0CgONQBqx7RXTL5Orz0vKrqpf3Q/BqykwOaOAm+Vw4jjMvH8IMGNJQZa6Sai6K2tJBgMSOaOi5bVWFsdC1XTk35zYh3czjmG7yYqHsEL4qCiWj3fBBY9/NU0m8jAZu4jxL6ApOi9jDErmJHfyIKfdo/OJi150hqsgvIBDgScTOOhE1CifDEp1FOESwEnMtwyZnEK3jilky6yV6P0EOaOAmyDBZnNKW0ylyHFgCfVhlhNkP32VZRl5r/XUTI8txJ6dtHk1SZSa86BH1mw3Vjv3hCIBztE6+1eSBSqLSGBdsHdiz3x2hbeWA3k+UAxq4iXLMVJ6J4BpaxSkTuhUpkEsppxBKplqEOMEh26IszHliukWqLMGyTLzfzXDHXLK5VnwMVdmJaKHmagzmMbz1GlqNo+P6jrBk5BAuN2gHppakhdlah95PngMauMnzzpjrrGkdwDJHcrFiwpYpTDk9Ygfe45Ht0Q0RIlw9gCqzXX3WuqgZvLijASqy2opsLc/II6q7drQNDid00bT2gywgL6S3FMfSMszPrj59LjEOaOAmxq92pbfBQ0g61NMnt1hhPqbEpZSze3n5oo+Fm6Ib4piZK+f9zuIiGe9aAut9uDA+sLEq5s0Ur6w8TmeOwxVZLuR5/n4CCc4PkpWi0jon5phCHjkZ56x16H1nDmjgOvMoboltkH4y9pQGJs5rqpwtPjrY5AgaJmJzS7RC37O+SjBw3YkY2L8E4+K1lc4qsqzraARFjIT7pB3xY6SKPba6eG6GD7R0f7SrT59LjAMauInxq13pjfA+ovGJxFgDZsPopZC6K/Y2KVO1miu7EkngMLR0RVSZt2HsePvqynZTUtaLKe1f3RmN/LGei7fPONuTEAAvVd145dbhQ6BK9s4YYLp5kug2ybG1DDiIV5c+njgH7D+rideXVVcwvxIlymkACKN0GKNKa6wMz5PM4Jq4n8OF0C6YfjAk9rdGlRoLhMnr7H4pxagy01h1JjJHqky37BsXHDPPN9vVyXNnIbsFs1HaEWNu+adyHGHWi96tH69VUNGlRmJXnz6XOAc0cBPnWbsrmDliH6TusNxcI1VLX6QkZZpSMxE4/9hWb2RH5BgwHjHn8u/hHCEzSMQrJ49zjMmFt/jnBY3Dh+e8IYXKFQvM9TO9zmetYYDm4/RLHo2xurSu0wdbGu/M5fR25zkQ/y3qfN1ZUcPbWJ2dzhEkhtQdC1WRc7pW+it8g508pBgmuGhiX+uladmnz/FFSOHKAHw7opGNS4fSh9pKlNSDsZoDp5GoHr8JgEvjnbWs3u8cBzRwO8c/I1cTDTVSHf0CJNbAHh0VGeaj+jdA7mSoYd7i7x/jLvVqJ7seu5xAuwxZKJkw3Wls+/LnDeID3IvKqeQc5FLu3yP6Si3HvTLxHEYRmlLAAQ3cTjKVnkOvY6wppS6lzjAEmVundPn+/gwqrXX8q2r+pyeUiW/GSQKnKt+ZY+wns0DeMLrUmH+1q4tjWkYUqZw4mEKHjiQylQ9T7+xXTBfZ1a/PueeABq57XsUt+RqAux1TQyQapy4ZVqx0YKCx5llE+qiMOtbKf3NKH6yLW2Y97Ok+Je2FUI/vxoeCFnEn4uJeHLeqrMRMncOMjiQa7TgO1mqyE0eTP6+BmzzvYlfSBfFlOO/ToZ50CZakZGpSlcvg/647KHYA5E4aJOeDb0USOC5+7QZUsc643BgIK/YtY3qJ+04uN1KtOl3GMS1zU22ANdlKXGrkPENNjnpbPYFynD+m84em1HBAA9cjvj6B9KaftlpaOe3DsSotzFYiyOevrnAtjbjC+xvnDfRU+jK4nxkgKdHpteVEHA78Fuv9voQ5YW5bieNj5riCADe8qZ6BViE/Ytayet8bDmjgesNHY9z3CnI4HWhdN+jrGKNyiRCVJxVTxjysyPUUryucXhmtyJ0cr7zTcaq6dP7f06ohOJX/C8a1T8PPWWUVZ0bJSzE0kEuS/An3xphfFcCd2tHn3XNAA9c9rxxLPoSVCNbDvZEqIkP1rj+q1FixTnXhD7BqwDvI7OhGnQwjWv1fcOLwkqiuq9ReaxtcMvR+SFvmqLISDVtMyH5MWVTacpzP/MxOieas9ej9xDmggZs4z+JewekPhs5RmpHOxdTQl2H8UTldcFrowqW7BQ1WCu2zXRuUXrRce0ns4wZIRjt6B6C9bVVl3LZ5b5z3lffH8Tv9p918jOza1eecOaCB68yjhEo8jpSqnK+l5Zj+yz+EgSneYtD09f3Sa7uNhbDtGuEU0mp4aHlJuxFI/DGkaLyPBqXxTzB99QrGtaoyXD/o+qNLjUXP2C+W4zKbbr2+vLyXbKxLA9fjp85g9zvWVIp1rZKHEUN3YbqFCcRpvLES1covvLLbWD3Aeo77lF70zvJaijG4nZZfht1Z6S20x8ySTFKnAi3XQbp1XC9j/VveEy3Ov1hXhbWTOtZlrVvve8MBDVxv+NiulvWInOGLLFXm8QiU//mJfeLmlmLupgnP7xS//KiqXT3cIXBe29V+pYEOhZI8wNUXGOgviV5Of0Y+qqvf3m9Mb6k+FjS23YhppPMx/cPkeDR0/fTDg8bHReVNJevWv95yQAPXW37GansS00OPfVobCzbntA6DCJgSRkV0mbwBUm7q63uM9XtkGcMwBWeGVBBDA6WBitM3P/mwUlzz9j5jPSFVe5yXnoulTri0JzUJflQe2lQj/grJzGVUNKWPA+q3KH3t+7YlvtR3Y4xIdZNxsSS+8PMBXukWaBy0/KPEO+7vO2LSl6o0Y19TQQQrA+z5kfnSa3vEnWviu2RSJb72yFJxo8k18lksj/Kbj6uU6nYq+qvrbONA27Br8Zbo29V2Tm95wAFOCz1yWl/Ds0g68DPtzA+RJ5lzvnZMHws3xAuHFoofQxVNFVH15UugcmOUbTLb47cxtfUdGKOYj4rEpOrMffW+iyU5ZT36t5McmDEihtfYhtDA7SRX41/OjBCPIFyPkUMSvLTCTntjn6MTBB+QHbjjt+rNGS4T+j+IVroG0laq+UwTezu8v5jLSjUO9qZlXUsHDpiAq1XlDtzx/gA9jqa/uVf8ESqpDP87G/OfS6cMdMw20ZWgpcRnfPBNMEYRtOzLM1CPb3rvgHgXklaD1vt3xW2NbcANiGVuL9LlEucAF4z+1vL9GBNWx/yUmS3i5XMGiO9CBVUtnpV4K95cQV/mS+HL/ChU/KnwQ6b1mMN0Lr59M0BLq7mmruVAG3Aj4vWu7Yr/W+c48ha8+NdgukXG7xIk947vI5aeO1AwEL2riZFID5xaLhZOKDfia6mq0z3y++g3x+VerDnU1ffYLdu3CNY24Ia1xE3HA6V6ySCD01/YacS2ynV1TulbIF46e4D4w+n9EGmT2yEQP5V94wIMDEO8HQtj/+OsAWLW4SWGrzWl7GqMY+eu2C/uwxyzKqtjKvul6zZxwCJYO+ZYMZXVm6njABPKnfPybvFVqKLMeCENP1cgIP2LsCS/ibxOP4PvLzM5porokslxLIFKv+MhSOrOwAESE+D9bmONeBDqMed79Xg2ypdM+d/6mFq7s2TLUlggJmVK57KlH4zfvQfqMoPRmUHDTHSQ4Fq2zCjBIAbV6gHm8k7btBIPR1K7U/sViCtGlIgzBhS0Cz2kIW0Z2mLCdbapKUM4YLIos0ftgfvIlkkiKJZmSFezqhuUdFw4jA4aM7GqARe7kw8HGqvhxFEBKfgBgg1o2WVUEYPyGczANWpZJmJarJar5bEOjqH5YWCSc46hJwKwXMu3BGliKXFJvJbWbk7z3AvAvrc/GiRhnNT/MoEDC8SMEfPNHZHvRtuxxVtYYF7bAb2Vbg6MQuQNs0pw3peSseNDivaIluqdSLTOpOPRBbQJQayqALDS8aMP/voBtPxVEbBqJABgLikGy69EfLBeWU/FqS491gG07I36ndAqc5c+Kflg6NV0RGmu4bU0BdKyHAAsNknKRDtJY1M9rGF7EdL3NmJtuTI91eE6IFiPYRPlZprKW1Rk2araOBUSCwQ92/R4V/Ip7b+UnZw+op8yp484l8oUqEdAGh8BqzNX0xvbG4tzYZveWNbFsekfXQXHf047McSQ9TASiEYxhvOp0tCk/SZ1g/YcCIvJ8QqoJa4srdVmyYmM/uX4mIEL/CVFJWvE1v84WlL/z0gOcM6WwnPWiGXx+mcPXF4VBS+35vGfJs0BzYEUccAFYGXLzsCVJfnbBmKOjs8wn+rSba3Sdyn7u13jFi+kLu0/HSuk85ONhLX2MTHgWq/OlH09jZUpT6I79ENppe0OHTf3UT1PYC7RHbYT+FJ1h9vRfUwhB6R0S2ET6ajaH8AlpzJJ/UnHk9NtJMcBn3zk/QNcWuE0aQ7Yc8A374g/xrjyYWnHEckJ/WvlADWy6SMmWw93133/SFw+AS11u+t7mPp+W8LiUt9galvwl8Qlr7SFObVvTPes3ReWZDPr/SVxeWdR44NvxjLmh6W3k+KA70BLLvhP4spnq901JSey+deXoOUD9S9weXcavORCtpJvQcsH6m/gyldWA1hywv+/Cfj7dmdmZAdw5RMigOljrX2bJUf88Sudbxwiavxxs9G7yC7gmp9cVApLLmROwIS5j3o7PgeSdM6PX6E+ozmgOaA5oDmgOaA5oDlg5cD/A+qplueDZ5IZAAAAAElFTkSuQmCC;" parent="1" vertex="1">
          <mxGeometry x="320" y="889.5" width="110" height="65" as="geometry" />
        </mxCell>
        <mxCell id="2x6z2sCF0aa3ZfLK6q7P-63" value="" style="shape=image;verticalLabelPosition=bottom;labelBackgroundColor=default;verticalAlign=top;aspect=fixed;imageAspect=0;image=data:image/png,iVBORw0KGgoAAAANSUhEUgAAAKcAAAAtCAYAAADLPXtSAAAAAXNSR0IArs4c6QAAAARnQU1BAACxjwv8YQUAAAAJcEhZcwAAFiUAABYlAUlSJPAAAAx4SURBVHhe7ZwJWFXVFsf/XC4yiiJOzAoqOOKAojhkDjlk+Vn5tMwpNc0GTStLMxVLtKQsM/M5ZKUvbTKrl6U5JI8cQQVnRZBRQUEBmYd31rr7wAW5cCEP6vX8vu9+a+19zj3n3HPX3nutdfY+ZqPGTimGxLAhA/HY0EdIRVZWNl6d8w7rMmtWfiA04JffduLXHbtECfhoWSBsbKxZL7+tX99eGPXkcFECpr78utCATr7tMG3yeFEC1m3cjCNhx0UJmP/WLLg6O7EefjwCa9Z/zTrx3Pin4e/XWZSAwCXBSEi6wnr54x46Go4NX34jStI1TBqLzh07sB6fmITFQR+yTlS2zcWpKd6ZO1uUgM/XfYljJ06KUtl7dO16KuYtDBKl6t3frT9sx559/xOl6t3fyu7Dnbq/5e/Dnbq/hP59MEtISGDjVFG519AIqaJyz6Eap8o9i2qcKvcsqnGq3LPUWkCUX5APTeR2WCRFoLi4GBZ1rHDLwRtZbp1h6+gOrVYr9lRR0VErxpmbl4PCjWPhefVvUVOWm5ZNcX7gYjRq0w9WllaiVuVBp1aMs2j7m3COKM2hGaJQY4lk977IDJgGK49OsNBaiC0qDyKKG2dmaiK8PvOHWXGRqDGOIo0WV116IstvAixb94PWXB32HzQUD4i0MQerbZiEpqgATnF/wWvbRFisHopbGWlii8qDguLGaRN/SGg1p0naKTReNwiFRzYj59YNUati6ihunJYX9sJM6CSrq8vSPjMBLr+/AZuvnkZhYYFug4pJo6hxJl4MR72sBMhOLcnq6rKU9cbXImCzdhhuRB0VNSqmiqLGaX1ovdDuLA4pkfD5z3BoNk1AdlqiqFUxNRQ1Tu+E3bcN09XVZVmR3iR6F6y2Pi9KKqaGYsaZmZYETW7GbcN0dXVZGtKdUo4Bnw1BbnzpvEoV00C5njM+UijK0/R6BBpvHoW8mDBRo2IKKGacDbLihFY7WOfdgPVPM/i5vYppoJhxmmUmC632aJQRDQ0N8ddjRY3K/Yxixplz6+480WmSGon6305GYWGhqFG5X1Hs2Xr+1ulwO79dlGqfmCfWw6rtYFEqy/XUNIPG29CxATSa0jZ7Mz0Dubm5rNvb14WVpSXrREFBAVLTdE+sGjdqyLIybt5MR25eHuvl99c/VvnzyN+j+sKCQoSfKPXnaeGbb7s2VU45pMVpl6Iv8/4+LVvA1tZGbKkY+XfL1xIlfTdRLHCjY7Rt7V3mGg1xMSoaWdnZvL+5ubmoNQ7ljHPzZLhd2iFKtU+SzwiYjfxUlMoy682FiItPEKWybFzzcckfRwYz7ZU3+I8ihg8bjGdHP8k6cTkuHq+9tYj17zatZWkI8oXpWLIBBs5/A629W7JO6B/Lr7Mv5sx6iXVi+cercehIOGa/Mg1OTk1K9pPRSn+6k1NTtGvjjXHPjCwx1KKiIoSEHsJvf+zGpZjLXCfj37Uzrwj1adVC1JRlxaq1CD1wmM/ZvVsXfPH1Fj6OPm6uLmjVwhNPjRjGjVomJycXKz9fj8NHj4kaHW18WuHF5yeiceOqGzKh2LBeLN2Yu4n2suEnSK/NfAHLgxaUfLw8m3F9N79OJUtwiYOHw9gwPdxduRwSerDGAdep0+fYMGm5LhlTsGRweXn5YmtZjoafQMTJ06JkmNdnTufrnzT+Gb7GHTv34K0FS3DrVhZv/+PPffh0zQZcTU5ho/hk+bv4cNkidJcMk4x96fKVSLpylfc1FvmcM6ZPlhpXC+zeF4IXZswpMVxq0PMXL0P4sQgMHdQfSxbNxdLF87hRR0XH4JPV63gfY1DMOO82+XWbCO12nJs2gYebK3/IQKIuxXD9xLGjYWYmp/iBM+cusOzauSPat23NxnXlas0CvYhTZ1i+OPU5eEu9FRn9hahLXKePu5sLD5c7d/8lagzTzMONf8OAfn3YWGjojLkcV2Iou/bsZ/lQ7x7o2ycATtLvdnNxxowXp3D9raws7pWrg3zOXgH+mDLxWTz8UE+u/3H7f1nSOekauvv78f1s6dUcXs2b8agz/NHBCOjeVTJO4+IB5aJ187s8UbhFH6EYJkfyqTZ89Q1sbWy4hesPTdRDUg9G+HXx5RtNHA2PYFldjh2PRDN3N9STfLhWLb10dXovZJChoXJg/z4Ik8598tRZUWscvXv6s/z2x59ZJqeksPRt35alDA37Y4R7EhuXYHRPVhF9evZgSY2NfEu5QXiL36jPyCce497UyqpqX5VQzDg11jq/zdCjR2N1WVZXz/GfpCsYgPwxeiMHOewjHh/CLVwfCppk/7C5h7tkNM4cxESeqnq4LU9yyjXExMahQ/s2XPYV8tSZcyzLM3TQABRIAduioGBuQMbSQu836AIaXfDl6OjAUh/HBqV18n41wdVF98YQoriouMSXr1/PnuU/QTHj1NbRGSd5aLKXVhNdltXRYztNgY1dfVGqmG2/7OBeg4bRRwcPELWlHDike9rUpVMHduzJ/6Q/9PTZ8yU+nbHIr2rJlnoWOk7KtetcpoaRnpHJusyFi5e4B+/YoR2XyW80lqQknf9IvXNdO1vWiezsHKFVjNai5qsMUqVGLEPHadfWh3VqXP8UxYzT0r6p0GqPPHMrxD6yFJohb4uaigk7HoEt3/3EPeGcV1+qMA0TekA3STpMcuyDP/mcP+SDUi+zcrXxs60oCKDzETTk0XFWrfmCy8RfIQeEpkOOZCc8O4rld9IQbYyfSyPB3v2hrA/s35fTYeQfEn8fPMJSht7V9OWmraxTb2tZpw7rNWHnHp1v3MChPh9n5IjHuExuTHnIF9605Qd+j5QxKGacGVa6gKSyodcYXZbG6Km+Y1DHfyzMK1lvRPlN6sko6AgOWlhhWoOGRMrrkdNPKSL5s3ZVMG8nYzP2Bh8N0/mtFKzoH+vrdbo017kLF1nK1LPXDYcuzk3xihTkUGO4HBvPdYYgt+H1eYEIlwyCes1RTz7O9T26+bGkKF4/Kt/y/U/8G4k3Z7/MsrrcuJnO6abde0O4/FDvAJaULiK/eX/oQalh/cKNhj5nz1/EN99uwz6pATnUr8f7VkXN+/MqyHLQ+T/yUEvUVDdm32tufZD/yDxUFYYdkQIN+jOJsZNLc4kylNfbt1+3hNmzmQdLGfKjyMeKT0jCcSmYadnSU2zR5U7LM37Mv0r8SjkIkqGgoF0bHxyPOGnQr+wpRba//rbrthylzKIlwbCUGllS0hUeRi0t62DyhDFiq+4NdPRdShvNmrOAc6EUoctDMeVEyZirQ/lzUlqMInMKdGRGPTUcK1au4cDs9z/3cl26aAzTJo8zOhmvWBI+NzsTHsGS41+s7GPEXK0dkvu9DbMuo6XhueoMASW76c8yROeO7bkHIoYNHlgm70mciDzNvZ27mysnsHfuNuwTdu/aBQeP6HzX/n17lwlCiJOnz7IPS72qi7MTH8td6nUo6S1z8VIMv56QCJCMwM7O7rZzUrbB2akJvDybw76unagtJS4hkf1mMhALyS90dXHmc1T2hId841gpuKFz0v6UWdBPfdF3yS2iRkdDenmSk6/hmNTwrkn+NRmxtbUVP1wo3+ArQ9GlwdqP+qBhZpQoKcPZwR+jftenREnFlFDM5ySiW5c+6rvTpNm4IvaJDaphmjCKGmeDXuNQKEXQd5ICc0tE91uMrJmhqNN2kKhVMUUUNU5bOwckOXcXpX9OntYWZ0d8Beuez1UakauYBooaJ2Hh0U1oNSdfY4lEv2lImBmOhq17iVoVU0f5dyUlR6PFmt6SVr3TZBRqkefoieIOI5DhOwrW9Q1P5FAxTRTvOe0aN0dSo46iZBxRHoMQOfoHzEt/FJn+U1XDfEBR3DiJ/ICpyNYaTvYWm2kQUtgKPyIAF/p/AJux6+Hp48d5QUqUf/bvjbhx46bYW+VBQfFhXSYzPRX2R9Yj58p5oKgQGis72Dq64kSGHb4/mYYTZ2Kw4v1ABAZ9yJNnaeLvlaspeHn2XP4+PVWgJG7vAH/epj/vUsU0qTXjrAiaS0nPfQl62rDqoyAsfG85P/Lr2aMbXpo6Edt+3lEyP1FmwMO9MXXSOFFSMVVqZVjXhyYBHDsRiffeX1FimIQ80VeeckXrV+YuDOLZ2/qTgIk/94Zg0vRZPLOIZtiomCa12nOSYdJ0MZqxUh6a7j99yoQyC72MgSYuvDZzusGFWir3L7XSc9I6nQOHw7Dg3Q8qNEyiXl1dwERrXGg5qrHQ1K/5gcuwNPhTg7N3VO5HgP8D5LI7YOQa64IAAAAASUVORK5CYII=;" parent="1" vertex="1">
          <mxGeometry x="66.5" y="899.5" width="167" height="45" as="geometry" />
        </mxCell>
        <mxCell id="2x6z2sCF0aa3ZfLK6q7P-64" style="edgeStyle=orthogonalEdgeStyle;rounded=0;orthogonalLoop=1;jettySize=auto;html=1;" parent="1" source="2x6z2sCF0aa3ZfLK6q7P-65" target="2x6z2sCF0aa3ZfLK6q7P-68" edge="1">
          <mxGeometry relative="1" as="geometry">
            <mxPoint x="670" y="688.5" as="targetPoint" />
          </mxGeometry>
        </mxCell>
        <mxCell id="2x6z2sCF0aa3ZfLK6q7P-65" value="smart-portal-sa" style="shape=image;verticalLabelPosition=bottom;verticalAlign=top;imageAspect=0;image=data:image/png,iVBORw0KGgoAAAANSUhEUgAAAO4AAACECAYAAACXgRceAAAAAXNSR0IArs4c6QAAAIRlWElmTU0AKgAAAAgABQESAAMAAAABAAEAAAEaAAUAAAABAAAASgEbAAUAAAABAAAAUgEoAAMAAAABAAIAAIdpAAQAAAABAAAAWgAAAAAAAAFKAAAAAQAAAUoAAAABAAOgAQADAAAAAQABAACgAgAEAAAAAQAAAO6gAwAEAAAAAQAAAIQAAAAAyiTvzQAAAAlwSFlzAAAywAAAMsABKGRa2wAAIsdJREFUeAHtXQmYFNW1vt2zMQsDw7CDIKKoILiigs8nuKDGxKgRoxLZkhDFaGJc8mL8BKKJMcnTxJcYg4qCMYkao1mMu2A0IriACIggEllkZ4bZt+5+/189t6em5nZVdU91T0/1Pd8307XcuvfWqfrrnHvuOecKoUlzQHOg23Eg0O163M07PGfOnLyWlpZ+gUCg4eGHH67A7US6wy1dddVVxQWBgpGhSKgskhPhe7Ortrb206eeeqqpO/Tfb30M+u2GMv1+GhoaSkVYXB5piVwxffr0I+bOnVuS4X0OXHnllWU5OTlnhgKhB0RQvIJPzVJ8eG4pLy/vneF99233cn17Zxl6Y/n5+bnhlvDYsAhPDwaCO+tr61fNnjn7XwDES7m5uesXLlzYnCldnz179mAREl9EX78CsJ4cEREN1Ax5OBq4XfcgqO0MARiGRCKRCwCQBU3hprUAyxPhcPglAHxrRUVFPVRRAjkt6vTUqVNz+vXrV1hXVzcCEvWr6Mc0tD0Mf1ozAxMyiTRw0/w0ANJmwGB3IBRoAWgl/zlmLAQ8x4dD4fHYrm1uav6kuLh41cyZM98PhoPvNoYa1z3++ONVXnd3/vz5wa1btw5Ev8YHIoEJdbV1E9DGOOzHla4BEWhB2T3Nzc0tXvdH1+eOA9o45Y5PXpYKTJs2rSckKgFyUyQcOQO/BLDyWRAkONeAv12Qgi/miJzFJbUla+958p4G7CcliQnWPXv2FNXX15+M+r8ByToJ9ZfhLx9/SukKIEeCwWAjevkyPjr3osfvLlq0qAblk+oDrtPUCQ4oX5ZO1KcvTYADN9xwQyHU4ZOAiSsAoMm4dCT+8uyqMIAcEGsgrf8OIL0Cqbfqscceq7W7pvVcYO7UucX1JfUnQlpOQZsXAoSjiUeHa6vxgViPdl+NBCJP79q1a93zzz/f6HCNPp1iDmjgppjBbqrH2DIfavFgAJGAuhpS+HgX11HSVQSCgQ8ArDuGDRv2BiSpUnXF8Vyow6dDsi6AfDwG11ENtn32qPMgyv4dYF0C7WDVxo0bK5ctW6as30VfdRGPOWD78DxuS1fnggNQo0sBlPMB4KsAnBMh6fqaxsLxaggDaI8BissBznbgwvG8oAhODEfCX8PFds87hLYqANSNKP9cbiT3iYWLF26O16A+3rUcsHuQXduzLG+dAC4IFowKB8JnAW5TwY6x+OMY1GuqR/2rUOmz+HsDwN+0ZMmSA9jWY1evOe1hfRq4HjIzRVUFoErn9ezZ82SAajrGp5MhgftDOha5kMTWLhGM9HSqgSTejuv/BseKJ6uqqj7CtFPIWljvZy4HNHAz99koe3b11Vf3h/fVaAD4aIDvaIBvFGTjMEjNQVCvS3EsZmzCPoFK49IWlKPauwGH1uZF8tY1Rho3uzRqKfuhD3YtBzRw08R/SM1CSM3TIDVnQVo2BHOC927evHlDZww+dJgYOHBgbmVlZW5eXl4wWB8saspr6gUjVxH+Io2Njftxe1UwfLXAet0yZsyYFhiqwgnecgD+1bktDS0nYaJoDryoDsGH4DPU8SZ+X4S3195M8vZK8N66bXEN3NQ/ugCcKIYDrPMh7WggymltshK/L8Aq/DTU1bcffPDBHQBCxowr+VEA4A8JRoKnRYKRr8DSPRn9tTplVEHS/xPHF8GgtkwDuPXJpuFHAzfFTAYASkqKS14EaOlwYeU3gdqAo58BtP8AgBc99NBDH6W4S7bV0zkDU0dj0d9vAKzno/Bg/PXAn7Xv5noOQoO4o7q6+pd6rGxmS+q27R5G6lrNoppnzZr1cwDgJpe3XAsArwBEngmGgisbw43bioqK9qVSkuHDkl9YWNgPH43hkVDkVLR/MdqnUwjB6ppwXRhaxdcXPbroUdcX6YJJc0ADN2nWOV84Y8aMkXihP4TxqNC5dLsStPBSld4BMGwI5ARWAkjLWRfcDKvblUxi57rrriutqak5HgauCRiz0kd5FIxXQ1BVL/zFjFtJVF3R3NI8Dj7V25O4Vl+SAAekk3sCl+iibjmQF8y7HIHnhQCF20tkOY6Dy/mHa8dBEl5GRRWSu3bWzFmf4PhqgI0fhE/DwfB2SMuKQFMgFMmPhOECGYGhKhAKhQI4novfvgD8UMQAH4brOBd8XHVV9Sj85st+yV8c6xShnTKMdWejkh91qiJ9sSMHNHAdWZR8AYD2HEjK5CswXxmtphj1HYvDxxpgo76E46GWUBPkZLNoEc2I8Q0hwigHwM7F8QKUyPOsD+b+KLbZDryupuCUBq6CP14e0sD1kpsd66KESwfRo4p/BqULqLI98y++GhPN+3o7NRwIpqZaXSs5AAD1yTZOQF3WdpM0PHQN3DQwWTehOeA1BzRwveaork9zIA0c0MBNA5N1E5oDXnNAA9drjur6NAfSwAEN3DQwWTehOeA1BzRwveaork9zIA0c0MBNA5N1E5oDXnNAA9drjur6NAfSwAEN3DQwWTehOeA1B7Lb5fGRLZO8Zqi5vl0fLDbvZs92ivkaY+SsEcti21m2kV3uaXyhgmISIm3OgHP+pCx71n6+3QWIflomsgjI2QFcAjZHzNNg9TN2Y/e2QMwYMT+259MN/wN3yZalGrA+fXvj35bvwetf4GopG/+1zpYzYTHZr+qzP4EbHcsuzZb3U9+nLQd8KX39OR0UFBq0tu9yVp2cJ/gh9xn5D7gc02rSHDBzwIcfcn+pyou3zMfzmmd+Zn7c5kPLCwZET6zDV5IXEEU5AYFd/AZFPtLMVTQhd2MEiwThX3VzRFQ1h0VjCAeymQKYLpo+YrJfWOA34Pr67SzODYghRbmiX4+gOAS/R/bKEyN75hrHgF8xtDhX9MkPitUVTaIZoCWAPz7YLD7C37bakNjXGBI760PiII77mlHx0OkjY5V/PKei0jbeI+uWx/lVLYA0/e8BPcRXDy3GbwGAmSMI4Hwcj/fVPQPlzUSQEsh1LRGANyze398onvhPrVi2q8EAd9aAmHP5ApLXBxTv2Xe/W1uMBel8QvnQe88c2ENcMLRIfGV4kRhUKJcb8vYGP4f0fWFHvfjbtjrx1t5Gsbch5G0DmVjbjBG+eOd9cROG1dAHBohCSNHJAOx9J5eLYcU5xjjW+u5TctZjvMq/XQAe1eCNVUipjDX4qArXYEw7oiTXkMj9CoJibFm+GI59joN74I8S3PzQ+bVrQZ2fVLeIBzZWiz9uqRX7UQ8O+ZN8oi6bn6G7B5WJpnX6H3dzo9TcI3uK2Yf3FCeWx9Ijx54HMfTOvkbx0uf14r0DTWIjwLqjdawaK2SzQdV6IKT2iJI8cUKffHHWoB7ilH4FoheMW2ai/epjfAQe21wjfv9pjdhe50MJTCNVSCww33eXbyfhY+0OuNoLKSXPlpbgo2Fguv+UcmMca24Ew1EYlFrE81Bl71l/UGyGRPSShsK4Ne2wYmPsfDgMXLRQm+ltqM53rT0oXsbHgtJdU4o5wA9KRLzu1s/aHrgasCl7WrlA7b0nlYkrR5SIPlBpzUT193vvHhArAZ4DsACnivjwSwDY4yGFrx7VU1w8rMhQp2V7nEb682d14hfrDhoquTyuf1POAUdvr/jAzZI50ZQ/AkUDoyFl/w/j2EkYz1LqSvqwskn8ZM1B8SdYfNNNGPoKWqOvP7rUGGeXmiTwcnxAfvRBpXgNVmjODWtKCwdswWt6bUyd0aA1McPbzUuHF4t7x/fB3GtOzEhEg9NtqyvF/RuqRA115C4kGrAoeb9/TC8xDoYt+YLsgcV5Hvr4OIxX1ZDEmtLAARunkY7zDBq0KXsiVEcJ2gEwFElAUJpdsmyPoZKmUCt2fU/8bqytbDYMYQTxkaV5hiW6OBcWwIHRZX7XQ5Wv7eIPjOsb6t4FDxUXfzcgnv3VMuttyPen7biP5kPbbqprtzgve+PoUnEzpFgZPJtIlLIPbaoRN793IGNBUIB+XwNr9w3o+yHwyuLLQjsVjWW/+qhK7PCj1dl4Ohn2TzGF1V7iRqXtpAzrdrfvzrxje4vvjW4DbSNAe+2KA+JuWG0bMthiy66thJcVjWV0r6S7Jcfkp/brYcwxr8WYvArzxppSzIGgOFQ886vF5lbamzO7+Vyo+cYyYZsGn28fVSq+BRW5d6ukpf/w9Df3icWYK+0Ohh7aouhddct7FeLNPY2GxOV9XYf74rxzX4tFPBP47rs+MD+axX+iDbiWE767+S64oWmHlYibx5QiKCCq2NDwdNnre8VfttYaqnK8Lh0GT6ejIOHSRcOgBnM+GX4acYl+zdeu2G/4N1PGUvL+YGwvzAWXxD5KcS/WJzznQBtwo95HnjeQrRVybpTjWjk2pCV2zvJ94o09DYZ7ooovBM43jugp1l80RDwysW+7qSJVeS+O0atqxsgS8eqUgeLuE/sY7pHx6l2DqKN5H1QIGtQoiWm8Ing5rcXxsKYUciAaIBFroA24sUN6o7McKIf6eNcJZYYU4+tMA+zNUDXpzB8vLpYAWnbuILFwQrkBglPhkkg1O9V05qBCOIEUG4EM38Uc7sMT+orTMZ8bD4b/hrp855pKwTln0gBoEz8EeMeW5cW9JtX3kI31m4E7LxsZ4PU9U/DcOra3OKVvQSxI4NeYn33qs9q41mPG1L5x3iBxWv+Cdi//fBi1DoXanCo6vGeeuAzRR1ItZ9/px3wfpqy+iMikeEKUY176M3/ealU+qbxAzME4nvHAmlLEAUsecDNwU9RidlU7BRLsgqGFsXEfJRSBW4E4WBXRT3gp1FSq1lbi1BH9mFNBVHPZz6lwCLHScejLL+COSWcR1biXY9xff1wtXjT5MU/HWHcitATWqyn1HNDA9ZDHdBNklA+NSyRakG9fXSG2IvsEX3YrDYX31HNnDbCVVGdDAl4FUHhNEwCymRjbMsxPRaPgeHHHcb0Nyas6T5X/p5jOehfTRbw31nMTDHFH4DpNqeeABq6HPJ4+slicALWR+aBIv4VUokGHzhZW4jTK05P6C6qrauhEr2BdPz6+t+jfapm21pPMPq3IlyOjBiWrHRG8ND4xRlhFjAP+E1wgtyOKiUSV+RK4S+opIhW3vD2mgesRPwmsiw6JGnlY5TuQRH/YUoOg9I4qMoH66Gn9EHtbEHccae7WYDg+3HNSH/OhpLf5IaAU5zSOGzoZY3UayY7prQY556NX7GuKzUlTOxgGjcPuY+SmXV3GngMauPb8cX32Uhh5juwV9SyigL0f0vY/NS1KFZlTPpRicbTUDm2y3EWQZByTdpbGI1Cf7dOK7Za+fEgRxrtFHcIPeT19lh/dXC0+bY0XpqHtC0OKRJl2zHDL3qTKaeAmxbb2F3Fsy/xQgwqjY1tK25XIWKFyxOcY8LZxvURhAsBha0Uo/3PMs1oD3tv3xH6PuasugcGJ49tEiB8OWo0nY5pIZWmmlZljXRlw/zUE6NM90v2nIZHe6LLkgAauB+8Bp1AoaaQEXfRJjdgKaauiBZjiMUcHqcqojhEEzCVFg1EyxPBaxtvOPtydimxtg6CfDmPWmF4dVWb6ND+NgHs51uXY+JS++cbHxlqP3veGAxq4HvDx3MGFgqlgSAx5o7RVxdUyzSrHl8l6GXGqhWNIeiolSmMxRv0mpKaMTkr0epbnfY4HIKXxzVwH82Ex4RydTfiROR/qcp+C9jEs5vJ6u3Mc0MDtHP8EpQsNN3LM+M/t9Ub2RVW112KqqLQ12EB13s2xXrj+ruPLEpJmtPJ+CePUeNZhN+2yDKd8GGTPGF0r1UHsLoU/877WFK9TAHImC1Cp1tZr9X7iHNDATZxn7a7geHEQXlASQ/Re342XV2FJpicVXQmTlbayUarjx/TOEzchTNANcSg9sX8PcQ2kLSVhZ+lsOJgwEyVjjK1Eh4zdrcAtQcO8Zwbga/KeA5qrneTpsUjvIuctOWf7GeY0mafYSlMxb9oZw5K5vmIMWGdhrOo0D8trRiHq5+soy3G1F0R1nR5S8mNlrpPxuZ9UtQjGG5P+Cx+MUq6NoslzDmjgdoKlVFsZYC4B+c7+JnEAycStRDWahiEmJbcjWmX/BYntRKxlMKT8nceVCSZRj0ccz16AsSb9jp2IUNsCgxqnsJzoDIyxhyv8kolXfry40BiJkrlES1wndiZ1XgM3KbZFLzoKYz2uFiChswbJyisViaMmIGMErbIK7bJd6w9vqhYXL90Tc2Zod9KyQ1WVEUSck1UR26L/83VH9XRsl9cTcLe+X2GsZEADkx1xjMvABNVHg9NCkgcMkOAqCrRoa/KWA5qlneAnpY40NtEveVN1s7GwlrXK07FYF8d8dkRpuwApUJlH+Ztv7bcrGjvHfMzMrsEgeCtx6ohzr4wHdqKDiBV+Cilh/4wIpn9iTnb5XmepfxyGCDJBgLl+WtVlFkjeMYMoVONh8zV6O3EOaOAmzrPYFYdgfR+pJnMdH04BqYTVaMx9OkXNEDTSqLUEy388B+u0ExEYBCj9ic1GL/bpHBiRVJE/1jrZX66W8Af4HFPSrj7QKN6Dyu9EnLeW6XjMZXci1I8fMXyHDOI0mQaumUPebGvgdoKP9A7q2SpJt9e1wFOqo18yx7d8ybksph0txIJbZpr11r6Yymk+bt2mR9WZSJt6OYLhSWxlDKzONyJSx0k1Z/kPoSJzoS+Ob0n8+KyGyr+1NXDAOKj4NxLBESrg0jDFj5jMp8XpsngRSIpq9SGXHNDAdckoVTGqqlKSbkfoHteftRJfcLpE2sGWqiod9c3EJS+vX3nAfCjuNsfPTKPKcEKqxnMw7mXUkRNRpWVWDkpcMzGr4yZYh+2I2gat6aqPAz2oZKaP4SU5WuLaMTLJcxq4STKOgOVqd1wDiEQpU68ALi3PDsJWrKtoVob+MbroL1vrHHvILnCce+u43sa6ulzMyw29urNB0D3TGnZI7YEr19sR1V+Occ0quizPNYckK3ICdp8seYX+TZQDGriJcqy1PF9HvpNOryWtzioXQXOzK+AiqSKOE7+zcr/Y7QAiXkupTuf+n51Y5krCUapyORGpIpvb34P2dtWrI5vM5fjBUOGSY1z5MaBU1jNCZq55s62BmyQfORViNro0YGwXinRUlVlG9XKbm7UbT3LV+OvfcacyU/qpLL3mtrjNqKXntteJZ5AmVkWUlnRhVDmSmMuzLdWUEC3krT4YxkfL6eNmrlNvu+OABq47PnUoRRWZEkdSlSFl5F7bb1+83E7OQzIcru2qti0CgONQBqx7RXTL5Orz0vKrqpf3Q/BqykwOaOAm+Vw4jjMvH8IMGNJQZa6Sai6K2tJBgMSOaOi5bVWFsdC1XTk35zYh3czjmG7yYqHsEL4qCiWj3fBBY9/NU0m8jAZu4jxL6ApOi9jDErmJHfyIKfdo/OJi150hqsgvIBDgScTOOhE1CifDEp1FOESwEnMtwyZnEK3jilky6yV6P0EOaOAmyDBZnNKW0ylyHFgCfVhlhNkP32VZRl5r/XUTI8txJ6dtHk1SZSa86BH1mw3Vjv3hCIBztE6+1eSBSqLSGBdsHdiz3x2hbeWA3k+UAxq4iXLMVJ6J4BpaxSkTuhUpkEsppxBKplqEOMEh26IszHliukWqLMGyTLzfzXDHXLK5VnwMVdmJaKHmagzmMbz1GlqNo+P6jrBk5BAuN2gHppakhdlah95PngMauMnzzpjrrGkdwDJHcrFiwpYpTDk9Ygfe45Ht0Q0RIlw9gCqzXX3WuqgZvLijASqy2opsLc/II6q7drQNDid00bT2gywgL6S3FMfSMszPrj59LjEOaOAmxq92pbfBQ0g61NMnt1hhPqbEpZSze3n5oo+Fm6Ib4piZK+f9zuIiGe9aAut9uDA+sLEq5s0Ur6w8TmeOwxVZLuR5/n4CCc4PkpWi0jon5phCHjkZ56x16H1nDmjgOvMoboltkH4y9pQGJs5rqpwtPjrY5AgaJmJzS7RC37O+SjBw3YkY2L8E4+K1lc4qsqzraARFjIT7pB3xY6SKPba6eG6GD7R0f7SrT59LjAMauInxq13pjfA+ovGJxFgDZsPopZC6K/Y2KVO1miu7EkngMLR0RVSZt2HsePvqynZTUtaLKe1f3RmN/LGei7fPONuTEAAvVd145dbhQ6BK9s4YYLp5kug2ybG1DDiIV5c+njgH7D+rideXVVcwvxIlymkACKN0GKNKa6wMz5PM4Jq4n8OF0C6YfjAk9rdGlRoLhMnr7H4pxagy01h1JjJHqky37BsXHDPPN9vVyXNnIbsFs1HaEWNu+adyHGHWi96tH69VUNGlRmJXnz6XOAc0cBPnWbsrmDliH6TusNxcI1VLX6QkZZpSMxE4/9hWb2RH5BgwHjHn8u/hHCEzSMQrJ49zjMmFt/jnBY3Dh+e8IYXKFQvM9TO9zmetYYDm4/RLHo2xurSu0wdbGu/M5fR25zkQ/y3qfN1ZUcPbWJ2dzhEkhtQdC1WRc7pW+it8g508pBgmuGhiX+uladmnz/FFSOHKAHw7opGNS4fSh9pKlNSDsZoDp5GoHr8JgEvjnbWs3u8cBzRwO8c/I1cTDTVSHf0CJNbAHh0VGeaj+jdA7mSoYd7i7x/jLvVqJ7seu5xAuwxZKJkw3Wls+/LnDeID3IvKqeQc5FLu3yP6Si3HvTLxHEYRmlLAAQ3cTjKVnkOvY6wppS6lzjAEmVundPn+/gwqrXX8q2r+pyeUiW/GSQKnKt+ZY+wns0DeMLrUmH+1q4tjWkYUqZw4mEKHjiQylQ9T7+xXTBfZ1a/PueeABq57XsUt+RqAux1TQyQapy4ZVqx0YKCx5llE+qiMOtbKf3NKH6yLW2Y97Ok+Je2FUI/vxoeCFnEn4uJeHLeqrMRMncOMjiQa7TgO1mqyE0eTP6+BmzzvYlfSBfFlOO/ToZ50CZakZGpSlcvg/647KHYA5E4aJOeDb0USOC5+7QZUsc643BgIK/YtY3qJ+04uN1KtOl3GMS1zU22ANdlKXGrkPENNjnpbPYFynD+m84em1HBAA9cjvj6B9KaftlpaOe3DsSotzFYiyOevrnAtjbjC+xvnDfRU+jK4nxkgKdHpteVEHA78Fuv9voQ5YW5bieNj5riCADe8qZ6BViE/Ytayet8bDmjgesNHY9z3CnI4HWhdN+jrGKNyiRCVJxVTxjysyPUUryucXhmtyJ0cr7zTcaq6dP7f06ohOJX/C8a1T8PPWWUVZ0bJSzE0kEuS/An3xphfFcCd2tHn3XNAA9c9rxxLPoSVCNbDvZEqIkP1rj+q1FixTnXhD7BqwDvI7OhGnQwjWv1fcOLwkqiuq9ReaxtcMvR+SFvmqLISDVtMyH5MWVTacpzP/MxOieas9ej9xDmggZs4z+JewekPhs5RmpHOxdTQl2H8UTldcFrowqW7BQ1WCu2zXRuUXrRce0ns4wZIRjt6B6C9bVVl3LZ5b5z3lffH8Tv9p918jOza1eecOaCB68yjhEo8jpSqnK+l5Zj+yz+EgSneYtD09f3Sa7uNhbDtGuEU0mp4aHlJuxFI/DGkaLyPBqXxTzB99QrGtaoyXD/o+qNLjUXP2C+W4zKbbr2+vLyXbKxLA9fjp85g9zvWVIp1rZKHEUN3YbqFCcRpvLES1covvLLbWD3Aeo77lF70zvJaijG4nZZfht1Z6S20x8ySTFKnAi3XQbp1XC9j/VveEy3Ov1hXhbWTOtZlrVvve8MBDVxv+NiulvWInOGLLFXm8QiU//mJfeLmlmLupgnP7xS//KiqXT3cIXBe29V+pYEOhZI8wNUXGOgviV5Of0Y+qqvf3m9Mb6k+FjS23YhppPMx/cPkeDR0/fTDg8bHReVNJevWv95yQAPXW37GansS00OPfVobCzbntA6DCJgSRkV0mbwBUm7q63uM9XtkGcMwBWeGVBBDA6WBitM3P/mwUlzz9j5jPSFVe5yXnoulTri0JzUJflQe2lQj/grJzGVUNKWPA+q3KH3t+7YlvtR3Y4xIdZNxsSS+8PMBXukWaBy0/KPEO+7vO2LSl6o0Y19TQQQrA+z5kfnSa3vEnWviu2RSJb72yFJxo8k18lksj/Kbj6uU6nYq+qvrbONA27Br8Zbo29V2Tm95wAFOCz1yWl/Ds0g68DPtzA+RJ5lzvnZMHws3xAuHFoofQxVNFVH15UugcmOUbTLb47cxtfUdGKOYj4rEpOrMffW+iyU5ZT36t5McmDEihtfYhtDA7SRX41/OjBCPIFyPkUMSvLTCTntjn6MTBB+QHbjjt+rNGS4T+j+IVroG0laq+UwTezu8v5jLSjUO9qZlXUsHDpiAq1XlDtzx/gA9jqa/uVf8ESqpDP87G/OfS6cMdMw20ZWgpcRnfPBNMEYRtOzLM1CPb3rvgHgXklaD1vt3xW2NbcANiGVuL9LlEucAF4z+1vL9GBNWx/yUmS3i5XMGiO9CBVUtnpV4K95cQV/mS+HL/ChU/KnwQ6b1mMN0Lr59M0BLq7mmruVAG3Aj4vWu7Yr/W+c48ha8+NdgukXG7xIk947vI5aeO1AwEL2riZFID5xaLhZOKDfia6mq0z3y++g3x+VerDnU1ffYLdu3CNY24Ia1xE3HA6V6ySCD01/YacS2ynV1TulbIF46e4D4w+n9EGmT2yEQP5V94wIMDEO8HQtj/+OsAWLW4SWGrzWl7GqMY+eu2C/uwxyzKqtjKvul6zZxwCJYO+ZYMZXVm6njABPKnfPybvFVqKLMeCENP1cgIP2LsCS/ibxOP4PvLzM5porokslxLIFKv+MhSOrOwAESE+D9bmONeBDqMed79Xg2ypdM+d/6mFq7s2TLUlggJmVK57KlH4zfvQfqMoPRmUHDTHSQ4Fq2zCjBIAbV6gHm8k7btBIPR1K7U/sViCtGlIgzBhS0Cz2kIW0Z2mLCdbapKUM4YLIos0ftgfvIlkkiKJZmSFezqhuUdFw4jA4aM7GqARe7kw8HGqvhxFEBKfgBgg1o2WVUEYPyGczANWpZJmJarJar5bEOjqH5YWCSc46hJwKwXMu3BGliKXFJvJbWbk7z3AvAvrc/GiRhnNT/MoEDC8SMEfPNHZHvRtuxxVtYYF7bAb2Vbg6MQuQNs0pw3peSseNDivaIluqdSLTOpOPRBbQJQayqALDS8aMP/voBtPxVEbBqJABgLikGy69EfLBeWU/FqS491gG07I36ndAqc5c+Kflg6NV0RGmu4bU0BdKyHAAsNknKRDtJY1M9rGF7EdL3NmJtuTI91eE6IFiPYRPlZprKW1Rk2araOBUSCwQ92/R4V/Ip7b+UnZw+op8yp484l8oUqEdAGh8BqzNX0xvbG4tzYZveWNbFsekfXQXHf047McSQ9TASiEYxhvOp0tCk/SZ1g/YcCIvJ8QqoJa4srdVmyYmM/uX4mIEL/CVFJWvE1v84WlL/z0gOcM6WwnPWiGXx+mcPXF4VBS+35vGfJs0BzYEUccAFYGXLzsCVJfnbBmKOjs8wn+rSba3Sdyn7u13jFi+kLu0/HSuk85ONhLX2MTHgWq/OlH09jZUpT6I79ENppe0OHTf3UT1PYC7RHbYT+FJ1h9vRfUwhB6R0S2ET6ajaH8AlpzJJ/UnHk9NtJMcBn3zk/QNcWuE0aQ7Yc8A374g/xrjyYWnHEckJ/WvlADWy6SMmWw93133/SFw+AS11u+t7mPp+W8LiUt9galvwl8Qlr7SFObVvTPes3ReWZDPr/SVxeWdR44NvxjLmh6W3k+KA70BLLvhP4spnq901JSey+deXoOUD9S9weXcavORCtpJvQcsH6m/gyldWA1hywv+/Cfj7dmdmZAdw5RMigOljrX2bJUf88Sudbxwiavxxs9G7yC7gmp9cVApLLmROwIS5j3o7PgeSdM6PX6E+ozmgOaA5oDmgOaA5oDlg5cD/A+qplueDZ5IZAAAAAElFTkSuQmCC;" parent="1" vertex="1">
          <mxGeometry x="615" y="747.5" width="110" height="65" as="geometry" />
        </mxCell>
        <mxCell id="2x6z2sCF0aa3ZfLK6q7P-66" style="edgeStyle=orthogonalEdgeStyle;rounded=0;orthogonalLoop=1;jettySize=auto;html=1;entryX=0.5;entryY=1;entryDx=0;entryDy=0;" parent="1" source="2x6z2sCF0aa3ZfLK6q7P-67" target="2x6z2sCF0aa3ZfLK6q7P-65" edge="1">
          <mxGeometry relative="1" as="geometry" />
        </mxCell>
        <mxCell id="2x6z2sCF0aa3ZfLK6q7P-67" value="stock-pa" style="shape=image;verticalLabelPosition=bottom;verticalAlign=top;imageAspect=0;image=data:image/png,iVBORw0KGgoAAAANSUhEUgAAAO4AAACECAYAAACXgRceAAAAAXNSR0IArs4c6QAAAIRlWElmTU0AKgAAAAgABQESAAMAAAABAAEAAAEaAAUAAAABAAAASgEbAAUAAAABAAAAUgEoAAMAAAABAAIAAIdpAAQAAAABAAAAWgAAAAAAAAFKAAAAAQAAAUoAAAABAAOgAQADAAAAAQABAACgAgAEAAAAAQAAAO6gAwAEAAAAAQAAAIQAAAAAyiTvzQAAAAlwSFlzAAAywAAAMsABKGRa2wAAIsdJREFUeAHtXQmYFNW1vt2zMQsDw7CDIKKoILiigs8nuKDGxKgRoxLZkhDFaGJc8mL8BKKJMcnTxJcYg4qCMYkao1mMu2A0IriACIggEllkZ4bZt+5+/189t6em5nZVdU91T0/1Pd8307XcuvfWqfrrnHvuOecKoUlzQHOg23Eg0O163M07PGfOnLyWlpZ+gUCg4eGHH67A7US6wy1dddVVxQWBgpGhSKgskhPhe7Ortrb206eeeqqpO/Tfb30M+u2GMv1+GhoaSkVYXB5piVwxffr0I+bOnVuS4X0OXHnllWU5OTlnhgKhB0RQvIJPzVJ8eG4pLy/vneF99233cn17Zxl6Y/n5+bnhlvDYsAhPDwaCO+tr61fNnjn7XwDES7m5uesXLlzYnCldnz179mAREl9EX78CsJ4cEREN1Ax5OBq4XfcgqO0MARiGRCKRCwCQBU3hprUAyxPhcPglAHxrRUVFPVRRAjkt6vTUqVNz+vXrV1hXVzcCEvWr6Mc0tD0Mf1ozAxMyiTRw0/w0ANJmwGB3IBRoAWgl/zlmLAQ8x4dD4fHYrm1uav6kuLh41cyZM98PhoPvNoYa1z3++ONVXnd3/vz5wa1btw5Ev8YHIoEJdbV1E9DGOOzHla4BEWhB2T3Nzc0tXvdH1+eOA9o45Y5PXpYKTJs2rSckKgFyUyQcOQO/BLDyWRAkONeAv12Qgi/miJzFJbUla+958p4G7CcliQnWPXv2FNXX15+M+r8ByToJ9ZfhLx9/SukKIEeCwWAjevkyPjr3osfvLlq0qAblk+oDrtPUCQ4oX5ZO1KcvTYADN9xwQyHU4ZOAiSsAoMm4dCT+8uyqMIAcEGsgrf8OIL0Cqbfqscceq7W7pvVcYO7UucX1JfUnQlpOQZsXAoSjiUeHa6vxgViPdl+NBCJP79q1a93zzz/f6HCNPp1iDmjgppjBbqrH2DIfavFgAJGAuhpS+HgX11HSVQSCgQ8ArDuGDRv2BiSpUnXF8Vyow6dDsi6AfDwG11ENtn32qPMgyv4dYF0C7WDVxo0bK5ctW6as30VfdRGPOWD78DxuS1fnggNQo0sBlPMB4KsAnBMh6fqaxsLxaggDaI8BissBznbgwvG8oAhODEfCX8PFds87hLYqANSNKP9cbiT3iYWLF26O16A+3rUcsHuQXduzLG+dAC4IFowKB8JnAW5TwY6x+OMY1GuqR/2rUOmz+HsDwN+0ZMmSA9jWY1evOe1hfRq4HjIzRVUFoErn9ezZ82SAajrGp5MhgftDOha5kMTWLhGM9HSqgSTejuv/BseKJ6uqqj7CtFPIWljvZy4HNHAz99koe3b11Vf3h/fVaAD4aIDvaIBvFGTjMEjNQVCvS3EsZmzCPoFK49IWlKPauwGH1uZF8tY1Rho3uzRqKfuhD3YtBzRw08R/SM1CSM3TIDVnQVo2BHOC927evHlDZww+dJgYOHBgbmVlZW5eXl4wWB8saspr6gUjVxH+Io2Njftxe1UwfLXAet0yZsyYFhiqwgnecgD+1bktDS0nYaJoDryoDsGH4DPU8SZ+X4S3195M8vZK8N66bXEN3NQ/ugCcKIYDrPMh7WggymltshK/L8Aq/DTU1bcffPDBHQBCxowr+VEA4A8JRoKnRYKRr8DSPRn9tTplVEHS/xPHF8GgtkwDuPXJpuFHAzfFTAYASkqKS14EaOlwYeU3gdqAo58BtP8AgBc99NBDH6W4S7bV0zkDU0dj0d9vAKzno/Bg/PXAn7Xv5noOQoO4o7q6+pd6rGxmS+q27R5G6lrNoppnzZr1cwDgJpe3XAsArwBEngmGgisbw43bioqK9qVSkuHDkl9YWNgPH43hkVDkVLR/MdqnUwjB6ppwXRhaxdcXPbroUdcX6YJJc0ADN2nWOV84Y8aMkXihP4TxqNC5dLsStPBSld4BMGwI5ARWAkjLWRfcDKvblUxi57rrriutqak5HgauCRiz0kd5FIxXQ1BVL/zFjFtJVF3R3NI8Dj7V25O4Vl+SAAekk3sCl+iibjmQF8y7HIHnhQCF20tkOY6Dy/mHa8dBEl5GRRWSu3bWzFmf4PhqgI0fhE/DwfB2SMuKQFMgFMmPhOECGYGhKhAKhQI4novfvgD8UMQAH4brOBd8XHVV9Sj85st+yV8c6xShnTKMdWejkh91qiJ9sSMHNHAdWZR8AYD2HEjK5CswXxmtphj1HYvDxxpgo76E46GWUBPkZLNoEc2I8Q0hwigHwM7F8QKUyPOsD+b+KLbZDryupuCUBq6CP14e0sD1kpsd66KESwfRo4p/BqULqLI98y++GhPN+3o7NRwIpqZaXSs5AAD1yTZOQF3WdpM0PHQN3DQwWTehOeA1BzRwveaork9zIA0c0MBNA5N1E5oDXnNAA9drjur6NAfSwAEN3DQwWTehOeA1BzRwveaork9zIA0c0MBNA5N1E5oDXnNAA9drjur6NAfSwAEN3DQwWTehOeA1B7Lb5fGRLZO8Zqi5vl0fLDbvZs92ivkaY+SsEcti21m2kV3uaXyhgmISIm3OgHP+pCx71n6+3QWIflomsgjI2QFcAjZHzNNg9TN2Y/e2QMwYMT+259MN/wN3yZalGrA+fXvj35bvwetf4GopG/+1zpYzYTHZr+qzP4EbHcsuzZb3U9+nLQd8KX39OR0UFBq0tu9yVp2cJ/gh9xn5D7gc02rSHDBzwIcfcn+pyou3zMfzmmd+Zn7c5kPLCwZET6zDV5IXEEU5AYFd/AZFPtLMVTQhd2MEiwThX3VzRFQ1h0VjCAeymQKYLpo+YrJfWOA34Pr67SzODYghRbmiX4+gOAS/R/bKEyN75hrHgF8xtDhX9MkPitUVTaIZoCWAPz7YLD7C37bakNjXGBI760PiII77mlHx0OkjY5V/PKei0jbeI+uWx/lVLYA0/e8BPcRXDy3GbwGAmSMI4Hwcj/fVPQPlzUSQEsh1LRGANyze398onvhPrVi2q8EAd9aAmHP5ApLXBxTv2Xe/W1uMBel8QvnQe88c2ENcMLRIfGV4kRhUKJcb8vYGP4f0fWFHvfjbtjrx1t5Gsbch5G0DmVjbjBG+eOd9cROG1dAHBohCSNHJAOx9J5eLYcU5xjjW+u5TctZjvMq/XQAe1eCNVUipjDX4qArXYEw7oiTXkMj9CoJibFm+GI59joN74I8S3PzQ+bVrQZ2fVLeIBzZWiz9uqRX7UQ8O+ZN8oi6bn6G7B5WJpnX6H3dzo9TcI3uK2Yf3FCeWx9Ijx54HMfTOvkbx0uf14r0DTWIjwLqjdawaK2SzQdV6IKT2iJI8cUKffHHWoB7ilH4FoheMW2ai/epjfAQe21wjfv9pjdhe50MJTCNVSCww33eXbyfhY+0OuNoLKSXPlpbgo2Fguv+UcmMca24Ew1EYlFrE81Bl71l/UGyGRPSShsK4Ne2wYmPsfDgMXLRQm+ltqM53rT0oXsbHgtJdU4o5wA9KRLzu1s/aHrgasCl7WrlA7b0nlYkrR5SIPlBpzUT193vvHhArAZ4DsACnivjwSwDY4yGFrx7VU1w8rMhQp2V7nEb682d14hfrDhoquTyuf1POAUdvr/jAzZI50ZQ/AkUDoyFl/w/j2EkYz1LqSvqwskn8ZM1B8SdYfNNNGPoKWqOvP7rUGGeXmiTwcnxAfvRBpXgNVmjODWtKCwdswWt6bUyd0aA1McPbzUuHF4t7x/fB3GtOzEhEg9NtqyvF/RuqRA115C4kGrAoeb9/TC8xDoYt+YLsgcV5Hvr4OIxX1ZDEmtLAARunkY7zDBq0KXsiVEcJ2gEwFElAUJpdsmyPoZKmUCt2fU/8bqytbDYMYQTxkaV5hiW6OBcWwIHRZX7XQ5Wv7eIPjOsb6t4FDxUXfzcgnv3VMuttyPen7biP5kPbbqprtzgve+PoUnEzpFgZPJtIlLIPbaoRN793IGNBUIB+XwNr9w3o+yHwyuLLQjsVjWW/+qhK7PCj1dl4Ohn2TzGF1V7iRqXtpAzrdrfvzrxje4vvjW4DbSNAe+2KA+JuWG0bMthiy66thJcVjWV0r6S7Jcfkp/brYcwxr8WYvArzxppSzIGgOFQ886vF5lbamzO7+Vyo+cYyYZsGn28fVSq+BRW5d6ukpf/w9Df3icWYK+0Ohh7aouhddct7FeLNPY2GxOV9XYf74rxzX4tFPBP47rs+MD+axX+iDbiWE767+S64oWmHlYibx5QiKCCq2NDwdNnre8VfttYaqnK8Lh0GT6ejIOHSRcOgBnM+GX4acYl+zdeu2G/4N1PGUvL+YGwvzAWXxD5KcS/WJzznQBtwo95HnjeQrRVybpTjWjk2pCV2zvJ94o09DYZ7ooovBM43jugp1l80RDwysW+7qSJVeS+O0atqxsgS8eqUgeLuE/sY7pHx6l2DqKN5H1QIGtQoiWm8Ing5rcXxsKYUciAaIBFroA24sUN6o7McKIf6eNcJZYYU4+tMA+zNUDXpzB8vLpYAWnbuILFwQrkBglPhkkg1O9V05qBCOIEUG4EM38Uc7sMT+orTMZ8bD4b/hrp855pKwTln0gBoEz8EeMeW5cW9JtX3kI31m4E7LxsZ4PU9U/DcOra3OKVvQSxI4NeYn33qs9q41mPG1L5x3iBxWv+Cdi//fBi1DoXanCo6vGeeuAzRR1ItZ9/px3wfpqy+iMikeEKUY176M3/ealU+qbxAzME4nvHAmlLEAUsecDNwU9RidlU7BRLsgqGFsXEfJRSBW4E4WBXRT3gp1FSq1lbi1BH9mFNBVHPZz6lwCLHScejLL+COSWcR1biXY9xff1wtXjT5MU/HWHcitATWqyn1HNDA9ZDHdBNklA+NSyRakG9fXSG2IvsEX3YrDYX31HNnDbCVVGdDAl4FUHhNEwCymRjbMsxPRaPgeHHHcb0Nyas6T5X/p5jOehfTRbw31nMTDHFH4DpNqeeABq6HPJ4+slicALWR+aBIv4VUokGHzhZW4jTK05P6C6qrauhEr2BdPz6+t+jfapm21pPMPq3IlyOjBiWrHRG8ND4xRlhFjAP+E1wgtyOKiUSV+RK4S+opIhW3vD2mgesRPwmsiw6JGnlY5TuQRH/YUoOg9I4qMoH66Gn9EHtbEHccae7WYDg+3HNSH/OhpLf5IaAU5zSOGzoZY3UayY7prQY556NX7GuKzUlTOxgGjcPuY+SmXV3GngMauPb8cX32Uhh5juwV9SyigL0f0vY/NS1KFZlTPpRicbTUDm2y3EWQZByTdpbGI1Cf7dOK7Za+fEgRxrtFHcIPeT19lh/dXC0+bY0XpqHtC0OKRJl2zHDL3qTKaeAmxbb2F3Fsy/xQgwqjY1tK25XIWKFyxOcY8LZxvURhAsBha0Uo/3PMs1oD3tv3xH6PuasugcGJ49tEiB8OWo0nY5pIZWmmlZljXRlw/zUE6NM90v2nIZHe6LLkgAauB+8Bp1AoaaQEXfRJjdgKaauiBZjiMUcHqcqojhEEzCVFg1EyxPBaxtvOPtydimxtg6CfDmPWmF4dVWb6ND+NgHs51uXY+JS++cbHxlqP3veGAxq4HvDx3MGFgqlgSAx5o7RVxdUyzSrHl8l6GXGqhWNIeiolSmMxRv0mpKaMTkr0epbnfY4HIKXxzVwH82Ex4RydTfiROR/qcp+C9jEs5vJ6u3Mc0MDtHP8EpQsNN3LM+M/t9Ub2RVW112KqqLQ12EB13s2xXrj+ruPLEpJmtPJ+CePUeNZhN+2yDKd8GGTPGF0r1UHsLoU/877WFK9TAHImC1Cp1tZr9X7iHNDATZxn7a7geHEQXlASQ/Re342XV2FJpicVXQmTlbayUarjx/TOEzchTNANcSg9sX8PcQ2kLSVhZ+lsOJgwEyVjjK1Eh4zdrcAtQcO8Zwbga/KeA5qrneTpsUjvIuctOWf7GeY0mafYSlMxb9oZw5K5vmIMWGdhrOo0D8trRiHq5+soy3G1F0R1nR5S8mNlrpPxuZ9UtQjGG5P+Cx+MUq6NoslzDmjgdoKlVFsZYC4B+c7+JnEAycStRDWahiEmJbcjWmX/BYntRKxlMKT8nceVCSZRj0ccz16AsSb9jp2IUNsCgxqnsJzoDIyxhyv8kolXfry40BiJkrlES1wndiZ1XgM3KbZFLzoKYz2uFiChswbJyisViaMmIGMErbIK7bJd6w9vqhYXL90Tc2Zod9KyQ1WVEUSck1UR26L/83VH9XRsl9cTcLe+X2GsZEADkx1xjMvABNVHg9NCkgcMkOAqCrRoa/KWA5qlneAnpY40NtEveVN1s7GwlrXK07FYF8d8dkRpuwApUJlH+Ztv7bcrGjvHfMzMrsEgeCtx6ohzr4wHdqKDiBV+Cilh/4wIpn9iTnb5XmepfxyGCDJBgLl+WtVlFkjeMYMoVONh8zV6O3EOaOAmzrPYFYdgfR+pJnMdH04BqYTVaMx9OkXNEDTSqLUEy388B+u0ExEYBCj9ic1GL/bpHBiRVJE/1jrZX66W8Af4HFPSrj7QKN6Dyu9EnLeW6XjMZXci1I8fMXyHDOI0mQaumUPebGvgdoKP9A7q2SpJt9e1wFOqo18yx7d8ybksph0txIJbZpr11r6Yymk+bt2mR9WZSJt6OYLhSWxlDKzONyJSx0k1Z/kPoSJzoS+Ob0n8+KyGyr+1NXDAOKj4NxLBESrg0jDFj5jMp8XpsngRSIpq9SGXHNDAdckoVTGqqlKSbkfoHteftRJfcLpE2sGWqiod9c3EJS+vX3nAfCjuNsfPTKPKcEKqxnMw7mXUkRNRpWVWDkpcMzGr4yZYh+2I2gat6aqPAz2oZKaP4SU5WuLaMTLJcxq4STKOgOVqd1wDiEQpU68ALi3PDsJWrKtoVob+MbroL1vrHHvILnCce+u43sa6ulzMyw29urNB0D3TGnZI7YEr19sR1V+Occ0quizPNYckK3ICdp8seYX+TZQDGriJcqy1PF9HvpNOryWtzioXQXOzK+AiqSKOE7+zcr/Y7QAiXkupTuf+n51Y5krCUapyORGpIpvb34P2dtWrI5vM5fjBUOGSY1z5MaBU1jNCZq55s62BmyQfORViNro0YGwXinRUlVlG9XKbm7UbT3LV+OvfcacyU/qpLL3mtrjNqKXntteJZ5AmVkWUlnRhVDmSmMuzLdWUEC3krT4YxkfL6eNmrlNvu+OABq47PnUoRRWZEkdSlSFl5F7bb1+83E7OQzIcru2qti0CgONQBqx7RXTL5Orz0vKrqpf3Q/BqykwOaOAm+Vw4jjMvH8IMGNJQZa6Sai6K2tJBgMSOaOi5bVWFsdC1XTk35zYh3czjmG7yYqHsEL4qCiWj3fBBY9/NU0m8jAZu4jxL6ApOi9jDErmJHfyIKfdo/OJi150hqsgvIBDgScTOOhE1CifDEp1FOESwEnMtwyZnEK3jilky6yV6P0EOaOAmyDBZnNKW0ylyHFgCfVhlhNkP32VZRl5r/XUTI8txJ6dtHk1SZSa86BH1mw3Vjv3hCIBztE6+1eSBSqLSGBdsHdiz3x2hbeWA3k+UAxq4iXLMVJ6J4BpaxSkTuhUpkEsppxBKplqEOMEh26IszHliukWqLMGyTLzfzXDHXLK5VnwMVdmJaKHmagzmMbz1GlqNo+P6jrBk5BAuN2gHppakhdlah95PngMauMnzzpjrrGkdwDJHcrFiwpYpTDk9Ygfe45Ht0Q0RIlw9gCqzXX3WuqgZvLijASqy2opsLc/II6q7drQNDid00bT2gywgL6S3FMfSMszPrj59LjEOaOAmxq92pbfBQ0g61NMnt1hhPqbEpZSze3n5oo+Fm6Ib4piZK+f9zuIiGe9aAut9uDA+sLEq5s0Ur6w8TmeOwxVZLuR5/n4CCc4PkpWi0jon5phCHjkZ56x16H1nDmjgOvMoboltkH4y9pQGJs5rqpwtPjrY5AgaJmJzS7RC37O+SjBw3YkY2L8E4+K1lc4qsqzraARFjIT7pB3xY6SKPba6eG6GD7R0f7SrT59LjAMauInxq13pjfA+ovGJxFgDZsPopZC6K/Y2KVO1miu7EkngMLR0RVSZt2HsePvqynZTUtaLKe1f3RmN/LGei7fPONuTEAAvVd145dbhQ6BK9s4YYLp5kug2ybG1DDiIV5c+njgH7D+rideXVVcwvxIlymkACKN0GKNKa6wMz5PM4Jq4n8OF0C6YfjAk9rdGlRoLhMnr7H4pxagy01h1JjJHqky37BsXHDPPN9vVyXNnIbsFs1HaEWNu+adyHGHWi96tH69VUNGlRmJXnz6XOAc0cBPnWbsrmDliH6TusNxcI1VLX6QkZZpSMxE4/9hWb2RH5BgwHjHn8u/hHCEzSMQrJ49zjMmFt/jnBY3Dh+e8IYXKFQvM9TO9zmetYYDm4/RLHo2xurSu0wdbGu/M5fR25zkQ/y3qfN1ZUcPbWJ2dzhEkhtQdC1WRc7pW+it8g508pBgmuGhiX+uladmnz/FFSOHKAHw7opGNS4fSh9pKlNSDsZoDp5GoHr8JgEvjnbWs3u8cBzRwO8c/I1cTDTVSHf0CJNbAHh0VGeaj+jdA7mSoYd7i7x/jLvVqJ7seu5xAuwxZKJkw3Wls+/LnDeID3IvKqeQc5FLu3yP6Si3HvTLxHEYRmlLAAQ3cTjKVnkOvY6wppS6lzjAEmVundPn+/gwqrXX8q2r+pyeUiW/GSQKnKt+ZY+wns0DeMLrUmH+1q4tjWkYUqZw4mEKHjiQylQ9T7+xXTBfZ1a/PueeABq57XsUt+RqAux1TQyQapy4ZVqx0YKCx5llE+qiMOtbKf3NKH6yLW2Y97Ok+Je2FUI/vxoeCFnEn4uJeHLeqrMRMncOMjiQa7TgO1mqyE0eTP6+BmzzvYlfSBfFlOO/ToZ50CZakZGpSlcvg/647KHYA5E4aJOeDb0USOC5+7QZUsc643BgIK/YtY3qJ+04uN1KtOl3GMS1zU22ANdlKXGrkPENNjnpbPYFynD+m84em1HBAA9cjvj6B9KaftlpaOe3DsSotzFYiyOevrnAtjbjC+xvnDfRU+jK4nxkgKdHpteVEHA78Fuv9voQ5YW5bieNj5riCADe8qZ6BViE/Ytayet8bDmjgesNHY9z3CnI4HWhdN+jrGKNyiRCVJxVTxjysyPUUryucXhmtyJ0cr7zTcaq6dP7f06ohOJX/C8a1T8PPWWUVZ0bJSzE0kEuS/An3xphfFcCd2tHn3XNAA9c9rxxLPoSVCNbDvZEqIkP1rj+q1FixTnXhD7BqwDvI7OhGnQwjWv1fcOLwkqiuq9ReaxtcMvR+SFvmqLISDVtMyH5MWVTacpzP/MxOieas9ej9xDmggZs4z+JewekPhs5RmpHOxdTQl2H8UTldcFrowqW7BQ1WCu2zXRuUXrRce0ns4wZIRjt6B6C9bVVl3LZ5b5z3lffH8Tv9p918jOza1eecOaCB68yjhEo8jpSqnK+l5Zj+yz+EgSneYtD09f3Sa7uNhbDtGuEU0mp4aHlJuxFI/DGkaLyPBqXxTzB99QrGtaoyXD/o+qNLjUXP2C+W4zKbbr2+vLyXbKxLA9fjp85g9zvWVIp1rZKHEUN3YbqFCcRpvLES1covvLLbWD3Aeo77lF70zvJaijG4nZZfht1Z6S20x8ySTFKnAi3XQbp1XC9j/VveEy3Ov1hXhbWTOtZlrVvve8MBDVxv+NiulvWInOGLLFXm8QiU//mJfeLmlmLupgnP7xS//KiqXT3cIXBe29V+pYEOhZI8wNUXGOgviV5Of0Y+qqvf3m9Mb6k+FjS23YhppPMx/cPkeDR0/fTDg8bHReVNJevWv95yQAPXW37GansS00OPfVobCzbntA6DCJgSRkV0mbwBUm7q63uM9XtkGcMwBWeGVBBDA6WBitM3P/mwUlzz9j5jPSFVe5yXnoulTri0JzUJflQe2lQj/grJzGVUNKWPA+q3KH3t+7YlvtR3Y4xIdZNxsSS+8PMBXukWaBy0/KPEO+7vO2LSl6o0Y19TQQQrA+z5kfnSa3vEnWviu2RSJb72yFJxo8k18lksj/Kbj6uU6nYq+qvrbONA27Br8Zbo29V2Tm95wAFOCz1yWl/Ds0g68DPtzA+RJ5lzvnZMHws3xAuHFoofQxVNFVH15UugcmOUbTLb47cxtfUdGKOYj4rEpOrMffW+iyU5ZT36t5McmDEihtfYhtDA7SRX41/OjBCPIFyPkUMSvLTCTntjn6MTBB+QHbjjt+rNGS4T+j+IVroG0laq+UwTezu8v5jLSjUO9qZlXUsHDpiAq1XlDtzx/gA9jqa/uVf8ESqpDP87G/OfS6cMdMw20ZWgpcRnfPBNMEYRtOzLM1CPb3rvgHgXklaD1vt3xW2NbcANiGVuL9LlEucAF4z+1vL9GBNWx/yUmS3i5XMGiO9CBVUtnpV4K95cQV/mS+HL/ChU/KnwQ6b1mMN0Lr59M0BLq7mmruVAG3Aj4vWu7Yr/W+c48ha8+NdgukXG7xIk947vI5aeO1AwEL2riZFID5xaLhZOKDfia6mq0z3y++g3x+VerDnU1ffYLdu3CNY24Ia1xE3HA6V6ySCD01/YacS2ynV1TulbIF46e4D4w+n9EGmT2yEQP5V94wIMDEO8HQtj/+OsAWLW4SWGrzWl7GqMY+eu2C/uwxyzKqtjKvul6zZxwCJYO+ZYMZXVm6njABPKnfPybvFVqKLMeCENP1cgIP2LsCS/ibxOP4PvLzM5porokslxLIFKv+MhSOrOwAESE+D9bmONeBDqMed79Xg2ypdM+d/6mFq7s2TLUlggJmVK57KlH4zfvQfqMoPRmUHDTHSQ4Fq2zCjBIAbV6gHm8k7btBIPR1K7U/sViCtGlIgzBhS0Cz2kIW0Z2mLCdbapKUM4YLIos0ftgfvIlkkiKJZmSFezqhuUdFw4jA4aM7GqARe7kw8HGqvhxFEBKfgBgg1o2WVUEYPyGczANWpZJmJarJar5bEOjqH5YWCSc46hJwKwXMu3BGliKXFJvJbWbk7z3AvAvrc/GiRhnNT/MoEDC8SMEfPNHZHvRtuxxVtYYF7bAb2Vbg6MQuQNs0pw3peSseNDivaIluqdSLTOpOPRBbQJQayqALDS8aMP/voBtPxVEbBqJABgLikGy69EfLBeWU/FqS491gG07I36ndAqc5c+Kflg6NV0RGmu4bU0BdKyHAAsNknKRDtJY1M9rGF7EdL3NmJtuTI91eE6IFiPYRPlZprKW1Rk2araOBUSCwQ92/R4V/Ip7b+UnZw+op8yp484l8oUqEdAGh8BqzNX0xvbG4tzYZveWNbFsekfXQXHf047McSQ9TASiEYxhvOp0tCk/SZ1g/YcCIvJ8QqoJa4srdVmyYmM/uX4mIEL/CVFJWvE1v84WlL/z0gOcM6WwnPWiGXx+mcPXF4VBS+35vGfJs0BzYEUccAFYGXLzsCVJfnbBmKOjs8wn+rSba3Sdyn7u13jFi+kLu0/HSuk85ONhLX2MTHgWq/OlH09jZUpT6I79ENppe0OHTf3UT1PYC7RHbYT+FJ1h9vRfUwhB6R0S2ET6ajaH8AlpzJJ/UnHk9NtJMcBn3zk/QNcWuE0aQ7Yc8A374g/xrjyYWnHEckJ/WvlADWy6SMmWw93133/SFw+AS11u+t7mPp+W8LiUt9galvwl8Qlr7SFObVvTPes3ReWZDPr/SVxeWdR44NvxjLmh6W3k+KA70BLLvhP4spnq901JSey+deXoOUD9S9weXcavORCtpJvQcsH6m/gyldWA1hywv+/Cfj7dmdmZAdw5RMigOljrX2bJUf88Sudbxwiavxxs9G7yC7gmp9cVApLLmROwIS5j3o7PgeSdM6PX6E+ozmgOaA5oDmgOaA5oDlg5cD/A+qplueDZ5IZAAAAAElFTkSuQmCC;" parent="1" vertex="1">
          <mxGeometry x="615" y="889.5" width="110" height="65" as="geometry" />
        </mxCell>
        <mxCell id="2x6z2sCF0aa3ZfLK6q7P-68" value="" style="shape=image;verticalLabelPosition=bottom;labelBackgroundColor=default;verticalAlign=top;aspect=fixed;imageAspect=0;image=data:image/png,iVBORw0KGgoAAAANSUhEUgAAAJEAAABHCAYAAAAHv6URAAAAAXNSR0IArs4c6QAAAARnQU1BAACxjwv8YQUAAAAJcEhZcwAAFiUAABYlAUlSJPAAABcxSURBVHhe7Z0HfFRV9sd/U9NDIIUSQigBQgs1BgioFJcVFLuiouKuiqu7oqK7q7t/pVhYcAGlKGUVQXcRVBCRIk1AwADSCQkJJKSQOultJlP+5953JzOZzCSTQorM9/N5mXvPfe/Nm/vOO/ecW15k6enpJtjBaDQiMysbp89ewPWMTFxJugadrhK9eoYirGcP3DH+VsjlcrG3i5sZh0pkD71ej7TrGYi9FI/JkyYKqUTc5US4uanRI7SbkLi4WaiXEtXGth92Y8P/voZfO1/M/OOTGDFssChx8VunyZSIkZqWjlNnziPxajJSUtPQt08YQkO6YvTISLT3ayf2cvFbo0mVyBrW9CVdS0VcfCLOXYhFUvI1LHz3LXRo7yf2cPFb4YYpkS0GgwEymayaMz77jTkYPGgAHn5gKtzd3ITURVuj2ZTIFhb9HT4SQ1FfMs6ev0jNnR+Gkx814bYx8PT0EHu5aAu0mBLZkqvJw7Hjv2LPvoMI7xuG4UMiEBU5TJS6aM20GiUyw3ypLdt2YtO32/DCczMw7tZoUeKitdLqlMhM0rUUXIpLwORJE4TERWul1SqRPQ4ePob2FN1FDOwnJBaOnzwNpVKJYUMGCYmL5qJNjVvIFXLMX7CYR3XMhzLz89HjWLR0JVau/kxIXDQnbcoSMTKzcrD/4M+IOfErJo67DVeTr+FYzEnehcD4cNF8dOnciaddNA9tTonMsLG6t99ZxLsKrHlmxmOYNHGcyLloDtrcMHxBYREfo1vwwbIaCsRIuJIkUi6aizZlidgg77ff7UBpWZmQ1ITNJFi/Zplrmkoz0qZqesrvJ6Jz544iZx+tVoes7ByRc9EctCklUigUePP1lzB1yiRucRxx8tQ5kXLRHLQ5m+/j7Y0nHn0QC995C91CgoW0OhcvxYnUzUdZoQ4mU/N6KG3WcehCzdq7c96wq0i/nj5XFfLfTGQm5ePqCQ3OHknkzXpz0aa9TzZ9ZNG7b+HxR+4XEgusL+lmIzUxEwadEbIiT2TGlqBS2zwPUpvtJ7KF9Rt9/uUmJIoQn/lMa1cshrv7zTNPqUhThpzEMpRotEICtAtRo/ugQJG7MbRpS2RNeJ8wvD/3TYwZHcXzzJyzuUo3E77+nugVFQDvAMuDU5iqQ25KicjdGH4zSmTmxedmYMK4sTx98VI8/7zZCB3qB/9QL5EDsi4XQZNSKnJNT6OaM9ZjzNaklZWX8869Du3b1zqHuqKigu/L8PLygpvacZhui/WxbLTe18eHpx2RkZmFPfsP4a472dImGZ+a6+xigaLiYuj11v6EVEVqlZqu25Ofyx7MmS8sKqKU/XJ7qFUqeHtbbnhDiD12HRWllQgZ6IvATu2FlH5HdjmSzmQDeiXPB4SrENwziKebkkYp0fwPP8FPx06IHJk1qtwxtwzDM48+gOBONTsF123aig3ffs/TkYMHYsEbr/C0M8z8+1wkJqfwdJC/P/63YiFP18b3e3/C0rUbRA7Y9ukyeHl6ipxjZr39Pi7EJ4pcdaKGRmDa1DsR0a+PkFhISc/A07P/KXJ2YDVto19jIodi7uw/i1zD2Ln2AvlD9IDRucc8GoLgEMsAdFFOBZIoYjMz8I7OUKiatgFq0NlOX4jF7HkLJQWyUkGjyYRDMb/ib+8tRkLSNSG14OHuLiXomBNnL+BcrHP9OSlp6VUKxPBv75xFiY1PqHZ91gpfG8w6VMGOtzpHzOlzeGXuv/Dv1euQk2eZjsJQKhXV97c51p6BYh2ojSUssj2CQ335Q3xqexaS47NECflJge7w72axdCmxuSLVdNRbiVhH1jsfrcaZWMnfYJbn+ScewfT77kJo1y5clpmjgY89E22uRPH59uKVKC+vkDK1sG3vQZGScNSc2HL6Il0j21XcyANHfpESdWI5/8SxI/HYfZPx6L2TcdvIEbwpZefbsf8w5tH1W8OUL/qWobxOxkTSRp8sbx7HY9c9esQQXjaWykaPGIY+PUJ5WWPoPTgYY6b1xeAJXVBWpEPM1hQkx2WKUqBTX294dZBch6L0SpTkWaK3pqDezdmZi3GYPX8RT48aORzvvPwCTzPKysqwc+9+pGZp8PKzTwmpha++34XVX24WOYnp907B09Nq9vOYibucgFlzF0Fv1XnYv3cvLJv/psjZ5+AvJzFv6ccI6dwR4yhiW//NNviSYm9Z+5HYwzGvv/NvnCJry1jy1l8R0b8vTzO27NyD5Z9v5Gn25G9cuYgso8UPsYX5jXc//Wfy6bRQqZTYvm6FpIhNwOXYJFJMUqJ+PYSE7s8vCYg/WABPXzUip3ZGp2CLDxR7IBOV5Qb4dnRDj+EBQtp46m2JEpItzdSoQQNESsKT/I0Hpt5lV4Ec8c2uvdxptkdJaSlmv7ukmgI5Q3FJKT5Y9Rm3GAPD++Cph+6Bim5cEcm/3vGj2Ms5WBNtzX133oEREdLvZmUHjtbeRErTVegcwrgZzNNXTEYoNF9L6QYSt68AxzdlIiM5X0iAISN7Y9DYYG6RDn2ZgjxNgSgB/EJU3CKFDOogJE1DvZVIqbA8Rcw/YKsz6gsz7zOnP8zrtpye0H0/229mmLxCK5neKeNv5Z/OsPG7HRTJSYoZJeZcDyTrxfh4/Vc4ee4iT9dKLfbZ2jLZKplDxG5s94KkzXC/NBHqjEUwpK6RChrA7U/2xuBxITj038vY8flxFBVK/UH9R3dBp17e3PVIvVDMZYwuYf4IGxkIpbpBrrBD6n22bl0snv+Rk2coAqrurzgDezrvHDcGCuaIEvuPHueftuw4IA1dMCsyXDz9zhCXICIrevq7BPnzZGiI5K8xTpxxYpTf4hbV4MeDR0QKiB4xVKTqgM5n1rcupi2QGdmcKBm8i9ZCkfmpVFBPfNt5Y+CtXdG+kxfykwzIvmLpC+oX1ZV/+viJYOYGUm8lGkxPYYiVIi1f91/c/+wsvDpnAdZv3spnHjpDebkWLz1J1ohgTvqcJSug01kGDXf/dKQqIhs1bJDdWYz2YE1fYup1nu4Y6M9fKMEYP2YU/2RciL8iUnVjHT2x9zP9a+V/kJYhRT/hPUMR3Mn5fpdKkwcUhdthKrsqJIRJBrVmFfRpa4WgbjJTC3Dgu0uopOthRE3tidCB/jizNwVXEyR3IyjEB/fMiiB50zZd9qh/c0ZWYbLoETZTWFyCs3EJ+Pyb7/HAzFeomTsvShzDHMK7Jk0kZ9eb5w/HnELCFUvl/nTkWFUTEDVsSK2WwZr4K0nkS0kzH0cOHVzlxA7o0wt+vlIHZXKapGTO8MO+g1hHD8enG7/FzL/PwY+HjooSYMLY0SJVB+J3qBUmtMtbLmWsIUXyKVwDRcY6IagdmUyFs4eyELNbesjaBXhizIN9IFfIUF5qibzYuGFTdCHURYMax4fumoRV7/0Dzz32IAI7iMhEVBRjET2t6ZnZIlc7L/9xupSg4385K0VEWTkaxF6hJ4oU5/H7pmB8dFS189fGlp17RYr8oL5hIiVxx63STWd+1nvLnfBF6Dv3HDqGDV9/jy+3/oCU9EyolSpq0jtjNgUP9/zOyQUB9Du0lTJM6p8Gldzio1SDWaS8j2FI/0IIHBPYUY8pT/dF7K+Z+GW3ZU757TPCMGBIzU7QG02DlIj1d4T17IlHpt6JDR8twNpFc+lmT0aQv2Q684uL8dW2HTxtFyuFuG1UJLqxKa9U0Zu+34VLlxPx/BvzUFJWhp4hwfjDI/dX7/yrheRrKfiJQnszBp0WZ89fqNr8rPqumNOenJIqcg6gaxo2KBxjIwejZzepWfTwdMe9k8Zjwpioej3lBqMMf5qUAa22lmNIkbzzl8Fw3bEiqVLnwDN+GnoPCMId07uRFbK8/KKDf8u8tqdBSmQNc3p7kN/xh2kP4OVnnhBStj7MOUvEiL5FenED82feIytWVCJFGaMjnXRaBdv2Hao2q2/Bqs/x6rtLqrY11CRZE3e1Zq+6LY/fdzfmvPYS1iyci8CADigsKsZHn31Z1dnqLH07VaBzBy1vxh3Cy5giLYc89wcuskZefBKK/L0wFlGzLFOgR1gI+g1v+TV2jVYia/y8PausTN2VZWHSbdFVDup10QwyX+nO2618r9rOR5RVaHH0xBmRY10RCrsbtx7sGmk7H3dZ2tlJRg+1LNHeceAwd7SdwUAxwYgepTBV1lHdZv2nT7eseSi9vodn9XodSjP2QX3tbyjQjkXZwA+4vLVQbyXK1uRhyZr13G+xJa+Q2ntxs4MCnO8RDSEfY/3S9+FvNQNgxsP3olOQ1TnMFeyArbv2ISdf6nRjA6Q7v1iFnRs+qbmt/xjdWbhP17mLIsD0TMs4UzXsfN9LzzxZdY0/UyDwn43f8HRd6PRyRIcXUVNWj+qmpi0g/5/Qx78HHPg9ggrehKF8INwj34fSt3W9XLXeSrSUFGj73oN47C9/xbqvvuFTH1hoznyOtVbNxfAGvFhhcHhvkWLp6k5xXey2mg4bHtaDD0mwTk3bjVmisbcMF3sCew87GE9zYPmih4sXmlL5/qMxTne2tvNm+9VhTm1hPpJuGyo0MuTH+yC3x2uioHVRLyXK0WhQXEr+iqiLDVt24MGZr/KxIeZzmEPnPj1DcfvISJ62iwOr8pc/TMebf34W/1k0D927hQhp3bBR/rTrZFHEecOEE+yI/r17ihRwztHKEAfXOIMc/ehISQnzCorwx9ffQlJqGs/XhpLC+4Ygk5nQcWgxTMF9yIl2vk6ak3opUaC/P5bN/ydemzkDEeF9uI/Buv3NY1tdKcqa88oLWD7/HzxvS2Wl8CFICe0NF/j6eFPUM5Kam5orOKwd5nKbsbaYsxckxaZtQnQUOtuZy2QN6zDtJd63fT4uEWkZlhFvhsFIv0c8KLarRtrRNc6b/QKGiqEP1vG4kIKB2qis1ENTzCLMhiiSDEbypfw8TkGR+5WQtS4aNSktKzubQvIEbtI7d+yIvr3Dah2hLqaoS5r5B75/fUJkNqsxP7+AK5NarUZQoMVfyiNfiE8poRsf3LmzkNYNm5XJesLZwLH1jMycXA1votl3BQb4w83OS0lZX1MuWWYZu8l0jpCu9tfAMdgL5P3LP0WHim2kR0I7GwIdek0+C0H9HhWC1sFvZrVHa0eetwNu1+dSqhFKRJj0MpQFzIO86x1C0vLU27F20TCMvmNhktubmuv8M2wyyGDSuMEj8d8wXt8npC2PS4maC6UPjB4iKmR6wwyS3AS5ygSFWiiStZGyNVjkYCNfLfW/GSvgGTcfRXnOjwHeSFxK1IxovJ7gymAykh+Vpway3ZFz3hu5sZ7QV5B2WBulqjQlKLIzlSp5U2aN/8UXYczYL3ItR4v6RIqEFZAZzRGbEkavbijrMAHuHtIYF3Nsc9Li0BFxUBSeh0yupn1CkakchoAuffgYHkNWnAjF9e08TTkYPSkU9umJSp9BUJYnQ5FODq0dX8Tk0QWGbtJ0FBaFqZPWQGaogL7744Cb1arR0mQo07bA4B8FU4CTI/cOUGYsod+9BdDLkaIxoFAjR/cgFQwyA/z7lrEJj4S4VqZwFJmZCknhKknGxDV/BkoGLoYqqOXe+d2ilkiRsQuKzD0U6mRDVngO6vjF8NTsFqV0cUWx6JbwJ7glfAhZSRI5pyehurIKIfEzSTG+E3tRvVZcp/xWyMpSKf5PgyphOdSnXoaq6BzdrFJ+nCzvFOTZB6Gk/eQ5h0h2iiufmaLcVKhSNvLzKK7vElIJuTaXjvuOrqfxiyH1nV8hRfGEv58cq7eXYskPBcgrMcKkVaAkw40eFLGjkhSoQgFTDsnIF+J3yo4CMZH3xb/Rb0+XBC1AizdnJo9g6Ae/h8rI1ajsMpVusGXWoCJtK0XEShSGPIfKkZ9BG70ZRX3eIpkC2mSrWQLCluZ1fx36IYskS0LISlNg8ouAbtSXqBy1Hobu0rQTfa9nSbYe+gGWyf4BshTyWYKhUfRDSW79xtTqRYWGrK8OOgPg6SaDrwepAesDI/+oooCssY4sD1MejRom8oEghvocwctMlVDHzEBlrmXssDlpeZ9Ist8ck09fyMulJ0pG1kmZtYdu+HNw6/0YlzGvUt11PPShj8NbRzdaW33dl9EgNY0mas6kynUwJGHVcWlGVnAahsAxSPWYDD/dJSFteuTZB+ivEcVFRsx9wgfvTPPnysSuSK+TwZDlTmZRRb+NtEfcHTsGqDrsYFIkj+ydUr6ZaXklgh4FOSnQZCRSE3McOk8xCb6MrAhVnyGo5sQvQ8eJvOJ488UQtexVEQdZ7i9A2k6YFB4od7eMxTF4XUvJash0uWQBf4YxIBqh/aJJ98rp+6sPZdg7riHINWKsjq6Zje6zTSGXfoCc7oaBFNz2u+r8boUaBr9hqAwVE/yamRZXIhk5rR3PP4kul54h65MBWfhfRAHrzabqI0fXFhmFuNyn5vsQopY9srZDHfcvyN07QHfbTqgDI6QCAT9EbGaMBj1Ux58nITUjqnbwkhfD0Ol35HtVn/lofUxDybx2Acp8adIcOx+bNm49/MN+k5aiNKFTVdj77iqZwhPlg5dCP2wxZF4tM7bW4kpk8uqFvOGbUXDLVmiHfwKTuzScofUgiyRTQZmwjEdpZlhaeZlk5CtVelYf6c/v9Q/oIt6FInsf5EnrhdQCO4t5M5OXeZVbIllFFtxiniLf4ilyordAnnsEpSWWRQfWxzQUXRpryqypeVYdRWG2ra05a61MRrp1xqDbkTNwDeTt+wtpy9DyzRk9fl7tAuHh7cenaphRu3tC3/U+KKiJU11eSrVG/o6+jIfaLNwvcR8Apbr6chiDXguTb38UqcMpXP8U2lxpzrYZdhNsn+ogubTywxDyMHQjv+BbyYCF9H166Kycd+k4up3sOmgzUXm9IM3oZTpYpRDSp+3V0KkpEtMZvXi5udT8yWQmNVnZjpOlYGHgHPj6Ox6zay5aVImY32JSOF4XVRL8FCr7vg5ZeQbUB6dAffgeyDN/RGX469AN+D+xF0FWyaRkq0ak6naLmA2jdy/IyWIZ9KIfijDJVdJ+Vc2gCYqM3TC2i6CIbjo55F35pgwaAWOH4ehY+C35qyV088g60HEsWlT//CDUR2g794Z0DieR0fcoyOJxSBtqqo8Ee46ylKNRNHIbsiK+QHr4GqT1XY3MAetQGPUdRajfwDTgr9R2Oz/QfKNpOwOwFTnU/rsBKl8hcAKK/JjPIZcLpbGFykwmA7lDtayNZxantnInUZ5/G8oc2xdTAJpc8sVsRvZlHcLhOXGFyLV+Wr45cxb3wPopEIOcZYcKxKC7WKsCMZpAgXTaMig0MTzNmyT6U9uTaypMglFbKHKtn7ajRG2YstwkHlFaK45ke5glFEplvZFvV/Fr3W8vaS245hM1McwHU1GzJTOxlaiimSq4AFXmDq5E1g0Xa86Ki9m0Nqmz0RoW/rsPe5HcPWldmdRnNp7yre9tuC4lamLk1zZBfWVldaWw1R4zJJfLHRcaha9kLi1AfyjHLoVS5fy7LpsDV3PWxLBB3RpPpT0dIZglYopipAPYxpoyS5rsE32aYWX6nHiUFVveRdRacClRU8MceTlZCtpMdWxGqzTb3zrP0kaFyNOntpKaMYWKFM+BRrYgrubMRaNxWSIXjcalRC4ajUuJXDQalxK5aDQuJXLRaFxK5KLRyEaPm1wV4kePugUvv/isyAEffPgxYk6c4mm21nzxgjk8zTh8NAYfrbS88fSh++/Gw/dP5enS0jLMmDmLpxnWZYzPNmzEjt2WFZybv7DMIqytjPHQdMv1TZ40AU8/MU3kqpcx1q36kP9XIMamb7dhs/jnNIyXXngGY8X/RmO8+vc5SE2T5ndHRQ7Da7P+xNMM67K66mH2S89jpHh1zbXUNLz2Bls6LVGf+s3OycWLr1imm9yo+l2x5P1q7zWof/164v8BljrvlRFzjhsAAAAASUVORK5CYII=;" parent="1" vertex="1">
          <mxGeometry x="597.5" y="618" width="145" height="71" as="geometry" />
        </mxCell>
        <mxCell id="VDRt1GdDFgU5lnnH4qG3-1" value="shared-resources" style="shape=image;verticalLabelPosition=bottom;verticalAlign=top;imageAspect=0;image=data:image/png,iVBORw0KGgoAAAANSUhEUgAAAO4AAACECAYAAACXgRceAAAAAXNSR0IArs4c6QAAAIRlWElmTU0AKgAAAAgABQESAAMAAAABAAEAAAEaAAUAAAABAAAASgEbAAUAAAABAAAAUgEoAAMAAAABAAIAAIdpAAQAAAABAAAAWgAAAAAAAAFKAAAAAQAAAUoAAAABAAOgAQADAAAAAQABAACgAgAEAAAAAQAAAO6gAwAEAAAAAQAAAIQAAAAAyiTvzQAAAAlwSFlzAAAywAAAMsABKGRa2wAAIsdJREFUeAHtXQmYFNW1vt2zMQsDw7CDIKKoILiigs8nuKDGxKgRoxLZkhDFaGJc8mL8BKKJMcnTxJcYg4qCMYkao1mMu2A0IriACIggEllkZ4bZt+5+/189t6em5nZVdU91T0/1Pd8307XcuvfWqfrrnHvuOecKoUlzQHOg23Eg0O163M07PGfOnLyWlpZ+gUCg4eGHH67A7US6wy1dddVVxQWBgpGhSKgskhPhe7Ortrb206eeeqqpO/Tfb30M+u2GMv1+GhoaSkVYXB5piVwxffr0I+bOnVuS4X0OXHnllWU5OTlnhgKhB0RQvIJPzVJ8eG4pLy/vneF99233cn17Zxl6Y/n5+bnhlvDYsAhPDwaCO+tr61fNnjn7XwDES7m5uesXLlzYnCldnz179mAREl9EX78CsJ4cEREN1Ax5OBq4XfcgqO0MARiGRCKRCwCQBU3hprUAyxPhcPglAHxrRUVFPVRRAjkt6vTUqVNz+vXrV1hXVzcCEvWr6Mc0tD0Mf1ozAxMyiTRw0/w0ANJmwGB3IBRoAWgl/zlmLAQ8x4dD4fHYrm1uav6kuLh41cyZM98PhoPvNoYa1z3++ONVXnd3/vz5wa1btw5Ev8YHIoEJdbV1E9DGOOzHla4BEWhB2T3Nzc0tXvdH1+eOA9o45Y5PXpYKTJs2rSckKgFyUyQcOQO/BLDyWRAkONeAv12Qgi/miJzFJbUla+958p4G7CcliQnWPXv2FNXX15+M+r8ByToJ9ZfhLx9/SukKIEeCwWAjevkyPjr3osfvLlq0qAblk+oDrtPUCQ4oX5ZO1KcvTYADN9xwQyHU4ZOAiSsAoMm4dCT+8uyqMIAcEGsgrf8OIL0Cqbfqscceq7W7pvVcYO7UucX1JfUnQlpOQZsXAoSjiUeHa6vxgViPdl+NBCJP79q1a93zzz/f6HCNPp1iDmjgppjBbqrH2DIfavFgAJGAuhpS+HgX11HSVQSCgQ8ArDuGDRv2BiSpUnXF8Vyow6dDsi6AfDwG11ENtn32qPMgyv4dYF0C7WDVxo0bK5ctW6as30VfdRGPOWD78DxuS1fnggNQo0sBlPMB4KsAnBMh6fqaxsLxaggDaI8BissBznbgwvG8oAhODEfCX8PFds87hLYqANSNKP9cbiT3iYWLF26O16A+3rUcsHuQXduzLG+dAC4IFowKB8JnAW5TwY6x+OMY1GuqR/2rUOmz+HsDwN+0ZMmSA9jWY1evOe1hfRq4HjIzRVUFoErn9ezZ82SAajrGp5MhgftDOha5kMTWLhGM9HSqgSTejuv/BseKJ6uqqj7CtFPIWljvZy4HNHAz99koe3b11Vf3h/fVaAD4aIDvaIBvFGTjMEjNQVCvS3EsZmzCPoFK49IWlKPauwGH1uZF8tY1Rho3uzRqKfuhD3YtBzRw08R/SM1CSM3TIDVnQVo2BHOC927evHlDZww+dJgYOHBgbmVlZW5eXl4wWB8saspr6gUjVxH+Io2Njftxe1UwfLXAet0yZsyYFhiqwgnecgD+1bktDS0nYaJoDryoDsGH4DPU8SZ+X4S3195M8vZK8N66bXEN3NQ/ugCcKIYDrPMh7WggymltshK/L8Aq/DTU1bcffPDBHQBCxowr+VEA4A8JRoKnRYKRr8DSPRn9tTplVEHS/xPHF8GgtkwDuPXJpuFHAzfFTAYASkqKS14EaOlwYeU3gdqAo58BtP8AgBc99NBDH6W4S7bV0zkDU0dj0d9vAKzno/Bg/PXAn7Xv5noOQoO4o7q6+pd6rGxmS+q27R5G6lrNoppnzZr1cwDgJpe3XAsArwBEngmGgisbw43bioqK9qVSkuHDkl9YWNgPH43hkVDkVLR/MdqnUwjB6ppwXRhaxdcXPbroUdcX6YJJc0ADN2nWOV84Y8aMkXihP4TxqNC5dLsStPBSld4BMGwI5ARWAkjLWRfcDKvblUxi57rrriutqak5HgauCRiz0kd5FIxXQ1BVL/zFjFtJVF3R3NI8Dj7V25O4Vl+SAAekk3sCl+iibjmQF8y7HIHnhQCF20tkOY6Dy/mHa8dBEl5GRRWSu3bWzFmf4PhqgI0fhE/DwfB2SMuKQFMgFMmPhOECGYGhKhAKhQI4novfvgD8UMQAH4brOBd8XHVV9Sj85st+yV8c6xShnTKMdWejkh91qiJ9sSMHNHAdWZR8AYD2HEjK5CswXxmtphj1HYvDxxpgo76E46GWUBPkZLNoEc2I8Q0hwigHwM7F8QKUyPOsD+b+KLbZDryupuCUBq6CP14e0sD1kpsd66KESwfRo4p/BqULqLI98y++GhPN+3o7NRwIpqZaXSs5AAD1yTZOQF3WdpM0PHQN3DQwWTehOeA1BzRwveaork9zIA0c0MBNA5N1E5oDXnNAA9drjur6NAfSwAEN3DQwWTehOeA1BzRwveaork9zIA0c0MBNA5N1E5oDXnNAA9drjur6NAfSwAEN3DQwWTehOeA1B7Lb5fGRLZO8Zqi5vl0fLDbvZs92ivkaY+SsEcti21m2kV3uaXyhgmISIm3OgHP+pCx71n6+3QWIflomsgjI2QFcAjZHzNNg9TN2Y/e2QMwYMT+259MN/wN3yZalGrA+fXvj35bvwetf4GopG/+1zpYzYTHZr+qzP4EbHcsuzZb3U9+nLQd8KX39OR0UFBq0tu9yVp2cJ/gh9xn5D7gc02rSHDBzwIcfcn+pyou3zMfzmmd+Zn7c5kPLCwZET6zDV5IXEEU5AYFd/AZFPtLMVTQhd2MEiwThX3VzRFQ1h0VjCAeymQKYLpo+YrJfWOA34Pr67SzODYghRbmiX4+gOAS/R/bKEyN75hrHgF8xtDhX9MkPitUVTaIZoCWAPz7YLD7C37bakNjXGBI760PiII77mlHx0OkjY5V/PKei0jbeI+uWx/lVLYA0/e8BPcRXDy3GbwGAmSMI4Hwcj/fVPQPlzUSQEsh1LRGANyze398onvhPrVi2q8EAd9aAmHP5ApLXBxTv2Xe/W1uMBel8QvnQe88c2ENcMLRIfGV4kRhUKJcb8vYGP4f0fWFHvfjbtjrx1t5Gsbch5G0DmVjbjBG+eOd9cROG1dAHBohCSNHJAOx9J5eLYcU5xjjW+u5TctZjvMq/XQAe1eCNVUipjDX4qArXYEw7oiTXkMj9CoJibFm+GI59joN74I8S3PzQ+bVrQZ2fVLeIBzZWiz9uqRX7UQ8O+ZN8oi6bn6G7B5WJpnX6H3dzo9TcI3uK2Yf3FCeWx9Ijx54HMfTOvkbx0uf14r0DTWIjwLqjdawaK2SzQdV6IKT2iJI8cUKffHHWoB7ilH4FoheMW2ai/epjfAQe21wjfv9pjdhe50MJTCNVSCww33eXbyfhY+0OuNoLKSXPlpbgo2Fguv+UcmMca24Ew1EYlFrE81Bl71l/UGyGRPSShsK4Ne2wYmPsfDgMXLRQm+ltqM53rT0oXsbHgtJdU4o5wA9KRLzu1s/aHrgasCl7WrlA7b0nlYkrR5SIPlBpzUT193vvHhArAZ4DsACnivjwSwDY4yGFrx7VU1w8rMhQp2V7nEb682d14hfrDhoquTyuf1POAUdvr/jAzZI50ZQ/AkUDoyFl/w/j2EkYz1LqSvqwskn8ZM1B8SdYfNNNGPoKWqOvP7rUGGeXmiTwcnxAfvRBpXgNVmjODWtKCwdswWt6bUyd0aA1McPbzUuHF4t7x/fB3GtOzEhEg9NtqyvF/RuqRA115C4kGrAoeb9/TC8xDoYt+YLsgcV5Hvr4OIxX1ZDEmtLAARunkY7zDBq0KXsiVEcJ2gEwFElAUJpdsmyPoZKmUCt2fU/8bqytbDYMYQTxkaV5hiW6OBcWwIHRZX7XQ5Wv7eIPjOsb6t4FDxUXfzcgnv3VMuttyPen7biP5kPbbqprtzgve+PoUnEzpFgZPJtIlLIPbaoRN793IGNBUIB+XwNr9w3o+yHwyuLLQjsVjWW/+qhK7PCj1dl4Ohn2TzGF1V7iRqXtpAzrdrfvzrxje4vvjW4DbSNAe+2KA+JuWG0bMthiy66thJcVjWV0r6S7Jcfkp/brYcwxr8WYvArzxppSzIGgOFQ886vF5lbamzO7+Vyo+cYyYZsGn28fVSq+BRW5d6ukpf/w9Df3icWYK+0Ohh7aouhddct7FeLNPY2GxOV9XYf74rxzX4tFPBP47rs+MD+axX+iDbiWE767+S64oWmHlYibx5QiKCCq2NDwdNnre8VfttYaqnK8Lh0GT6ejIOHSRcOgBnM+GX4acYl+zdeu2G/4N1PGUvL+YGwvzAWXxD5KcS/WJzznQBtwo95HnjeQrRVybpTjWjk2pCV2zvJ94o09DYZ7ooovBM43jugp1l80RDwysW+7qSJVeS+O0atqxsgS8eqUgeLuE/sY7pHx6l2DqKN5H1QIGtQoiWm8Ing5rcXxsKYUciAaIBFroA24sUN6o7McKIf6eNcJZYYU4+tMA+zNUDXpzB8vLpYAWnbuILFwQrkBglPhkkg1O9V05qBCOIEUG4EM38Uc7sMT+orTMZ8bD4b/hrp855pKwTln0gBoEz8EeMeW5cW9JtX3kI31m4E7LxsZ4PU9U/DcOra3OKVvQSxI4NeYn33qs9q41mPG1L5x3iBxWv+Cdi//fBi1DoXanCo6vGeeuAzRR1ItZ9/px3wfpqy+iMikeEKUY176M3/ealU+qbxAzME4nvHAmlLEAUsecDNwU9RidlU7BRLsgqGFsXEfJRSBW4E4WBXRT3gp1FSq1lbi1BH9mFNBVHPZz6lwCLHScejLL+COSWcR1biXY9xff1wtXjT5MU/HWHcitATWqyn1HNDA9ZDHdBNklA+NSyRakG9fXSG2IvsEX3YrDYX31HNnDbCVVGdDAl4FUHhNEwCymRjbMsxPRaPgeHHHcb0Nyas6T5X/p5jOehfTRbw31nMTDHFH4DpNqeeABq6HPJ4+slicALWR+aBIv4VUokGHzhZW4jTK05P6C6qrauhEr2BdPz6+t+jfapm21pPMPq3IlyOjBiWrHRG8ND4xRlhFjAP+E1wgtyOKiUSV+RK4S+opIhW3vD2mgesRPwmsiw6JGnlY5TuQRH/YUoOg9I4qMoH66Gn9EHtbEHccae7WYDg+3HNSH/OhpLf5IaAU5zSOGzoZY3UayY7prQY556NX7GuKzUlTOxgGjcPuY+SmXV3GngMauPb8cX32Uhh5juwV9SyigL0f0vY/NS1KFZlTPpRicbTUDm2y3EWQZByTdpbGI1Cf7dOK7Za+fEgRxrtFHcIPeT19lh/dXC0+bY0XpqHtC0OKRJl2zHDL3qTKaeAmxbb2F3Fsy/xQgwqjY1tK25XIWKFyxOcY8LZxvURhAsBha0Uo/3PMs1oD3tv3xH6PuasugcGJ49tEiB8OWo0nY5pIZWmmlZljXRlw/zUE6NM90v2nIZHe6LLkgAauB+8Bp1AoaaQEXfRJjdgKaauiBZjiMUcHqcqojhEEzCVFg1EyxPBaxtvOPtydimxtg6CfDmPWmF4dVWb6ND+NgHs51uXY+JS++cbHxlqP3veGAxq4HvDx3MGFgqlgSAx5o7RVxdUyzSrHl8l6GXGqhWNIeiolSmMxRv0mpKaMTkr0epbnfY4HIKXxzVwH82Ex4RydTfiROR/qcp+C9jEs5vJ6u3Mc0MDtHP8EpQsNN3LM+M/t9Ub2RVW112KqqLQ12EB13s2xXrj+ruPLEpJmtPJ+CePUeNZhN+2yDKd8GGTPGF0r1UHsLoU/877WFK9TAHImC1Cp1tZr9X7iHNDATZxn7a7geHEQXlASQ/Re342XV2FJpicVXQmTlbayUarjx/TOEzchTNANcSg9sX8PcQ2kLSVhZ+lsOJgwEyVjjK1Eh4zdrcAtQcO8Zwbga/KeA5qrneTpsUjvIuctOWf7GeY0mafYSlMxb9oZw5K5vmIMWGdhrOo0D8trRiHq5+soy3G1F0R1nR5S8mNlrpPxuZ9UtQjGG5P+Cx+MUq6NoslzDmjgdoKlVFsZYC4B+c7+JnEAycStRDWahiEmJbcjWmX/BYntRKxlMKT8nceVCSZRj0ccz16AsSb9jp2IUNsCgxqnsJzoDIyxhyv8kolXfry40BiJkrlES1wndiZ1XgM3KbZFLzoKYz2uFiChswbJyisViaMmIGMErbIK7bJd6w9vqhYXL90Tc2Zod9KyQ1WVEUSck1UR26L/83VH9XRsl9cTcLe+X2GsZEADkx1xjMvABNVHg9NCkgcMkOAqCrRoa/KWA5qlneAnpY40NtEveVN1s7GwlrXK07FYF8d8dkRpuwApUJlH+Ztv7bcrGjvHfMzMrsEgeCtx6ohzr4wHdqKDiBV+Cilh/4wIpn9iTnb5XmepfxyGCDJBgLl+WtVlFkjeMYMoVONh8zV6O3EOaOAmzrPYFYdgfR+pJnMdH04BqYTVaMx9OkXNEDTSqLUEy388B+u0ExEYBCj9ic1GL/bpHBiRVJE/1jrZX66W8Af4HFPSrj7QKN6Dyu9EnLeW6XjMZXci1I8fMXyHDOI0mQaumUPebGvgdoKP9A7q2SpJt9e1wFOqo18yx7d8ybksph0txIJbZpr11r6Yymk+bt2mR9WZSJt6OYLhSWxlDKzONyJSx0k1Z/kPoSJzoS+Ob0n8+KyGyr+1NXDAOKj4NxLBESrg0jDFj5jMp8XpsngRSIpq9SGXHNDAdckoVTGqqlKSbkfoHteftRJfcLpE2sGWqiod9c3EJS+vX3nAfCjuNsfPTKPKcEKqxnMw7mXUkRNRpWVWDkpcMzGr4yZYh+2I2gat6aqPAz2oZKaP4SU5WuLaMTLJcxq4STKOgOVqd1wDiEQpU68ALi3PDsJWrKtoVob+MbroL1vrHHvILnCce+u43sa6ulzMyw29urNB0D3TGnZI7YEr19sR1V+Occ0quizPNYckK3ICdp8seYX+TZQDGriJcqy1PF9HvpNOryWtzioXQXOzK+AiqSKOE7+zcr/Y7QAiXkupTuf+n51Y5krCUapyORGpIpvb34P2dtWrI5vM5fjBUOGSY1z5MaBU1jNCZq55s62BmyQfORViNro0YGwXinRUlVlG9XKbm7UbT3LV+OvfcacyU/qpLL3mtrjNqKXntteJZ5AmVkWUlnRhVDmSmMuzLdWUEC3krT4YxkfL6eNmrlNvu+OABq47PnUoRRWZEkdSlSFl5F7bb1+83E7OQzIcru2qti0CgONQBqx7RXTL5Orz0vKrqpf3Q/BqykwOaOAm+Vw4jjMvH8IMGNJQZa6Sai6K2tJBgMSOaOi5bVWFsdC1XTk35zYh3czjmG7yYqHsEL4qCiWj3fBBY9/NU0m8jAZu4jxL6ApOi9jDErmJHfyIKfdo/OJi150hqsgvIBDgScTOOhE1CifDEp1FOESwEnMtwyZnEK3jilky6yV6P0EOaOAmyDBZnNKW0ylyHFgCfVhlhNkP32VZRl5r/XUTI8txJ6dtHk1SZSa86BH1mw3Vjv3hCIBztE6+1eSBSqLSGBdsHdiz3x2hbeWA3k+UAxq4iXLMVJ6J4BpaxSkTuhUpkEsppxBKplqEOMEh26IszHliukWqLMGyTLzfzXDHXLK5VnwMVdmJaKHmagzmMbz1GlqNo+P6jrBk5BAuN2gHppakhdlah95PngMauMnzzpjrrGkdwDJHcrFiwpYpTDk9Ygfe45Ht0Q0RIlw9gCqzXX3WuqgZvLijASqy2opsLc/II6q7drQNDid00bT2gywgL6S3FMfSMszPrj59LjEOaOAmxq92pbfBQ0g61NMnt1hhPqbEpZSze3n5oo+Fm6Ib4piZK+f9zuIiGe9aAut9uDA+sLEq5s0Ur6w8TmeOwxVZLuR5/n4CCc4PkpWi0jon5phCHjkZ56x16H1nDmjgOvMoboltkH4y9pQGJs5rqpwtPjrY5AgaJmJzS7RC37O+SjBw3YkY2L8E4+K1lc4qsqzraARFjIT7pB3xY6SKPba6eG6GD7R0f7SrT59LjAMauInxq13pjfA+ovGJxFgDZsPopZC6K/Y2KVO1miu7EkngMLR0RVSZt2HsePvqynZTUtaLKe1f3RmN/LGei7fPONuTEAAvVd145dbhQ6BK9s4YYLp5kug2ybG1DDiIV5c+njgH7D+rideXVVcwvxIlymkACKN0GKNKa6wMz5PM4Jq4n8OF0C6YfjAk9rdGlRoLhMnr7H4pxagy01h1JjJHqky37BsXHDPPN9vVyXNnIbsFs1HaEWNu+adyHGHWi96tH69VUNGlRmJXnz6XOAc0cBPnWbsrmDliH6TusNxcI1VLX6QkZZpSMxE4/9hWb2RH5BgwHjHn8u/hHCEzSMQrJ49zjMmFt/jnBY3Dh+e8IYXKFQvM9TO9zmetYYDm4/RLHo2xurSu0wdbGu/M5fR25zkQ/y3qfN1ZUcPbWJ2dzhEkhtQdC1WRc7pW+it8g508pBgmuGhiX+uladmnz/FFSOHKAHw7opGNS4fSh9pKlNSDsZoDp5GoHr8JgEvjnbWs3u8cBzRwO8c/I1cTDTVSHf0CJNbAHh0VGeaj+jdA7mSoYd7i7x/jLvVqJ7seu5xAuwxZKJkw3Wls+/LnDeID3IvKqeQc5FLu3yP6Si3HvTLxHEYRmlLAAQ3cTjKVnkOvY6wppS6lzjAEmVundPn+/gwqrXX8q2r+pyeUiW/GSQKnKt+ZY+wns0DeMLrUmH+1q4tjWkYUqZw4mEKHjiQylQ9T7+xXTBfZ1a/PueeABq57XsUt+RqAux1TQyQapy4ZVqx0YKCx5llE+qiMOtbKf3NKH6yLW2Y97Ok+Je2FUI/vxoeCFnEn4uJeHLeqrMRMncOMjiQa7TgO1mqyE0eTP6+BmzzvYlfSBfFlOO/ToZ50CZakZGpSlcvg/647KHYA5E4aJOeDb0USOC5+7QZUsc643BgIK/YtY3qJ+04uN1KtOl3GMS1zU22ANdlKXGrkPENNjnpbPYFynD+m84em1HBAA9cjvj6B9KaftlpaOe3DsSotzFYiyOevrnAtjbjC+xvnDfRU+jK4nxkgKdHpteVEHA78Fuv9voQ5YW5bieNj5riCADe8qZ6BViE/Ytayet8bDmjgesNHY9z3CnI4HWhdN+jrGKNyiRCVJxVTxjysyPUUryucXhmtyJ0cr7zTcaq6dP7f06ohOJX/C8a1T8PPWWUVZ0bJSzE0kEuS/An3xphfFcCd2tHn3XNAA9c9rxxLPoSVCNbDvZEqIkP1rj+q1FixTnXhD7BqwDvI7OhGnQwjWv1fcOLwkqiuq9ReaxtcMvR+SFvmqLISDVtMyH5MWVTacpzP/MxOieas9ej9xDmggZs4z+JewekPhs5RmpHOxdTQl2H8UTldcFrowqW7BQ1WCu2zXRuUXrRce0ns4wZIRjt6B6C9bVVl3LZ5b5z3lffH8Tv9p918jOza1eecOaCB68yjhEo8jpSqnK+l5Zj+yz+EgSneYtD09f3Sa7uNhbDtGuEU0mp4aHlJuxFI/DGkaLyPBqXxTzB99QrGtaoyXD/o+qNLjUXP2C+W4zKbbr2+vLyXbKxLA9fjp85g9zvWVIp1rZKHEUN3YbqFCcRpvLES1covvLLbWD3Aeo77lF70zvJaijG4nZZfht1Z6S20x8ySTFKnAi3XQbp1XC9j/VveEy3Ov1hXhbWTOtZlrVvve8MBDVxv+NiulvWInOGLLFXm8QiU//mJfeLmlmLupgnP7xS//KiqXT3cIXBe29V+pYEOhZI8wNUXGOgviV5Of0Y+qqvf3m9Mb6k+FjS23YhppPMx/cPkeDR0/fTDg8bHReVNJevWv95yQAPXW37GansS00OPfVobCzbntA6DCJgSRkV0mbwBUm7q63uM9XtkGcMwBWeGVBBDA6WBitM3P/mwUlzz9j5jPSFVe5yXnoulTri0JzUJflQe2lQj/grJzGVUNKWPA+q3KH3t+7YlvtR3Y4xIdZNxsSS+8PMBXukWaBy0/KPEO+7vO2LSl6o0Y19TQQQrA+z5kfnSa3vEnWviu2RSJb72yFJxo8k18lksj/Kbj6uU6nYq+qvrbONA27Br8Zbo29V2Tm95wAFOCz1yWl/Ds0g68DPtzA+RJ5lzvnZMHws3xAuHFoofQxVNFVH15UugcmOUbTLb47cxtfUdGKOYj4rEpOrMffW+iyU5ZT36t5McmDEihtfYhtDA7SRX41/OjBCPIFyPkUMSvLTCTntjn6MTBB+QHbjjt+rNGS4T+j+IVroG0laq+UwTezu8v5jLSjUO9qZlXUsHDpiAq1XlDtzx/gA9jqa/uVf8ESqpDP87G/OfS6cMdMw20ZWgpcRnfPBNMEYRtOzLM1CPb3rvgHgXklaD1vt3xW2NbcANiGVuL9LlEucAF4z+1vL9GBNWx/yUmS3i5XMGiO9CBVUtnpV4K95cQV/mS+HL/ChU/KnwQ6b1mMN0Lr59M0BLq7mmruVAG3Aj4vWu7Yr/W+c48ha8+NdgukXG7xIk947vI5aeO1AwEL2riZFID5xaLhZOKDfia6mq0z3y++g3x+VerDnU1ffYLdu3CNY24Ia1xE3HA6V6ySCD01/YacS2ynV1TulbIF46e4D4w+n9EGmT2yEQP5V94wIMDEO8HQtj/+OsAWLW4SWGrzWl7GqMY+eu2C/uwxyzKqtjKvul6zZxwCJYO+ZYMZXVm6njABPKnfPybvFVqKLMeCENP1cgIP2LsCS/ibxOP4PvLzM5porokslxLIFKv+MhSOrOwAESE+D9bmONeBDqMed79Xg2ypdM+d/6mFq7s2TLUlggJmVK57KlH4zfvQfqMoPRmUHDTHSQ4Fq2zCjBIAbV6gHm8k7btBIPR1K7U/sViCtGlIgzBhS0Cz2kIW0Z2mLCdbapKUM4YLIos0ftgfvIlkkiKJZmSFezqhuUdFw4jA4aM7GqARe7kw8HGqvhxFEBKfgBgg1o2WVUEYPyGczANWpZJmJarJar5bEOjqH5YWCSc46hJwKwXMu3BGliKXFJvJbWbk7z3AvAvrc/GiRhnNT/MoEDC8SMEfPNHZHvRtuxxVtYYF7bAb2Vbg6MQuQNs0pw3peSseNDivaIluqdSLTOpOPRBbQJQayqALDS8aMP/voBtPxVEbBqJABgLikGy69EfLBeWU/FqS491gG07I36ndAqc5c+Kflg6NV0RGmu4bU0BdKyHAAsNknKRDtJY1M9rGF7EdL3NmJtuTI91eE6IFiPYRPlZprKW1Rk2araOBUSCwQ92/R4V/Ip7b+UnZw+op8yp484l8oUqEdAGh8BqzNX0xvbG4tzYZveWNbFsekfXQXHf047McSQ9TASiEYxhvOp0tCk/SZ1g/YcCIvJ8QqoJa4srdVmyYmM/uX4mIEL/CVFJWvE1v84WlL/z0gOcM6WwnPWiGXx+mcPXF4VBS+35vGfJs0BzYEUccAFYGXLzsCVJfnbBmKOjs8wn+rSba3Sdyn7u13jFi+kLu0/HSuk85ONhLX2MTHgWq/OlH09jZUpT6I79ENppe0OHTf3UT1PYC7RHbYT+FJ1h9vRfUwhB6R0S2ET6ajaH8AlpzJJ/UnHk9NtJMcBn3zk/QNcWuE0aQ7Yc8A374g/xrjyYWnHEckJ/WvlADWy6SMmWw93133/SFw+AS11u+t7mPp+W8LiUt9galvwl8Qlr7SFObVvTPes3ReWZDPr/SVxeWdR44NvxjLmh6W3k+KA70BLLvhP4spnq901JSey+deXoOUD9S9weXcavORCtpJvQcsH6m/gyldWA1hywv+/Cfj7dmdmZAdw5RMigOljrX2bJUf88Sudbxwiavxxs9G7yC7gmp9cVApLLmROwIS5j3o7PgeSdM6PX6E+ozmgOaA5oDmgOaA5oDlg5cD/A+qplueDZ5IZAAAAAElFTkSuQmCC;" vertex="1" parent="1">
          <mxGeometry x="100" y="180" width="60" height="45.5" as="geometry" />
        </mxCell>
      </root>
    </mxGraphModel>
  </diagram>
</mxfile>
